<?xml version="1.0" encoding="utf-8"?>
<!-- Generator: Adobe Illustrator 16.0.0, SVG Export Plug-In . SVG Version: 6.00 Build 0)  -->
<!DOCTYPE svg PUBLIC "-//W3C//DTD SVG 1.1//EN" "http://www.w3.org/Graphics/SVG/1.1/DTD/svg11.dtd">
<svg version="1.1" id="Layer_1" xmlns="http://www.w3.org/2000/svg" xmlns:xlink="http://www.w3.org/1999/xlink" x="0px" y="0px"
	 width="308px" height="200px" viewBox="0 0 308 200" enable-background="new 0 0 308 200" xml:space="preserve">
<g>
	<rect x="6.505" y="35.379" fill="#FFFFFF" width="295.5" height="159.595"/>
	<rect x="30.505" y="110.059" fill="#00AEEF" width="84.603" height="82.846"/>
	<rect x="5.506" y="38.382" fill="#FECE9A" width="297.494" height="61.618"/>
	<ellipse fill="#EF4136" cx="154.475" cy="60.651" rx="32.969" ry="15.75"/>
	<rect x="5.506" y="81.404" opacity="0.4" fill="#F15A29" width="297.494" height="18.596"/>
	<rect x="26.007" y="90.117" fill="#FFFFFF" width="29" height="3.962"/>
	<rect x="70.153" y="90.117" fill="#FFFFFF" width="29" height="3.962"/>
	<rect x="114.299" y="90.117" fill="#FFFFFF" width="29" height="3.962"/>
	<rect x="158.444" y="90.117" fill="#FFFFFF" width="29" height="3.962"/>
	<rect x="202.589" y="90.117" fill="#FFFFFF" width="29" height="3.962"/>
	<rect x="246.735" y="90.117" fill="#FFFFFF" width="29" height="3.962"/>
	<rect x="261.235" y="105.904" fill="#8DC63F" width="29.271" height="29.271"/>
	<rect x="261.235" y="138.904" fill="#A7A9AC" width="29.271" height="2"/>
	<rect x="261.235" y="142.904" fill="#A7A9AC" width="29.271" height="2"/>
	<rect x="261.235" y="146.904" fill="#A7A9AC" width="29.271" height="2"/>
	<rect x="261.235" y="150.904" fill="#A7A9AC" width="20.271" height="2"/>
	<rect x="119.608" y="111.904" fill="#A7A9AC" width="52.852" height="8.635"/>
	<rect x="119.608" y="125.404" fill="#A7A9AC" width="44.145" height="3.077"/>
	<rect x="119.608" y="132.904" fill="#A7A9AC" width="97.481" height="2.271"/>
	<rect x="119.608" y="137.634" fill="#A7A9AC" width="101" height="2.271"/>
	<rect x="119.608" y="142.363" fill="#A7A9AC" width="99.564" height="2.271"/>
	<rect x="119.608" y="147.029" fill="#A7A9AC" width="99.564" height="2.271"/>
	<rect x="119.608" y="151.695" fill="#A7A9AC" width="101" height="2.271"/>
	<rect x="119.608" y="156.361" fill="#A7A9AC" width="64.063" height="2.271"/>
	<rect x="119.608" y="163.468" fill="#A7A9AC" width="95.551" height="2.271"/>
	<rect x="119.608" y="168.197" fill="#A7A9AC" width="99" height="2.271"/>
	<rect x="119.608" y="172.927" fill="#A7A9AC" width="97.592" height="2.271"/>
	<rect x="119.608" y="177.593" fill="#A7A9AC" width="97.592" height="2.271"/>
	<rect x="119.608" y="182.259" fill="#A7A9AC" width="99" height="2.271"/>
	<rect x="119.608" y="186.925" fill="#A7A9AC" width="62.795" height="2.271"/>
	<rect x="4" y="4" fill="#EC008C" width="300" height="34.568"/>
	<path fill="#D1D3D4" d="M297.656,200H10.345C4.641,200,0,195.373,0,189.686V10.313C0,4.627,4.641,0,10.345,0h287.311
		C303.359,0,308,4.627,308,10.313v179.372C308,195.373,303.359,200,297.656,200z M10.345,8C9.052,8,8,9.038,8,10.313v179.372
		C8,190.962,9.052,192,10.345,192h287.311c1.292,0,2.344-1.038,2.344-2.314V10.313C300,9.038,298.948,8,297.656,8H10.345z"/>
	<g>
		<circle fill="#FFFFFF" cx="249.6" cy="23.237" r="4.25"/>
		<circle fill="#FFFFFF" cx="265.485" cy="23.237" r="4.25"/>
		<circle fill="#FFFFFF" cx="281.509" cy="23.237" r="4.25"/>
	</g>
</g>
</svg>
