<?xml version="1.0" encoding="utf-8"?>
<!-- Generator: Adobe Illustrator 16.0.0, SVG Export Plug-In . SVG Version: 6.00 Build 0)  -->
<!DOCTYPE svg PUBLIC "-//W3C//DTD SVG 1.1//EN" "http://www.w3.org/Graphics/SVG/1.1/DTD/svg11.dtd">
<svg version="1.1" id="Layer_1" xmlns="http://www.w3.org/2000/svg" xmlns:xlink="http://www.w3.org/1999/xlink" x="0px" y="0px"
	 width="308px" height="200px" viewBox="0 0 308 200" enable-background="new 0 0 308 200" xml:space="preserve">
<g>
	<rect x="6.744" y="37.453" fill="#D3DAE9" width="295.5" height="159.595"/>
	<rect x="137.5" y="133.125" fill="#D3D3D1" width="18.5" height="2.25"/>
	<rect x="133.75" y="129.75" fill="#FFFFFF" width="129.75" height="37.75"/>
	<rect x="40" y="129.75" fill="#FFFFFF" width="90.5" height="26.25"/>
	<rect x="40" y="171.832" fill="#FFFFFF" width="90.5" height="23.25"/>
	<rect x="40" y="36.5" fill="#2F54A4" width="223.5" height="78.784"/>
	<rect x="173" y="102.5" fill="#FFFFFF" width="22.5" height="9"/>
	<rect x="197.5" y="102.5" fill="#FFFFFF" width="61.5" height="9"/>
	<rect x="90.5" y="101.596" fill="#FFFFFF" width="30.25" height="2.203"/>
	<rect x="90.5" y="108.048" fill="#FFFFFF" width="52.25" height="2.202"/>
	<rect x="40" y="117.25" fill="#FFFFFF" width="223.5" height="9.5"/>
	<rect x="48.001" y="83" fill="#F3C118" stroke="#FFFFFF" stroke-miterlimit="10" width="39" height="39"/>
	<rect x="90.5" y="120.875" fill="#D3D3D1" width="18.5" height="2.25"/>
	<rect x="115.25" y="120.875" fill="#D3D3D1" width="18.5" height="2.25"/>
	<rect x="140" y="120.875" fill="#D3D3D1" width="18.5" height="2.25"/>
	<rect x="151.75" y="134.25" fill="#D3D3D1" width="18.5" height="2.25"/>
	<rect x="151.75" y="139.125" fill="#D3D3D1" width="13" height="2.25"/>
	<rect x="164.75" y="120.875" fill="#D3D3D1" width="18.5" height="2.25"/>
	<rect x="45.753" y="135.002" fill="#D3D3D1" width="14.75" height="14.75"/>
	<rect x="65.753" y="140.252" fill="#D3D3D1" width="50.25" height="2.125"/>
	<rect x="65.753" y="145.252" fill="#D3D3D1" width="27.75" height="1.75"/>
	<rect x="137.5" y="133.373" fill="#39B54A" width="11.75" height="11.75"/>
	<rect x="133.75" y="170.5" fill="#FFFFFF" width="129.75" height="23.473"/>
	<rect x="151.75" y="175" fill="#D3D3D1" width="18.5" height="2.25"/>
	<rect x="151.75" y="179.875" fill="#D3D3D1" width="13" height="2.25"/>
	<rect x="137.5" y="174.123" fill="#F9ED32" width="11.75" height="11.75"/>
	<rect x="138.5" y="148.625" fill="#F1F3FA" width="119" height="13.375"/>
	<rect x="40.25" y="158.625" fill="#F1F3FA" width="90.25" height="13.375"/>
	<rect x="270.23" y="59" fill="#425A7B" width="11.773" height="3"/>
	<rect x="270.23" y="65.548" fill="#A7B7CF" width="14.52" height="3"/>
	<rect x="270.23" y="72.096" fill="#A7B7CF" width="11.773" height="3"/>
	<rect x="270.23" y="78.644" fill="#A7B7CF" width="9.27" height="3"/>
	<rect x="270.23" y="85.191" fill="#A7B7CF" width="16.023" height="3"/>
	<g>
		<rect x="267" y="59" fill="#425A7B" width="1.5" height="29.191"/>
		<rect x="267" y="59" fill="#A7B7CF" width="1.5" height="29.191"/>
	</g>
	<g>
		<rect x="267" y="59" fill="#425A7B" width="1.5" height="3"/>
		<rect x="267" y="59" fill="#425A7B" width="1.5" height="3"/>
	</g>
	<rect x="49.002" y="176.125" fill="#27AAE1" width="72.749" height="21.625"/>
	<rect x="4.494" y="4.595" fill="#262262" width="300" height="34.569"/>
	<path fill="#D1D3D4" d="M298.15,200.596H10.84c-5.705,0-10.346-4.627-10.346-10.314V10.909c0-5.687,4.641-10.314,10.346-10.314
		h287.31c5.703,0,10.344,4.627,10.344,10.314v179.372C308.494,195.969,303.853,200.596,298.15,200.596z M10.84,8.595
		c-1.293,0-2.346,1.038-2.346,2.314v179.372c0,1.276,1.053,2.314,2.346,2.314h287.31c1.293,0,2.344-1.038,2.344-2.314V10.909
		c0-1.276-1.051-2.314-2.344-2.314H10.84z"/>
	<g>
		<circle fill="#FFFFFF" cx="250.095" cy="23.833" r="4.25"/>
		<circle fill="#FFFFFF" cx="265.98" cy="23.833" r="4.25"/>
		<circle fill="#FFFFFF" cx="282.003" cy="23.833" r="4.25"/>
	</g>
</g>
</svg>
