<?xml version="1.0" encoding="utf-8"?>
<!-- Generator: Adobe Illustrator 16.0.0, SVG Export Plug-In . SVG Version: 6.00 Build 0)  -->
<!DOCTYPE svg PUBLIC "-//W3C//DTD SVG 1.1//EN" "http://www.w3.org/Graphics/SVG/1.1/DTD/svg11.dtd">
<svg version="1.1" id="Layer_1" xmlns="http://www.w3.org/2000/svg" xmlns:xlink="http://www.w3.org/1999/xlink" x="0px" y="0px"
	 width="308px" height="200px" viewBox="0 0 308 200" enable-background="new 0 0 308 200" xml:space="preserve">
<g>
	<rect x="7" y="34.461" fill="#414042" width="295.5" height="159.595"/>
	<rect x="4.495" y="34.461" fill="#262262" width="299.999" height="41.207"/>
	<ellipse fill="#FFFFFF" cx="40.023" cy="51.335" rx="7.689" ry="7"/>
	<rect x="34.149" y="69.338" fill="#FFFFFF" width="31.333" height="2.667"/>
	<rect x="73.483" y="69.338" fill="#FFFFFF" width="31.333" height="2.667"/>
	<rect x="112.816" y="69.338" fill="#FFFFFF" width="31.333" height="2.667"/>
	<rect x="152.15" y="69.338" fill="#FFFFFF" width="31.334" height="2.667"/>
	<rect x="191.484" y="69.338" fill="#FFFFFF" width="31.333" height="2.667"/>
	<rect x="237.333" y="62.671" fill="#1C75BC" width="38.666" height="9.333"/>
	<circle fill="#1C75BC" cx="283.126" cy="67.337" r="3.127"/>
	<rect x="264.564" y="48.232" fill="#FFFFFF" width="19.334" height="2.332"/>
	<rect x="240.076" y="48.232" fill="#FFFFFF" width="19.334" height="2.332"/>
	<rect x="215.587" y="48.232" fill="#FFFFFF" width="19.333" height="2.332"/>
	<rect x="49.816" y="48.232" fill="#FFFFFF" width="29.087" height="6.832"/>
	<rect x="21" y="102.854" fill="#939598" width="267.214" height="14.82"/>
	<g>
		<rect x="223.28" y="88.167" fill="#939598" width="3.928" height="3.927"/>
		<rect x="227.972" y="88.167" fill="#939598" width="3.928" height="3.927"/>
		<rect x="232.666" y="88.167" fill="#939598" width="3.928" height="3.927"/>
		<rect x="237.359" y="88.167" fill="#939598" width="3.926" height="3.927"/>
		<rect x="242.05" y="88.167" fill="#939598" width="3.928" height="3.927"/>
		<rect x="246.744" y="88.167" fill="#939598" width="3.928" height="3.927"/>
		<rect x="251.437" y="88.167" fill="#939598" width="3.928" height="3.927"/>
		<rect x="256.13" y="88.167" fill="#939598" width="3.928" height="3.927"/>
		<rect x="260.822" y="88.167" fill="#939598" width="3.928" height="3.927"/>
		<rect x="265.515" y="88.167" fill="#939598" width="3.928" height="3.927"/>
		<rect x="270.208" y="88.167" fill="#939598" width="3.928" height="3.927"/>
		<rect x="274.902" y="88.167" fill="#939598" width="3.928" height="3.927"/>
		<rect x="279.595" y="88.167" fill="#939598" width="3.928" height="3.927"/>
		<rect x="284.287" y="88.167" fill="#939598" width="3.928" height="3.927"/>
	</g>
	<rect x="38.333" y="106.675" fill="#27AAE1" width="9.379" height="8.326"/>
	<path fill="#262262" d="M288.214,99.585c0,0.782-0.672,1.417-1.502,1.417H22.502c-0.83,0-1.502-0.635-1.502-1.417v-4.072
		c0-0.782,0.673-1.417,1.502-1.417h264.21c0.83,0,1.502,0.635,1.502,1.417V99.585z"/>
	<rect x="38.333" y="96.667" fill="#BCBEC0" width="25.333" height="2.167"/>
	<rect x="164.667" y="96.667" fill="#BCBEC0" width="25.332" height="2.167"/>
	<rect x="232.5" y="96.667" fill="#BCBEC0" width="25.333" height="2.167"/>
	<rect x="52.167" y="106.672" fill="#FFFFFF" width="23.833" height="2.829"/>
	<rect x="52.167" y="111.334" fill="#FFFFFF" width="56.5" height="1.167"/>
	<rect x="52.167" y="113.834" fill="#FFFFFF" width="50.167" height="1.167"/>
	<rect x="164.667" y="108.331" fill="#FFFFFF" width="30.166" height="1.167"/>
	<rect x="164.667" y="110.831" fill="#FFFFFF" width="26.785" height="1.167"/>
	<rect x="232.234" y="108.331" fill="#FFFFFF" width="30.166" height="1.167"/>
	<rect x="232.234" y="110.831" fill="#FFFFFF" width="26.785" height="1.167"/>
	<rect x="21" y="119.854" fill="#939598" width="267.214" height="14.82"/>
	<rect x="38.333" y="123.675" fill="#27AAE1" width="9.379" height="8.326"/>
	<rect x="52.167" y="123.672" fill="#FFFFFF" width="23.833" height="2.829"/>
	<rect x="52.167" y="128.334" fill="#FFFFFF" width="56.5" height="1.167"/>
	<rect x="52.167" y="130.834" fill="#FFFFFF" width="50.167" height="1.167"/>
	<rect x="164.667" y="125.331" fill="#FFFFFF" width="30.166" height="1.167"/>
	<rect x="164.667" y="127.831" fill="#FFFFFF" width="26.785" height="1.167"/>
	<rect x="232.234" y="125.331" fill="#FFFFFF" width="30.166" height="1.167"/>
	<rect x="232.234" y="127.831" fill="#FFFFFF" width="26.785" height="1.167"/>
	<rect x="21" y="136.854" fill="#939598" width="267.214" height="14.82"/>
	<rect x="38.333" y="140.675" fill="#27AAE1" width="9.379" height="8.326"/>
	<rect x="52.167" y="140.672" fill="#FFFFFF" width="23.833" height="2.829"/>
	<rect x="52.167" y="145.334" fill="#FFFFFF" width="56.5" height="1.167"/>
	<rect x="52.167" y="147.834" fill="#FFFFFF" width="50.167" height="1.167"/>
	<rect x="164.667" y="142.331" fill="#FFFFFF" width="30.166" height="1.167"/>
	<rect x="164.667" y="144.831" fill="#FFFFFF" width="26.785" height="1.167"/>
	<rect x="232.234" y="142.331" fill="#FFFFFF" width="30.166" height="1.167"/>
	<rect x="232.234" y="144.831" fill="#FFFFFF" width="26.785" height="1.167"/>
	<rect x="21" y="153.854" fill="#939598" width="267.214" height="14.82"/>
	<rect x="38.333" y="157.675" fill="#27AAE1" width="9.379" height="8.326"/>
	<rect x="52.167" y="157.672" fill="#FFFFFF" width="23.833" height="2.829"/>
	<rect x="52.167" y="162.334" fill="#FFFFFF" width="56.5" height="1.167"/>
	<rect x="52.167" y="164.834" fill="#FFFFFF" width="50.167" height="1.167"/>
	<rect x="164.667" y="159.331" fill="#FFFFFF" width="30.166" height="1.167"/>
	<rect x="164.667" y="161.831" fill="#FFFFFF" width="26.785" height="1.167"/>
	<rect x="232.234" y="159.331" fill="#FFFFFF" width="30.166" height="1.167"/>
	<rect x="232.234" y="161.831" fill="#FFFFFF" width="26.785" height="1.167"/>
	<rect x="21" y="170.854" fill="#939598" width="267.214" height="14.82"/>
	<rect x="38.333" y="174.675" fill="#27AAE1" width="9.379" height="8.326"/>
	<rect x="52.167" y="174.672" fill="#FFFFFF" width="23.833" height="2.829"/>
	<rect x="52.167" y="179.334" fill="#FFFFFF" width="56.5" height="1.167"/>
	<rect x="52.167" y="181.834" fill="#FFFFFF" width="50.167" height="1.167"/>
	<rect x="164.667" y="176.331" fill="#FFFFFF" width="30.166" height="1.167"/>
	<rect x="164.667" y="178.831" fill="#FFFFFF" width="26.785" height="1.167"/>
	<rect x="232.234" y="176.331" fill="#FFFFFF" width="30.166" height="1.167"/>
	<rect x="232.234" y="178.831" fill="#FFFFFF" width="26.785" height="1.167"/>
	<rect x="21" y="187.854" fill="#939598" width="267.214" height="12.146"/>
	<rect x="38.333" y="190.985" fill="#27AAE1" width="9.379" height="6.824"/>
	<rect x="52.167" y="190.983" fill="#FFFFFF" width="23.833" height="2.318"/>
	<rect x="52.167" y="194.804" fill="#FFFFFF" width="56.5" height="0.957"/>
	<rect x="52.167" y="196.854" fill="#FFFFFF" width="50.167" height="0.956"/>
	<rect x="164.667" y="192.343" fill="#FFFFFF" width="30.166" height="0.957"/>
	<rect x="164.667" y="194.392" fill="#FFFFFF" width="26.785" height="0.957"/>
	<rect x="232.234" y="192.343" fill="#FFFFFF" width="30.166" height="0.957"/>
	<rect x="232.234" y="194.392" fill="#FFFFFF" width="26.785" height="0.957"/>
	<rect x="4.495" y="5" fill="#2E3192" width="299.999" height="34.568"/>
	<path fill="#D1D3D4" d="M298.15,201H10.84c-5.705,0-10.345-4.627-10.345-10.314V11.313C0.495,5.627,5.135,1,10.84,1h287.31
		c5.703,0,10.344,4.627,10.344,10.313v179.372C308.494,196.373,303.853,201,298.15,201z M10.84,9c-1.293,0-2.345,1.038-2.345,2.313
		v179.372c0,1.276,1.052,2.314,2.345,2.314h287.31c1.293,0,2.344-1.038,2.344-2.314V11.313c0-1.275-1.051-2.313-2.344-2.313H10.84z"
		/>
	<g>
		<circle fill="#FFFFFF" cx="250.095" cy="24.237" r="4.25"/>
		<circle fill="#FFFFFF" cx="265.98" cy="24.237" r="4.25"/>
		<circle fill="#FFFFFF" cx="282.003" cy="24.237" r="4.25"/>
	</g>
</g>
</svg>
