<?xml version="1.0" encoding="utf-8"?>
<!-- Generator: Adobe Illustrator 16.0.0, SVG Export Plug-In . SVG Version: 6.00 Build 0)  -->
<!DOCTYPE svg PUBLIC "-//W3C//DTD SVG 1.1//EN" "http://www.w3.org/Graphics/SVG/1.1/DTD/svg11.dtd">
<svg version="1.1" id="Layer_1" xmlns="http://www.w3.org/2000/svg" xmlns:xlink="http://www.w3.org/1999/xlink" x="0px" y="0px"
	 width="308px" height="200px" viewBox="0 0 308 200" enable-background="new 0 0 308 200" xml:space="preserve">
<g>
	<rect x="6.483" y="36.863" fill="#5A6170" width="295.5" height="159.595"/>
	<g>
		<g>
			<g>
				<circle fill="#00A4A1" cx="45.843" cy="153.92" r="30.012"/>
			</g>
		</g>
		<g>
			<g>
				<polygon fill="#3C454F" points="41.785,136.988 40.447,136.988 40.447,158.633 41.785,157.686 				"/>
				<path fill="#3C454F" d="M46.242,164.703h2.711c-0.551-0.221-1.082-0.486-1.588-0.795L46.242,164.703z"/>
				<path fill="#3C454F" d="M52.814,136.988h-1.191v7.139c0.395-0.051,0.793-0.078,1.191-0.084V136.988z"/>
				<path fill="#3C454F" d="M46.298,146.353c0.935-0.737,1.987-1.312,3.102-1.704v-7.66h-5.544v12.083
					C44.5,148.043,45.319,147.126,46.298,146.353z"/>
				<polygon fill="#3C454F" points="38.306,136.988 35.631,136.988 35.631,162.039 38.306,160.146 				"/>
				<rect x="27.199" y="136.988" fill="#3C454F" width="2.172" height="27.715"/>
				<polygon fill="#3C454F" points="31.924,164.662 31.924,136.988 30.701,136.988 30.701,164.703 31.868,164.703 				"/>
				<polygon fill="#3C454F" points="34.027,136.988 32.805,136.988 32.805,164.038 34.027,163.176 				"/>
				<path fill="#3C454F" d="M55.711,144.412v-7.424h-1.19v7.174c0.29,0.043,0.58,0.098,0.865,0.165
					C55.497,144.354,55.605,144.383,55.711,144.412z"/>
				<path fill="#3C454F" d="M60.118,136.988h-1.82v8.494c0.65,0.376,1.262,0.818,1.82,1.322V136.988z"/>
				<path fill="#3C454F" d="M58.297,164.035v0.668h1.82v-1.99c-0.187,0.169-0.378,0.332-0.577,0.488
					C59.145,163.51,58.728,163.787,58.297,164.035z"/>
				<path fill="#3C454F" d="M61.707,148.6c1.262,1.797,1.953,3.959,1.953,6.153c0,0.804-0.093,1.605-0.271,2.386v0.016l-0.021,0.082
					c-0.315,1.326-0.886,2.576-1.661,3.682v3.785h2.482v-27.715h-2.482V148.6z"/>
			</g>
			<g>
				<path fill="none" d="M32.488,171.459c0.381,0,0.768-0.109,1.105-0.334l5.316-3.539c0.574-0.386,0.888-1.018,0.888-1.658
					c0-0.383-0.107-0.768-0.337-1.105c-0.086-0.131-0.187-0.247-0.297-0.352l-8.333,6.102
					C31.211,171.146,31.847,171.459,32.488,171.459z"/>
				<path fill="#00A4A1" d="M58.297,150.459c-0.677-0.861-1.564-1.551-2.586-1.988c-0.38-0.164-0.778-0.291-1.19-0.381
					c-0.455-0.098-0.925-0.15-1.409-0.15c-0.1,0-0.198,0.003-0.298,0.006c-0.407,0.019-0.807,0.076-1.191,0.165
					c-0.808,0.187-1.561,0.521-2.223,0.975c-1.736,1.188-2.877,3.184-2.879,5.445c0.002,1.378,0.426,2.657,1.148,3.714l10.631-7.782
					C58.299,150.461,58.298,150.461,58.297,150.459z"/>
				<path fill="#00B3AB" d="M49.4,159.975c0.662,0.453,1.415,0.787,2.223,0.975c0.385,0.09,0.784,0.146,1.191,0.164
					c0.1,0.006,0.198,0.008,0.298,0.008c0.484-0.001,0.954-0.053,1.409-0.152c0.412-0.089,0.811-0.217,1.19-0.38
					c1.021-0.438,1.909-1.126,2.586-1.988c0.882-1.12,1.409-2.532,1.409-4.07c0-1.534-0.526-2.946-1.406-4.068l-10.631,7.782
					C48.134,158.923,48.72,159.511,49.4,159.975z"/>
				<path fill="#FFFFFF" d="M61.707,149.982c-0.26-0.477-0.559-0.931-0.895-1.359l-1.685,1.233l-0.827,0.605
					c0.88,1.122,1.406,2.534,1.406,4.068c0,1.538-0.527,2.95-1.409,4.07c-0.677,0.862-1.564,1.55-2.586,1.988
					c-0.38,0.163-0.778,0.291-1.19,0.38c-0.455,0.1-0.925,0.151-1.409,0.152c-0.1,0-0.198-0.002-0.298-0.008
					c-0.407-0.018-0.807-0.074-1.191-0.164c-0.808-0.188-1.561-0.521-2.223-0.975c-0.68-0.464-1.266-1.052-1.73-1.73l-1.255,0.92
					l-7.251,5.307c0.11,0.104,0.211,0.221,0.297,0.352c0.229,0.338,0.337,0.723,0.337,1.105c0,0.641-0.313,1.272-0.888,1.658
					l-5.316,3.539c-0.338,0.225-0.725,0.334-1.105,0.334c-0.641,0-1.276-0.313-1.657-0.887l-1.653,1.211l0.129,0.182
					c0.606,0.854,1.572,1.313,2.543,1.314h0.008l0.004-0.001c0.617,0,1.253-0.188,1.795-0.573l0.434-0.308v0.002l8.369-5.919
					l0.436-0.307l2.08-1.471l2.371-1.677l0.152,0.101c0.59,0.383,1.227,0.707,1.902,0.964c0.406,0.156,0.828,0.285,1.264,0.388
					c0.32,0.075,0.641,0.131,0.959,0.174c0.147,0.02,0.296,0.037,0.443,0.051c0.296,0.025,0.59,0.039,0.884,0.039h0.003
					c0.529,0,1.054-0.045,1.568-0.127c0.403-0.064,0.801-0.153,1.19-0.266c0.917-0.267,1.788-0.661,2.586-1.17
					c0.661-0.42,1.272-0.917,1.82-1.483c0.618-0.638,1.155-1.361,1.589-2.159c0.415-0.762,0.737-1.588,0.949-2.471v-0.002
					l0.004-0.033c0.181-0.759,0.267-1.523,0.267-2.278v-0.003C62.926,153.054,62.492,151.421,61.707,149.982z"/>
				<path fill="#D2E8F7" d="M60.118,147.821c-0.542-0.56-1.15-1.061-1.82-1.487c-0.784-0.498-1.651-0.894-2.586-1.162
					c-0.162-0.047-0.325-0.092-0.493-0.131c-0.096-0.022-0.189-0.043-0.285-0.063c-0.016-0.003-0.031-0.005-0.049-0.009
					c-0.078-0.016-0.158-0.031-0.236-0.045c-0.029-0.006-0.059-0.01-0.089-0.014c-0.014-0.003-0.026-0.004-0.038-0.007
					c-0.054-0.009-0.107-0.017-0.16-0.024c-0.031-0.006-0.066-0.01-0.1-0.014c-0.063-0.009-0.123-0.018-0.186-0.023
					c-0.039-0.006-0.08-0.009-0.121-0.013c-0.054-0.005-0.109-0.013-0.163-0.017c-0.044-0.004-0.087-0.007-0.13-0.01
					c-0.052-0.004-0.104-0.008-0.156-0.012c-0.045-0.002-0.089-0.004-0.135-0.004c-0.048-0.003-0.1-0.006-0.148-0.007
					c-0.045-0.003-0.092-0.003-0.139-0.003s-0.092-0.002-0.139-0.002c-0.005,0-0.007,0-0.01,0h-0.082
					c-0.014,0-0.025,0.002-0.039,0.002c-0.4,0.004-0.799,0.033-1.191,0.086c-0.768,0.102-1.512,0.295-2.223,0.564
					c-2.417,0.92-4.439,2.764-5.544,5.203c-0.265,0.585-0.478,1.203-0.63,1.852c-0.181,0.764-0.267,1.529-0.267,2.283
					c0,0.869,0.114,1.717,0.333,2.533l0.047,0.184l-1.555,1.102l-1.338,0.947l-0.419,0.295l-0.499,0.354l-1.223,0.864l-2.675,1.893
					l-1.604,1.136l-0.891,0.63l-3.429,2.426c-0.851,0.6-1.314,1.555-1.321,2.52l0.014,0.066l-0.012,0.023
					c0.014,0.605,0.201,1.215,0.575,1.743l0.214,0.302l1.653-1.211c-0.001,0-0.001,0-0.001,0c-0.229-0.342-0.337-0.727-0.337-1.105
					c0-0.644,0.313-1.277,0.89-1.66l4.664-3.104l0.652-0.436c0.336-0.225,0.723-0.336,1.104-0.336c0.17,0,0.339,0.022,0.504,0.066
					c0.316,0.082,0.611,0.242,0.857,0.473l7.251-5.307l1.255-0.92c-0.723-1.057-1.146-2.336-1.148-3.714
					c0.002-2.262,1.143-4.257,2.879-5.445c0.662-0.453,1.415-0.788,2.223-0.975c0.385-0.089,0.784-0.146,1.191-0.165
					c0.1-0.003,0.198-0.006,0.298-0.006c0.484,0,0.954,0.053,1.409,0.15c0.412,0.09,0.811,0.217,1.19,0.381
					c1.021,0.438,1.909,1.127,2.586,1.988c0.001,0.002,0.002,0.002,0.003,0.003l0.827-0.605l1.685-1.233
					C60.595,148.345,60.363,148.076,60.118,147.821z"/>
			</g>
		</g>
	</g>
	<g>
		<g>
			<path fill="#00A4A1" d="M217.271,153.922c0,16.574-13.438,30.012-30.012,30.012c-16.578,0-30.016-13.438-30.016-30.012
				c0-16.578,13.438-30.014,30.016-30.014C203.833,123.908,217.271,137.344,217.271,153.922z"/>
		</g>
		<g>
			<polygon fill="#F0F8F1" points="172.534,138.637 203.122,138.637 205.781,170.816 169.875,170.816 			"/>
			<path fill="#335061" d="M198.041,146.469c0-0.84-0.682-1.52-1.525-1.52c-0.842,0-1.524,0.68-1.524,1.52
				c0,0.382,0.146,0.727,0.38,0.993c0.076,2.069-0.086,6.376-2.448,9.052c-1.365,1.546-3.319,2.33-5.812,2.33
				c-2.447,0-4.188-0.715-5.322-2.186c-1.963-2.547-1.594-6.729-1.232-8.879c0.455-0.263,0.766-0.748,0.766-1.311
				c0-0.84-0.682-1.52-1.524-1.52c-0.842,0-1.525,0.68-1.525,1.52c0,0.35,0.124,0.666,0.321,0.924
				c-0.42,2.436-0.841,7.286,1.609,10.471c1.516,1.969,3.84,2.967,6.908,2.967c3.09,0,5.549-1.011,7.311-3.006
				c2.703-3.063,3.012-7.644,2.956-10.104C197.777,147.447,198.041,146.988,198.041,146.469z"/>
			<path fill="#335061" d="M172.534,138.637c0,0,4.089-1.548,4.089-2.765h23.664c0,0,0.396,2.071,2.835,2.765H172.534z"/>
		</g>
	</g>
	<g>
		<g>
			<path fill="#00A4A1" d="M147.647,77.314c0,16.577-13.438,30.014-30.011,30.014c-16.579,0-30.017-13.437-30.017-30.014
				c0-16.574,13.438-30.011,30.017-30.011C134.21,47.304,147.647,60.74,147.647,77.314z"/>
		</g>
		<g>
			<g>
				<ellipse fill="#FDFCEC" cx="101.682" cy="87.027" rx="1.862" ry="2.051"/>
				<ellipse fill="#FDFCEC" cx="130.746" cy="86.9" rx="1.893" ry="2.115"/>
				<polygon fill="#F0F8F1" points="128.411,69.893 128.411,77.654 134.911,77.213 134.974,76.33 133.207,70.586 				"/>
				<rect x="135.72" y="82.242" fill="#F39226" width="3.424" height="2.031"/>
				<g>
					<g>
						<path fill="#F39226" d="M123.822,65.266H97.862c-0.553,0-1.004,0.449-1.004,1.004v14.823c0,0.554,0.452,1.004,1.004,1.004
							h25.959c0.556,0,1.005-0.45,1.005-1.004V66.27C124.827,65.715,124.378,65.266,123.822,65.266z"/>
						<g>
							<g>
								<path d="M130.505,82.753c-2.333,0-4.225,1.892-4.225,4.226c0,2.333,1.892,4.225,4.225,4.225s4.225-1.892,4.225-4.225
									C134.73,84.645,132.838,82.753,130.505,82.753z M131.358,87.906c-0.224,0.206-0.523,0.332-0.852,0.332
									c-0.33,0-0.628-0.126-0.853-0.332c-0.25-0.231-0.409-0.561-0.409-0.928c0-0.079,0.009-0.155,0.022-0.229
									c0.108-0.587,0.621-1.032,1.24-1.032s1.131,0.445,1.239,1.032c0.014,0.074,0.022,0.15,0.022,0.229
									C131.767,87.346,131.609,87.675,131.358,87.906z"/>
								<path d="M101.827,82.754h-0.02c-2.083,0.004-3.812,1.518-4.152,3.505c-0.041,0.233-0.063,0.474-0.063,0.72
									c0,2.332,1.892,4.225,4.225,4.225c2.333,0,4.225-1.893,4.225-4.225c0-0.246-0.022-0.486-0.062-0.72
									C105.638,84.271,103.91,82.758,101.827,82.754z M102.669,87.905c-0.225,0.207-0.523,0.333-0.852,0.333
									c-0.329,0-0.629-0.126-0.854-0.333c-0.25-0.23-0.408-0.56-0.408-0.927c0-0.079,0.008-0.155,0.021-0.229
									c0.033-0.18,0.104-0.346,0.205-0.49c0.228-0.327,0.605-0.542,1.035-0.542c0.429,0,0.807,0.215,1.034,0.542
									c0.1,0.145,0.171,0.311,0.205,0.49c0.013,0.074,0.022,0.15,0.022,0.229C103.078,87.346,102.92,87.675,102.669,87.905z"/>
								<path fill="#404E51" d="M100.299,82.754h-3.563v3.505h0.651c0.003-0.015,0.004-0.029,0.007-0.044
									C97.675,84.58,98.812,83.285,100.299,82.754z"/>
								<path fill="#404E51" d="M139.256,84.065c-0.018-1.929,0.036-3.839-0.036-5.768c-0.615-0.282-1.236-0.563-1.856-0.853
									c-0.432-0.201-0.864-0.405-1.292-0.616c-0.057-0.021-0.11-0.048-0.162-0.075c-0.876-0.471-0.848-1.653-1.183-2.49
									c-0.347-1.418-0.918-2.797-1.265-4.213c-0.22-0.896-0.35-1.81-0.274-2.756c-2.521-0.036-5.025-0.019-7.53,0
									c-0.008,0-0.016,0-0.024,0c0,0.001,0,0.002,0,0.004l-0.013-0.012v3.104l0.013,0.012c-0.009,4.115-0.042,8.235-0.001,12.351
									l-22.299,0.001c1.488,0.531,2.625,1.826,2.905,3.461c0.002,0.015,0.004,0.029,0.006,0.044h19.442
									c0.62-1.964,2.159-3.856,4.37-3.98c2.441-0.354,4.706,1.521,5.236,3.856c1.61,0.018,3.22,0.018,4.83,0.018
									c0-0.672,0.018-1.362,0.018-2.034C139.84,84.1,139.557,84.082,139.256,84.065z M128.959,76.494
									c-0.018-1.876-0.053-3.752,0.018-5.626c1.256,0,2.53-0.019,3.786,0.035c0.496,1.857,1.097,3.697,1.592,5.572
									C132.551,76.512,130.764,76.494,128.959,76.494z M139.053,84.206c-1.093,0.038-2.205,0.038-3.298,0.019
									c-0.02-0.66-0.02-1.3,0-1.96c1.093-0.019,2.186-0.019,3.278,0C139.071,82.925,139.071,83.564,139.053,84.206z"/>
							</g>
						</g>
					</g>
				</g>
			</g>
			<rect x="97.369" y="71.448" fill="#C67838" width="19.181" height="2.798"/>
		</g>
	</g>
	<g>
		<g>
			<circle fill="#DB4744" cx="188.448" cy="77.315" r="30.013"/>
		</g>
		<g>
			
				<rect x="185.464" y="74.37" transform="matrix(0.9237 -0.3832 0.3832 0.9237 -17.175 80.9848)" fill="#F9BD4F" width="18.467" height="18.468"/>
			
				<rect x="179.801" y="64.234" transform="matrix(0.9236 -0.3833 0.3833 0.9236 -12.7471 76.5958)" fill="#00A4A1" width="12.106" height="12.108"/>
			
				<rect x="191.102" y="86.95" transform="matrix(0.9199 -0.3923 0.3923 0.9199 -18.7101 83.9974)" fill="#D39D44" width="10.202" height="1.673"/>
			<g>
				<g>
					
						<rect x="192.313" y="82.675" transform="matrix(0.9202 -0.3914 0.3914 0.9202 -17.8703 82.2457)" fill="#D39D44" width="1.023" height="4.572"/>
					
						<rect x="195.992" y="81.107" transform="matrix(0.9202 -0.3914 0.3914 0.9202 -16.963 83.5605)" fill="#D39D44" width="1.023" height="4.571"/>
				</g>
			</g>
			
				<rect x="184.361" y="73.127" transform="matrix(0.9199 -0.3922 0.3922 0.9199 -13.863 79.3503)" fill="#047D77" width="5.892" height="0.965"/>
			<g>
				
					<rect x="185.061" y="70.657" transform="matrix(0.9193 -0.3935 0.3935 0.9193 -13.3694 78.7487)" fill="#047D77" width="0.591" height="2.642"/>
				
					<rect x="187.186" y="69.751" transform="matrix(0.9196 -0.3929 0.3929 0.9196 -12.8467 79.3819)" fill="#047D77" width="0.592" height="2.641"/>
			</g>
			<path fill="#3C454F" d="M188.077,98.182l-13.2-32.556c-1.064-1.29-4.877-2.507-7.076-2.979c-0.466-0.1-0.762-0.558-0.662-1.023
				c0.1-0.465,0.559-0.76,1.023-0.661c0.658,0.142,6.486,1.445,8.162,3.719l0.064,0.087l0.04,0.101l12.547,30.941
				c2.934-1.413,12.729-5.909,18.672-5.909c0.476,0,0.861,0.386,0.861,0.861c0,0.477-0.386,0.861-0.861,0.861
				c-6.491,0-18.612,6.076-18.735,6.137L188.077,98.182z"/>
			<path d="M175.939,67.23c-0.468,0-0.912-0.278-1.098-0.739c-0.834-2.053-5.576-3.352-7.172-3.646
				c-0.644-0.117-1.069-0.735-0.951-1.379c0.117-0.644,0.736-1.068,1.379-0.951c0.762,0.14,7.473,1.469,8.939,5.085
				c0.246,0.606-0.047,1.298-0.652,1.544C176.238,67.203,176.087,67.23,175.939,67.23z"/>
			<circle cx="188.743" cy="97.865" r="4.262"/>
			<circle fill="#F0F8F1" cx="188.743" cy="97.865" r="2.558"/>
		</g>
	</g>
	<g>
		<g>
			<path fill="#DB4744" d="M286.986,153.922c0,16.576-13.438,30.012-30.012,30.012c-16.578,0-30.012-13.436-30.012-30.012
				s13.434-30.012,30.012-30.012C273.547,123.91,286.986,137.346,286.986,153.922z"/>
		</g>
		<g>
			<g>
				<path fill="#DBDBDA" d="M257.538,171.04h5.817v0.001c0.008-0.082,0.013-0.164,0.013-0.248v-3.252
					c0-0.126-0.009-0.249-0.026-0.369h-5.804V171.04z"/>
				<path fill="#CCCECB" d="M257.538,171.04v-3.868h-5.805c-0.017,0.12-0.026,0.243-0.026,0.369v3.252
					c0,0.084,0.004,0.166,0.012,0.247h0.001H257.538z"/>
				<path fill="#FFFFFF" d="M276.389,137.551h-18.852v0.963h18.017c1.118,0,2.025,0.822,2.025,1.836v21.975
					c0,1.014-0.907,1.836-2.025,1.836h-18.017v0.951h4.261v0.32v0.299h-4.261v1.441h5.804h13.048c1.172,0,2.121-0.949,2.121-2.12
					V139.67C278.51,138.5,277.561,137.551,276.389,137.551z"/>
				<path fill="#E8E7E7" d="M239.521,138.514h18.017v-0.963h-18.853c-1.172,0-2.121,0.949-2.121,2.119v25.382
					c0,1.171,0.949,2.12,2.121,2.12h13.048h5.805v-1.441h-4.263v-0.299v-0.32h4.263v-0.951h-18.017
					c-1.119,0-2.027-0.822-2.027-1.836V140.35C237.494,139.336,238.402,138.514,239.521,138.514z"/>
				<path fill="#2D5972" d="M237.494,140.35v21.975c0,1.014,0.908,1.836,2.027,1.836h18.017v-25.646h-18.017
					C238.402,138.514,237.494,139.336,237.494,140.35z"/>
				<path fill="#477383" d="M275.554,164.16c1.118,0,2.025-0.822,2.025-1.836V140.35c0-1.014-0.907-1.836-2.025-1.836h-18.017
					v25.646H275.554z"/>
				<polygon fill="#E8E7E7" points="251.719,171.04 251.718,171.04 246.173,174.787 257.538,174.787 257.538,172.914 
					257.538,171.04 				"/>
				<polygon fill="#E5E6E6" points="263.355,171.041 263.355,171.04 257.538,171.04 257.538,172.914 257.538,174.787 
					268.901,174.787 				"/>
				<path fill="#0E3959" d="M261.62,165.421c0.062,0,0.12,0.003,0.179,0.011v-0.32h-4.261v0.31H261.62z"/>
				<path fill="#0E3959" d="M253.275,165.432c0.059-0.008,0.119-0.011,0.18-0.011h4.083v-0.31h-4.263V165.432z"/>
				<path fill="#0E3959" d="M257.538,165.421v0.31h4.261v-0.299c-0.059-0.008-0.117-0.011-0.179-0.011H257.538z"/>
				<path fill="#0E3959" d="M253.455,165.421c-0.061,0-0.121,0.003-0.18,0.011v0.299h4.263v-0.31H253.455z"/>
			</g>
			<g>
				<g>
					<path fill="#E6513E" d="M263.353,161.014c0,0.469-0.379,0.848-0.848,0.848h-11.359c-0.469,0-0.848-0.379-0.848-0.848v-4.947
						c0-0.469,0.379-0.848,0.848-0.848h11.359c0.469,0,0.848,0.379,0.848,0.848V161.014z"/>
					<g>
						<g>
							<path fill="#FFFFFF" d="M255.364,157.34l-0.181,0.494l-0.842,0.776l0.494,0.71c0.012,0.176,0.012,0.342,0,0.495
								c-0.011,0.144-0.086,0.396-0.227,0.759h-2.229h-0.672l0.908-3.466l0.131-0.495h0.4h1.201c0.445,0,0.731,0.017,0.857,0.049
								c0.116,0.033,0.185,0.144,0.207,0.331C255.414,157.092,255.398,157.207,255.364,157.34z M253.136,159.931h0.197l0.273-1.073
								H253.4L253.136,159.931z M253.565,158.016h0.182l0.182-0.676h-0.182L253.565,158.016z"/>
							<path fill="#FFFFFF" d="M255.096,159.848l0.825-3.234h1.354l-0.838,3.234h0.182l0.858-3.234h1.345l-1.04,3.961h-1.601
								c-0.445,0-0.732-0.016-0.858-0.049c-0.19-0.05-0.285-0.164-0.285-0.343C255.038,160.095,255.057,159.983,255.096,159.848z"/>
							<path fill="#FFFFFF" d="M260.192,158.445h0.215l0.412-1.832h0.908h0.429l-0.178,0.727l-0.619,2.426l-0.103,0.404
								c-0.069,0.27-0.216,0.404-0.441,0.404h-2.175c-0.258,0-0.346-0.164-0.26-0.494l0.178-0.645h1.354l-0.1,0.445h0.215
								l0.297-1.039h-1.635l0.471-1.733l0.133-0.495h0.404h0.908L260.192,158.445z"/>
						</g>
					</g>
					<g>
						<g>
							<path fill="#FFFFFF" d="M267.508,141.283c-1.053-0.02-2.106-0.008-3.159,0c-0.246-0.02-0.46,0.164-0.521,0.389
								c-0.777,2.708-1.462,5.447-2.26,8.145c-3.496,0.041-6.992-0.01-10.488,0.02c-0.706,0.012-0.675,1.131,0.021,1.111
								c3.598,0.02,7.186,0,10.785,0.01c0.326,0.041,0.623-0.193,0.685-0.51c0.735-2.688,1.462-5.365,2.218-8.043
								c0.931-0.082,1.882,0.041,2.812-0.061C268.122,142.19,268.05,141.336,267.508,141.283z"/>
							<path fill="#FFFFFF" d="M251.99,149.379c2.863,0,5.725,0,8.588,0c0.286,0.02,0.613-0.103,0.674-0.418
								c0.563-2.066,1.084-4.133,1.637-6.199c0.152-0.377-0.175-0.826-0.583-0.775c-4.048,0.011-8.087-0.02-12.134,0.021
								c-0.379,0.029-0.521,0.488-0.399,0.804c0.521,2.026,1.022,4.073,1.554,6.099C251.376,149.227,251.693,149.398,251.99,149.379
								z M257.468,148.248c-0.704,0-1.409,0-2.115-0.01c-0.07-0.274-0.082-0.561-0.07-0.846c0.726,0,1.471-0.01,2.197,0.011
								C257.603,147.648,257.49,147.974,257.468,148.248z M257.623,146.201c-0.797,0.123-1.624,0.072-2.434,0.031
								c-0.039-0.305-0.061-0.621-0.051-0.937c0.839-0.01,1.697-0.071,2.536,0.03C257.674,145.621,257.664,145.918,257.623,146.201z
								 M258.962,143.107c0.879-0.021,1.768-0.021,2.657,0c-0.062,0.355-0.144,0.712-0.275,1.059c-0.798,0.02-1.604,0.01-2.402,0
								C258.83,143.84,258.942,143.453,258.962,143.107z M258.82,145.296c0.735-0.041,1.481-0.01,2.229-0.01
								c-0.083,0.315-0.072,0.723-0.297,0.956c-0.654,0.041-1.319,0.021-1.975,0.021
								C258.748,145.938,258.767,145.621,258.82,145.296z M258.666,147.403c0.624-0.021,1.236-0.011,1.852,0
								c-0.063,0.274-0.124,0.55-0.227,0.825c-0.541,0.041-1.094,0.02-1.645,0.02C258.625,147.964,258.634,147.678,258.666,147.403z
								 M254.996,143.098c0.941,0,1.881-0.012,2.822,0.01c0,0.346-0.031,0.701-0.063,1.049c-0.898,0.029-1.789,0.02-2.688,0.01
								C254.996,143.819,254.976,143.453,254.996,143.098z M254.187,148.238c-0.623,0.01-1.246,0.02-1.869,0
								c-0.103-0.274-0.175-0.561-0.215-0.846c0.675,0,1.338-0.01,2.014,0.011C254.178,147.678,254.199,147.964,254.187,148.238z
								 M254.045,146.252c-0.747,0.012-1.493,0.052-2.239-0.02c-0.113-0.305-0.184-0.621-0.234-0.937
								c0.807-0.01,1.614-0.061,2.412,0.021C254.035,145.632,254.055,145.938,254.045,146.252z M251.019,143.098
								c0.951,0.01,1.891-0.031,2.832,0.029c0.031,0.346,0.062,0.692,0.051,1.049c-0.869,0-1.738,0.01-2.607-0.01
								C251.162,143.829,251.081,143.463,251.019,143.098z"/>
							<path fill="#FFFFFF" d="M253.043,151.385c-0.635,0.203-1.063,0.926-0.88,1.568c0.154,0.661,0.869,1.129,1.534,0.986
								c0.716-0.121,1.237-0.896,1.053-1.598C254.607,151.608,253.749,151.11,253.043,151.385z"/>
							<path fill="#FFFFFF" d="M259.781,151.344c-0.522,0.111-0.972,0.56-1.033,1.1c-0.144,0.764,0.542,1.527,1.308,1.518
								c0.736,0.02,1.382-0.662,1.329-1.396C261.365,151.791,260.546,151.14,259.781,151.344z"/>
						</g>
					</g>
				</g>
			</g>
		</g>
	</g>
	<g>
		<g>
			<circle fill="#404E51" cx="259.26" cy="77.315" r="30.012"/>
		</g>
		<g>
			<path fill="#FDFEFF" d="M261.116,69.595l-0.444-0.966l0.609-0.28l0.429,0.938c0.581-0.245,1.047-0.272,1.411-0.241l0.053,0.748
				c-0.256-0.021-0.753-0.062-1.372,0.224c-0.742,0.342-0.756,0.888-0.573,1.283c0.123,0.267,0.305,0.42,0.604,0.502h6.852
				c-0.067-0.619-0.23-1.237-0.506-1.833c-1.373-2.98-4.917-4.29-7.898-2.916c-1.959,0.902-3.189,2.746-3.417,4.749h3.519
				C260.021,71.005,260.308,70.141,261.116,69.595z"/>
			<path fill="#FDFEFF" d="M277.806,74.19c-0.393-0.853-0.431-1.802-0.105-2.681c0.616-1.67,2.38-2.574,4.07-2.184l2.002,4.344
				l0.026-0.012l-8.282-17.975l-0.027,0.012l2.059,4.467c-0.811,1.516-2.629,2.248-4.285,1.637
				c-0.877-0.326-1.578-0.971-1.969-1.819c-0.329-0.714-0.391-1.498-0.216-2.251l-29.319,13.51l0.26,0.563l0,0l-0.26-0.563
				l4.413-2.033c0.687,0.355,1.241,0.914,1.568,1.628c0.145,0.312,0.239,0.638,0.288,0.969h0.868
				c-0.052-0.454-0.173-0.903-0.37-1.331c-0.319-0.693-0.816-1.262-1.42-1.695l23.037-10.615c-0.063,0.74,0.049,1.488,0.369,2.18
				c0.488,1.059,1.358,1.865,2.451,2.268c1.127,0.416,2.322,0.338,3.339-0.131c0.66-0.305,1.231-0.786,1.672-1.389l3.366,7.305
				c-1.901-0.153-3.758,0.945-4.449,2.818c-0.404,1.096-0.357,2.281,0.129,3.339c0.303,0.655,0.765,1.198,1.32,1.624l0.91-0.42
				C278.621,75.395,278.115,74.859,277.806,74.19z"/>
			<path fill="#909E3A" d="M247.741,70.833c-0.327-0.714-0.882-1.272-1.568-1.628l-4.413,2.033l0.26,0.563h6.01
				C247.98,71.471,247.885,71.145,247.741,70.833z"/>
			
				<rect x="270.071" y="57.61" transform="matrix(0.9082 -0.4184 0.4184 0.9082 0.8966 119.3085)" fill="#909E3A" width="4.857" height="0"/>
			<path fill="#909E3A" d="M271.294,59.979c0.391,0.849,1.092,1.493,1.969,1.819c1.656,0.611,3.475-0.121,4.285-1.637l-2.059-4.467
				l-4.411,2.033C270.904,58.481,270.965,59.266,271.294,59.979z"/>
			<path fill="#909E3A" d="M281.771,69.326c-1.69-0.391-3.454,0.514-4.07,2.184c-0.325,0.879-0.287,1.828,0.105,2.681
				c0.309,0.669,0.814,1.204,1.445,1.563l4.521-2.084L281.771,69.326z"/>
			<path fill="#909E3A" d="M277.021,74.55c-0.486-1.058-0.533-2.243-0.129-3.339c0.691-1.873,2.548-2.972,4.449-2.818l-3.366-7.305
				c-0.44,0.603-1.012,1.084-1.672,1.389c-1.017,0.469-2.212,0.547-3.339,0.131c-1.093-0.402-1.963-1.209-2.451-2.268
				c-0.32-0.691-0.432-1.439-0.369-2.18l-23.037,10.615c0.604,0.434,1.101,1.002,1.42,1.695c0.197,0.428,0.318,0.877,0.37,1.331
				h7.965c0.228-2.003,1.458-3.847,3.417-4.749c2.981-1.374,6.525-0.064,7.898,2.916c0.275,0.596,0.438,1.214,0.506,1.833h0.86
				h4.857h0.028v6.175l3.912-1.803C277.786,75.748,277.324,75.205,277.021,74.55z"/>
			<path fill="#909E3A" d="M261.228,71.3c-0.183-0.396-0.169-0.941,0.573-1.283c0.619-0.285,1.116-0.245,1.372-0.224l-0.053-0.748
				c-0.364-0.031-0.83-0.004-1.411,0.241l-0.429-0.938l-0.609,0.28l0.444,0.966c-0.808,0.546-1.095,1.41-0.735,2.207h1.451
				C261.533,71.72,261.351,71.566,261.228,71.3z"/>
			<rect x="236.476" y="72.699" fill="#FDFEFF" width="4.758" height="0.001"/>
			<path fill="#FDFEFF" d="M241.63,87.377c-1.395-1.391-3.499-1.625-5.153-0.734v-8.006c0.653,0.362,1.374,0.561,2.099,0.561
				c1.121,0,2.236-0.428,3.089-1.277c0.532-0.531,0.907-1.178,1.108-1.883l-0.714-1.548c0.011,0.114,0.019,0.229,0.019,0.345
				c0,0.936-0.361,1.814-1.023,2.477c-1.249,1.248-3.206,1.344-4.578,0.307l0,0V92.49l0,0v-4.838
				c1.369-1.008,3.307-0.902,4.545,0.335c0.659,0.662,1.023,1.54,1.023,2.478c0,0.738-0.234,1.437-0.656,2.025h1
				c0.326-0.618,0.521-1.305,0.52-2.026C242.908,89.299,242.455,88.203,241.63,87.377z"/>
			<path fill="#FDFEFF" d="M273.616,86.68c-1.663-0.936-3.808-0.715-5.221,0.697c-0.825,0.826-1.28,1.923-1.28,3.087
				c0,0.722,0.193,1.408,0.521,2.026h1.001c-0.422-0.589-0.658-1.287-0.658-2.025c0-0.938,0.363-1.815,1.025-2.478
				c1.26-1.259,3.24-1.343,4.611-0.28v4.783h0.029V78.893l-0.028,0.014V86.68z"/>
			<path fill="#FDFEFF" d="M261.048,72.7h6.68c-0.365,0.646-0.579,1.371-0.577,2.134c0,0.401,0.058,0.793,0.161,1.17
				c0.502-1.012,0.713-2.158,0.586-3.305h-6.853C261.046,72.699,261.048,72.699,261.048,72.7z"/>
			<rect x="257.835" y="70.94" fill="#FDFEFF" width="0.001" height="3.52"/>
			<rect x="241.234" y="72.7" fill="#FDFEFF" width="0.001" height="0"/>
			<rect x="242.416" y="74.411" fill="#FDFEFF" width="0" height="1.705"/>
			<rect x="247.677" y="72.266" fill="#FDFEFF" width="0.001" height="0.868"/>
			<path fill="#FDFEFF" d="M241.334,72.7c0.404,0.52,0.657,1.133,0.725,1.789l0.714,1.548c0.109-0.387,0.17-0.79,0.17-1.203
				c0-0.763-0.213-1.487-0.579-2.134h4.88c0-0.001,0-0.001,0-0.001h-6.01l0.001,0.001H241.334z"/>
			<path fill="#FDFEFF" d="M267.312,76.004c0.197,0.717,0.576,1.376,1.117,1.916c0.85,0.85,1.967,1.277,3.086,1.277
				c0.727,0,1.449-0.198,2.101-0.561v0.25l0.028-0.014v-6.174h-0.029v4.917c-1.371,1.038-3.328,0.942-4.577-0.306
				c-0.659-0.663-1.026-1.541-1.026-2.477c0-0.786,0.272-1.523,0.747-2.135h-0.86C268.025,73.846,267.814,74.992,267.312,76.004z"/>
			<rect x="252.093" y="68.718" fill="#FDFEFF" width="0.001" height="7.964"/>
			<path fill="#FDFEFF" d="M259.642,78.821c-0.602-0.731-1.375-1.315-2.258-1.694c-0.719-0.308-1.508-0.479-2.338-0.479
				c-3.281,0-5.954,2.674-5.954,5.954c0,0.207,0.011,0.41,0.031,0.611c0.03,0.289,0.087,0.57,0.156,0.846
				c0.505,1.996,2.015,3.595,3.963,4.215c0.007,0.002,0.015,0.006,0.022,0.009c0.563,0.177,1.162,0.272,1.781,0.272
				c2.455,0,4.564-1.491,5.475-3.615c0.004-0.008,0.009-0.016,0.013-0.025c0.301-0.711,0.468-1.492,0.468-2.313
				C261.001,81.168,260.49,79.85,259.642,78.821z M253.25,85.543c-0.067-0.036-0.131-0.074-0.188-0.113l0.039-0.107l0.218-0.605
				c0.171,0.113,0.382,0.219,0.615,0.3c0.274,0.097,0.583,0.159,0.906,0.159c0.753,0,1.196-0.436,1.196-1.042
				c0-0.583-0.347-0.946-1.133-1.264c-1.085-0.429-1.753-0.928-1.753-1.852c0-0.882,0.624-1.552,1.593-1.712v-1.063h0.67
				l-0.002,1.031c0.63,0.02,1.064,0.191,1.383,0.371l-0.266,0.701c-0.223-0.126-0.658-0.371-1.34-0.371
				c-0.816,0-1.058,0.49-1.058,0.926c0.001,0.541,0.325,0.816,1.251,1.211c1.094,0.447,1.646,0.988,1.646,1.935
				c0,0.852-0.585,1.638-1.68,1.806v1.109h-0.668l-0.003-1.064c-0.105-0.002-0.21-0.012-0.314-0.023
				C253.949,85.827,253.55,85.707,253.25,85.543z"/>
			<rect x="259.595" y="72.699" fill="#FDFEFF" width="1.45" height="0.001"/>
			<path fill="#909E3A" d="M236.476,92.508h4.9c0.004-0.006,0.008-0.012,0.012-0.018h-4.912V92.508z"/>
			<path fill="#909E3A" d="M241.021,87.987c-1.238-1.237-3.176-1.343-4.545-0.335v4.838h4.912c0.422-0.589,0.656-1.287,0.656-2.025
				C242.044,89.527,241.68,88.649,241.021,87.987z"/>
			<path fill="#909E3A" d="M241.054,77.311c0.662-0.662,1.023-1.541,1.023-2.477c0-0.115-0.008-0.23-0.019-0.345l-0.824-1.789
				h-4.759v4.917l0,0C237.848,78.654,239.805,78.559,241.054,77.311z"/>
			<rect x="241.647" y="72.61" fill="#909E3A" width="0" height="1.97"/>
			<path fill="#909E3A" d="M241.334,72.7h-0.1l0.824,1.789C241.992,73.833,241.739,73.22,241.334,72.7z"/>
			<path fill="#909E3A" d="M269.038,77.311c1.249,1.248,3.206,1.344,4.577,0.306v-4.917h-4.856
				c-0.475,0.611-0.747,1.349-0.747,2.135C268.011,75.77,268.378,76.647,269.038,77.311z"/>
			<path fill="#909E3A" d="M268.648,92.508h4.967V92.49h-4.979C268.64,92.496,268.644,92.502,268.648,92.508z"/>
			<path fill="#909E3A" d="M269.003,87.987c-0.662,0.662-1.025,1.54-1.025,2.478c0,0.738,0.236,1.437,0.658,2.025h4.979v-4.783
				C272.244,86.645,270.263,86.729,269.003,87.987z"/>
			<path fill="#909E3A" d="M242.379,92.508h25.265c-0.004-0.006-0.006-0.012-0.009-0.018h-25.247
				C242.384,92.496,242.382,92.502,242.379,92.508z"/>
			<path fill="#909E3A" d="M273.616,78.887v-0.25c-0.651,0.362-1.374,0.561-2.101,0.561c-1.119,0-2.236-0.428-3.086-1.277
				c-0.541-0.54-0.92-1.199-1.117-1.916c-0.104-0.377-0.161-0.769-0.161-1.17c-0.002-0.763,0.212-1.488,0.577-2.134h-6.68h-1.453
				h-3.52h-7.964h-0.868h-4.88c0.366,0.646,0.579,1.371,0.579,2.134c0,0.413-0.061,0.816-0.17,1.203
				c-0.201,0.705-0.576,1.352-1.108,1.883c-0.853,0.85-1.968,1.277-3.089,1.277c-0.725,0-1.445-0.198-2.099-0.561v8.006
				c1.654-0.891,3.759-0.656,5.153,0.734c0.824,0.826,1.277,1.922,1.277,3.087c0.001,0.722-0.193,1.408-0.52,2.026h25.247
				c-0.327-0.618-0.521-1.305-0.521-2.026c0-1.164,0.455-2.261,1.28-3.087c1.413-1.412,3.558-1.633,5.221-0.697v-7.773l0.028-0.014
				v-0.02L273.616,78.887z M255.046,88.555c-0.619,0-1.219-0.096-1.781-0.272l-0.022-0.009c-1.948-0.62-3.458-2.219-3.963-4.215
				c-0.069-0.275-0.126-0.557-0.156-0.846c-0.021-0.201-0.031-0.404-0.031-0.611c0-3.28,2.673-5.954,5.954-5.954
				c0.83,0,1.619,0.172,2.338,0.479c0.883,0.379,1.656,0.963,2.258,1.694c0.848,1.028,1.359,2.347,1.359,3.78
				c0,0.82-0.167,1.602-0.468,2.313c-0.004,0.01-0.009,0.018-0.013,0.025C259.611,87.063,257.501,88.555,255.046,88.555z"/>
			<path fill="#909E3A" d="M253.101,85.322c0.053,0.07,0.101,0.146,0.148,0.221c0.301,0.164,0.699,0.284,1.114,0.332
				c-0.036-0.1-0.069-0.199-0.114-0.297c-0.091-0.197-0.199-0.383-0.315-0.562c-0.233-0.081-0.444-0.187-0.615-0.3L253.101,85.322z"
				/>
			<path fill="#909E3A" d="M253.062,85.43c0.057,0.039,0.12,0.077,0.188,0.113c-0.048-0.075-0.096-0.15-0.148-0.221L253.062,85.43z"
				/>
			<path fill="#909E3A" d="M254.364,85.875c0.104,0.012,0.209,0.021,0.314,0.023l0.003,1.064h0.668v-1.109
				c1.095-0.168,1.68-0.954,1.68-1.806c0-0.946-0.553-1.487-1.646-1.935c-0.926-0.395-1.25-0.67-1.251-1.211
				c0-0.436,0.241-0.926,1.058-0.926c0.682,0,1.117,0.245,1.34,0.371l0.266-0.701c-0.318-0.18-0.753-0.352-1.383-0.371l0.002-1.031
				h-0.67v1.063c-0.969,0.16-1.593,0.83-1.593,1.712c0,0.924,0.668,1.423,1.753,1.852c0.786,0.317,1.133,0.681,1.133,1.264
				c0,0.606-0.443,1.042-1.196,1.042c-0.323,0-0.632-0.063-0.906-0.159c0.116,0.179,0.225,0.364,0.315,0.562
				C254.294,85.676,254.328,85.775,254.364,85.875z"/>
		</g>
	</g>
	<g>
		<g>
			<g>
				<g>
					<path fill="#DB4744" d="M76.833,77.315c0,16.578-13.434,30.015-30.012,30.015c-16.574,0-30.012-13.437-30.012-30.015
						c0-16.573,13.438-30.012,30.012-30.012C63.399,47.304,76.833,60.742,76.833,77.315z"/>
				</g>
			</g>
		</g>
		<g>
			<path fill="none" d="M46.284,83.963v7.875c0,0.727,0.586,1.313,1.313,1.313V82.65C46.87,82.65,46.284,83.237,46.284,83.963z"/>
			<path fill="none" d="M48.909,91.838v-7.875c0-0.726-0.587-1.313-1.313-1.313v10.501C48.322,93.151,48.909,92.564,48.909,91.838z"
				/>
			<path fill="none" d="M42.346,82.65c-0.725,0-1.313,0.587-1.313,1.313v7.875c0,0.727,0.587,1.313,1.313,1.313
				c0.726,0,1.313-0.587,1.313-1.313v-7.875C43.658,83.237,43.071,82.65,42.346,82.65z"/>
			<path fill="none" d="M37.095,82.65c-0.726,0-1.313,0.587-1.313,1.313v7.875c0,0.727,0.587,1.313,1.313,1.313
				c0.725,0,1.313-0.587,1.313-1.313v-7.875C38.408,83.237,37.82,82.65,37.095,82.65z"/>
			<path fill="none" d="M58.097,82.65c-0.726,0-1.313,0.587-1.313,1.313v7.875c0,0.727,0.587,1.313,1.313,1.313
				s1.313-0.587,1.313-1.313v-7.875C59.41,83.237,58.823,82.65,58.097,82.65z"/>
			<path fill="none" d="M52.847,82.65c-0.725,0-1.313,0.587-1.313,1.313v7.875c0,0.727,0.587,1.313,1.313,1.313
				c0.726,0,1.313-0.587,1.313-1.313v-7.875C54.16,83.237,53.572,82.65,52.847,82.65z"/>
			<path fill="#FFFFFF" d="M33.602,75.555c0.182,0.095,0.375,0.139,0.567,0.139c0.445,0,0.875-0.242,1.095-0.664l7.66-14.752
				c0.314-0.604,0.078-1.348-0.526-1.662c-0.604-0.313-1.348-0.077-1.662,0.527l-7.66,14.751
				C32.762,74.497,32.998,75.24,33.602,75.555z"/>
			<path fill="#4C5864" d="M46.284,91.838v-7.875c0-0.726,0.586-1.313,1.313-1.313V72.149h-9.648l-1.748,3.366
				c-0.395,0.762-1.174,1.234-2.032,1.234c-0.365,0-0.729-0.09-1.054-0.258c-1.119-0.582-1.558-1.967-0.976-3.086l0.653-1.257H29.22
				c-1.451,0-2.625,1.174-2.625,2.625V77.4c0,1.45,1.175,2.625,2.625,2.625l2.624,15.751h15.752v-2.625
				C46.87,93.151,46.284,92.564,46.284,91.838z M38.408,91.838c0,0.727-0.587,1.313-1.313,1.313c-0.726,0-1.313-0.587-1.313-1.313
				v-7.875c0-0.726,0.587-1.313,1.313-1.313c0.725,0,1.313,0.587,1.313,1.313V91.838z M43.658,91.838
				c0,0.727-0.587,1.313-1.313,1.313c-0.725,0-1.313-0.587-1.313-1.313v-7.875c0-0.726,0.587-1.313,1.313-1.313
				c0.726,0,1.313,0.587,1.313,1.313V91.838z"/>
			<path fill="#3C454F" d="M65.973,72.149h-3.101l0.652,1.257c0.582,1.119,0.144,2.504-0.977,3.086
				c-0.324,0.168-0.688,0.258-1.053,0.258c-0.858,0-1.636-0.473-2.032-1.234l-1.748-3.366H47.596V82.65
				c0.726,0,1.313,0.587,1.313,1.313v7.875c0,0.727-0.587,1.313-1.313,1.313v2.625h15.751l2.625-15.751
				c1.451,0,2.625-1.175,2.625-2.625v-2.626C68.598,73.323,67.424,72.149,65.973,72.149z M54.16,91.838
				c0,0.727-0.587,1.313-1.313,1.313c-0.725,0-1.313-0.587-1.313-1.313v-7.875c0-0.726,0.587-1.313,1.313-1.313
				c0.726,0,1.313,0.587,1.313,1.313V91.838z M59.41,91.838c0,0.727-0.586,1.313-1.313,1.313s-1.313-0.587-1.313-1.313v-7.875
				c0-0.726,0.587-1.313,1.313-1.313s1.313,0.587,1.313,1.313V91.838z"/>
			<path fill="#FFFFFF" d="M60.399,75.029c0.219,0.422,0.649,0.664,1.094,0.664c0.191,0,0.386-0.044,0.567-0.139
				c0.604-0.314,0.84-1.058,0.526-1.661l-7.66-14.751c-0.313-0.604-1.058-0.84-1.661-0.527c-0.604,0.314-0.839,1.059-0.526,1.662
				L60.399,75.029z"/>
		</g>
	</g>
	<g>
		<circle fill="#404E51" cx="116.549" cy="152.931" r="31.003"/>
		<path fill="#62C5BA" d="M132.533,167.102h-31.368c-3.284,0-5.971-2.687-5.971-5.971v-16.297c0-3.284,2.687-5.971,5.971-5.971
			h31.368c3.284,0,5.972,2.687,5.972,5.971v16.297C138.505,164.415,135.817,167.102,132.533,167.102z"/>
		<rect x="95.194" y="143.641" fill="#1A334B" width="43.311" height="4.795"/>
		<rect x="100.081" y="161.839" fill="#FFFFFF" width="8.439" height="1.398"/>
		<rect x="112.778" y="161.839" fill="#FFFFFF" width="8.439" height="1.398"/>
		<rect x="125.476" y="161.839" fill="#FFFFFF" width="8.439" height="1.398"/>
		<rect x="98.757" y="150.604" fill="#FFFFFF" width="10.148" height="5.799"/>
		<rect x="112.218" y="150.604" fill="#FFFFFF" width="10.147" height="2.073"/>
		<rect x="112.218" y="154.328" fill="#FFFFFF" width="10.147" height="2.074"/>
		<g>
			<path fill="#FFFFFF" d="M133.081,151.5c-0.02-0.021-0.041-0.042-0.062-0.063c-0.003-0.003-0.006-0.006-0.01-0.009
				c-0.893-0.889-2.078-1.377-3.338-1.377c-1.213,0-2.356,0.452-3.236,1.278c-0.024,0.023-0.049,0.046-0.074,0.071
				c-0.012,0.012-0.025,0.023-0.038,0.036c-0.894,0.895-1.386,2.083-1.386,3.348s0.492,2.454,1.386,3.348s2.083,1.387,3.348,1.387
				s2.454-0.493,3.348-1.387s1.386-2.083,1.386-3.348C134.405,153.549,133.936,152.387,133.081,151.5z M130.412,159.359
				c-0.171,0.028-0.345,0.047-0.522,0.055c-0.072,0.004-0.145,0.006-0.218,0.006s-0.146-0.002-0.218-0.006
				c-0.177-0.008-0.351-0.026-0.522-0.055c-2.189-0.352-3.87-2.244-3.894-4.525c0-0.017,0-0.033,0-0.05s0-0.033,0-0.05
				c0.013-1.277,0.546-2.432,1.396-3.263c0.024-0.023,0.049-0.047,0.073-0.07c0.658-0.616,1.497-1.044,2.425-1.192
				c0.171-0.027,0.345-0.047,0.522-0.055c0.072-0.004,0.145-0.005,0.218-0.005s0.146,0.001,0.218,0.005
				c0.177,0.008,0.351,0.027,0.522,0.055c0.977,0.156,1.852,0.621,2.525,1.289c0.024,0.023,0.047,0.047,0.071,0.072
				c0.793,0.822,1.286,1.937,1.298,3.164c0,0.017,0,0.033,0,0.05s0,0.033,0,0.05C134.282,157.115,132.601,159.008,130.412,159.359z"
				/>
			<path fill="#FFFFFF" d="M133.16,151.424c-0.02-0.021-0.041-0.043-0.063-0.064c-0.004-0.004-0.008-0.008-0.012-0.012l-0.077-0.073
				l-0.076,0.074c-0.025,0.024-0.049,0.048-0.072,0.069c-0.262,0.245-0.554,0.459-0.865,0.637c-0.031,0.018-0.06,0.033-0.086,0.047
				c-0.429,0.231-0.89,0.391-1.37,0.473c-0.029,0.006-0.061,0.011-0.095,0.016c-0.22,0.033-0.448,0.05-0.673,0.05
				c-0.291,0-0.582-0.028-0.865-0.083c-0.033-0.006-0.064-0.013-0.096-0.02c-0.47-0.102-0.92-0.277-1.335-0.524
				c-0.028-0.017-0.057-0.034-0.084-0.051c-0.292-0.182-0.563-0.396-0.807-0.638c-0.027-0.027-0.049-0.05-0.069-0.07l-0.075-0.079
				l-0.079,0.074c-0.024,0.022-0.049,0.045-0.076,0.071l-0.078,0.076l0.076,0.079c0.021,0.022,0.042,0.044,0.064,0.065
				c0.003,0.004,0.006,0.007,0.009,0.01c0.268,0.266,0.563,0.498,0.879,0.693c0.032,0.02,0.061,0.037,0.089,0.055
				c0.445,0.26,0.926,0.447,1.431,0.555c0.038,0.008,0.07,0.014,0.101,0.02c0.299,0.058,0.607,0.086,0.916,0.086
				c0.24,0,0.48-0.018,0.715-0.052c0.04-0.006,0.072-0.011,0.101-0.017c0.514-0.086,1.006-0.254,1.464-0.499
				c0.032-0.017,0.062-0.034,0.091-0.05c0.338-0.19,0.655-0.424,0.94-0.691c0.024-0.023,0.05-0.047,0.075-0.072l0.078-0.076
				L133.16,151.424z"/>
			<path fill="#FFFFFF" d="M133.158,157.99c-0.025-0.025-0.051-0.049-0.075-0.072c-0.286-0.268-0.603-0.501-0.94-0.691
				c-0.028-0.016-0.059-0.032-0.091-0.05c-0.458-0.245-0.951-0.413-1.464-0.499c-0.029-0.006-0.062-0.011-0.101-0.016
				c-0.235-0.035-0.476-0.053-0.715-0.053c-0.309,0-0.617,0.029-0.916,0.086c-0.031,0.006-0.063,0.012-0.101,0.021
				c-0.504,0.106-0.986,0.294-1.431,0.555c-0.029,0.017-0.059,0.034-0.089,0.054c-0.317,0.195-0.612,0.428-0.879,0.693
				c-0.003,0.004-0.006,0.007-0.01,0.011c-0.021,0.021-0.042,0.043-0.063,0.064l-0.076,0.079l0.078,0.076
				c0.027,0.026,0.052,0.049,0.076,0.071l0.079,0.075l0.075-0.08c0.02-0.021,0.042-0.043,0.069-0.07
				c0.244-0.242,0.515-0.457,0.807-0.637c0.028-0.018,0.057-0.035,0.085-0.052c0.416-0.246,0.865-0.423,1.335-0.524
				c0.031-0.007,0.063-0.014,0.096-0.02c0.283-0.055,0.574-0.083,0.865-0.083c0.226,0,0.453,0.017,0.674,0.05
				c0.034,0.006,0.064,0.01,0.095,0.016c0.48,0.082,0.94,0.241,1.37,0.473c0.026,0.015,0.055,0.03,0.086,0.048
				c0.312,0.177,0.603,0.391,0.865,0.637c0.023,0.021,0.046,0.044,0.072,0.069l0.076,0.074l0.077-0.074
				c0.003-0.004,0.007-0.008,0.011-0.012c0.021-0.021,0.043-0.042,0.063-0.064l0.076-0.078L133.158,157.99z"/>
			<path fill="#FFFFFF" d="M131.465,151.39c-0.473-0.935-1.11-1.45-1.793-1.45c-0.683,0-1.32,0.516-1.793,1.45
				c-0.461,0.909-0.714,2.115-0.714,3.395c0,1.28,0.253,2.485,0.714,3.395c0.473,0.935,1.111,1.45,1.793,1.45
				c0.684,0,1.32-0.516,1.793-1.45c0.46-0.909,0.714-2.114,0.714-3.395C132.179,153.505,131.925,152.299,131.465,151.39z
				 M129.671,159.309c-0.588,0-1.145-0.463-1.568-1.305c-0.433-0.859-0.67-2.003-0.67-3.22c0-1.216,0.238-2.359,0.67-3.22
				c0.423-0.842,0.98-1.305,1.568-1.305s1.145,0.463,1.568,1.305c0.432,0.86,0.67,2.004,0.67,3.22c0,1.217-0.238,2.36-0.67,3.22
				C130.816,158.846,130.259,159.309,129.671,159.309z"/>
			<path fill="#FFFFFF" d="M134.355,154.646h-9.368c-0.088,0-0.16,0.063-0.16,0.151c0,0.088,0.071,0.151,0.16,0.151h9.368
				c0.088,0,0.161-0.063,0.161-0.151C134.516,154.709,134.444,154.646,134.355,154.646z"/>
			<path fill="#FFFFFF" d="M129.882,159.477v-9.369c0-0.088-0.138-0.159-0.226-0.159c-0.088,0-0.226,0.071-0.226,0.159v9.369
				c0,0.088,0.137,0.16,0.226,0.16C129.745,159.637,129.882,159.564,129.882,159.477z"/>
		</g>
	</g>
	<rect x="3.978" y="4.458" fill="#FBB040" width="300" height="34.569"/>
	<path fill="#D1D3D4" d="M297.633,200.458H10.323c-5.705,0-10.345-4.627-10.345-10.313V10.771c0-5.687,4.641-10.313,10.345-10.313
		h287.311c5.703,0,10.344,4.627,10.344,10.313v179.373C307.977,195.831,303.336,200.458,297.633,200.458z M10.323,8.458
		c-1.293,0-2.345,1.038-2.345,2.313v179.373c0,1.275,1.052,2.313,2.345,2.313h287.311c1.292,0,2.344-1.038,2.344-2.313V10.771
		c0-1.275-1.052-2.313-2.344-2.313H10.323z"/>
	<g>
		<circle fill="#FFFFFF" cx="249.578" cy="23.695" r="4.25"/>
		<circle fill="#FFFFFF" cx="265.462" cy="23.695" r="4.25"/>
		<circle fill="#FFFFFF" cx="281.487" cy="23.695" r="4.25"/>
	</g>
</g>
</svg>
