<?xml version="1.0" encoding="utf-8"?>
<!-- Generator: Adobe Illustrator 16.0.0, SVG Export Plug-In . SVG Version: 6.00 Build 0)  -->
<!DOCTYPE svg PUBLIC "-//W3C//DTD SVG 1.1//EN" "http://www.w3.org/Graphics/SVG/1.1/DTD/svg11.dtd">
<svg version="1.1" id="Layer_1" xmlns="http://www.w3.org/2000/svg" xmlns:xlink="http://www.w3.org/1999/xlink" x="0px" y="0px"
	 width="308px" height="200px" viewBox="0 0 308 200" enable-background="new 0 0 308 200" xml:space="preserve">
<g>
	<rect x="6.374" y="35.518" fill="#F9CF0C" width="295.5" height="159.595"/>
	<g>
		<path fill-rule="evenodd" clip-rule="evenodd" fill="#39B54A" d="M150.602,78.133c0,17.396-14.104,31.498-31.501,31.498
			S87.602,95.529,87.602,78.133c0-17.36,14.102-31.463,31.499-31.463S150.602,60.772,150.602,78.133L150.602,78.133z"/>
		<path fill-rule="evenodd" clip-rule="evenodd" fill="#2C3C4F" d="M134.774,75.832l0.382,8.891
			c-8.391,8.545-23.49,7.627-30.464,0.27l-0.038-8.701l14.446,6.057L134.774,75.832L134.774,75.832z"/>
		<polygon fill-rule="evenodd" clip-rule="evenodd" fill="#334B5E" points="94.039,74.223 119.101,65.485 144.162,74.223 
			119.101,82.961 		"/>
		<path fill-rule="evenodd" clip-rule="evenodd" fill="#F3715B" d="M119.407,71.848l-16.861,4.561
			c-0.153,0.038-0.229,0.115-0.229,0.307l-0.076,7.51c0.535,0.191,0.919,0.768,0.919,1.418c0,0.844-0.613,1.495-1.417,1.495
			c-0.768,0-1.418-0.651-1.418-1.495c0-0.612,0.344-1.148,0.842-1.379l0.115-8.201c-0.037-0.268,0.077-0.459,0.383-0.575
			l17.092-4.56C119.369,70.736,119.982,71.426,119.407,71.848L119.407,71.848L119.407,71.848z"/>
	</g>
	<g>
		<path fill-rule="evenodd" clip-rule="evenodd" fill="#1C75BC" d="M150.602,151.006c0,17.361-14.103,31.463-31.5,31.463
			c-17.396,0-31.5-14.102-31.5-31.463c0-17.397,14.104-31.499,31.5-31.499C136.499,119.507,150.602,133.608,150.602,151.006
			L150.602,151.006z"/>
		<path fill-rule="evenodd" clip-rule="evenodd" fill="#E7E9ED" d="M133.51,162.272V135.22h-1.762v2.528h-25.254v-2.528h-1.801
			v27.053H102.7v4.563h32.842v-4.563H133.51z M131.748,155.874h-25.254v-8.163h25.254V155.874L131.748,155.874z M131.748,138.629
			v8.201h-25.254v-8.201H131.748L131.748,138.629z M106.494,156.793h25.254v5.479h-25.254V156.793z"/>
		<path fill-rule="evenodd" clip-rule="evenodd" fill="#F15640" d="M109.521,141.235L109.521,141.235
			c-0.689,0-1.227-0.537-1.227-1.226v-3.642c0-0.689,0.537-1.227,1.227-1.227l0,0c0.689,0,1.227,0.537,1.227,1.227v3.642
			C110.748,140.698,110.211,141.235,109.521,141.235L109.521,141.235z"/>
		<path fill-rule="evenodd" clip-rule="evenodd" fill="#F15640" d="M112.434,141.235L112.434,141.235
			c-0.688,0-1.227-0.537-1.227-1.226v-3.642c0-0.689,0.538-1.227,1.227-1.227l0,0c0.691,0,1.227,0.537,1.227,1.227v3.642
			C113.66,140.698,113.125,141.235,112.434,141.235L112.434,141.235z"/>
		<path fill-rule="evenodd" clip-rule="evenodd" fill="#56C0EA" d="M115.23,141.235L115.23,141.235
			c-0.689,0-1.226-0.537-1.226-1.226v-3.642c0-0.689,0.536-1.227,1.226-1.227l0,0c0.691,0,1.227,0.537,1.227,1.227v3.642
			C116.457,140.698,115.922,141.235,115.23,141.235L115.23,141.235z"/>
		<path fill-rule="evenodd" clip-rule="evenodd" fill="#66C6B9" d="M109.637,159.398L109.637,159.398
			c-0.689,0-1.227-0.574-1.227-1.227v-3.64c0-0.69,0.537-1.227,1.227-1.227l0,0c0.65,0,1.226,0.536,1.226,1.227v3.64
			C110.862,158.824,110.287,159.398,109.637,159.398L109.637,159.398z"/>
		<path fill-rule="evenodd" clip-rule="evenodd" fill="#66C6B9" d="M115.998,159.398L115.998,159.398
			c-0.691,0-1.227-0.574-1.227-1.227v-3.64c0-0.69,0.535-1.227,1.227-1.227l0,0c0.689,0,1.227,0.536,1.227,1.227v3.64
			C117.225,158.824,116.688,159.398,115.998,159.398L115.998,159.398z"/>
		<path fill-rule="evenodd" clip-rule="evenodd" fill="#56C0EA" d="M118.066,141.235L118.066,141.235
			c-0.65,0-1.225-0.537-1.225-1.226v-3.642c0-0.689,0.574-1.227,1.225-1.227l0,0c0.689,0,1.227,0.537,1.227,1.227v3.642
			C119.293,140.698,118.756,141.235,118.066,141.235L118.066,141.235z"/>
		<path fill-rule="evenodd" clip-rule="evenodd" fill="#56C0EA" d="M126.996,141.235L126.996,141.235
			c-0.689,0-1.227-0.537-1.227-1.226v-3.642c0-0.689,0.537-1.227,1.227-1.227l0,0c0.65,0,1.227,0.537,1.227,1.227v3.642
			C128.223,140.698,127.646,141.235,126.996,141.235L126.996,141.235z"/>
		<path fill-rule="evenodd" clip-rule="evenodd" fill="#56C0EA" d="M129.908,141.235L129.908,141.235
			c-0.689,0-1.227-0.537-1.227-1.226v-3.642c0-0.689,0.537-1.227,1.227-1.227l0,0c0.651,0,1.227,0.537,1.227,1.227v3.642
			C131.135,140.698,130.56,141.235,129.908,141.235L129.908,141.235z"/>
		<path fill-rule="evenodd" clip-rule="evenodd" fill="#FFD15C" d="M108.755,150.164L108.755,150.164
			c-0.689,0-1.226-0.536-1.226-1.228v-3.638c0-0.653,0.536-1.228,1.226-1.228l0,0c0.688,0,1.228,0.574,1.228,1.228v3.638
			C109.982,149.628,109.443,150.164,108.755,150.164L108.755,150.164z"/>
		<path fill-rule="evenodd" clip-rule="evenodd" fill="#FFD15C" d="M111.666,150.164L111.666,150.164
			c-0.689,0-1.225-0.536-1.225-1.228v-3.638c0-0.653,0.535-1.228,1.225-1.228l0,0c0.691,0,1.228,0.574,1.228,1.228v3.638
			C112.894,149.628,112.357,150.164,111.666,150.164L111.666,150.164z"/>
		<path fill-rule="evenodd" clip-rule="evenodd" fill="#FFD15C" d="M114.465,150.164L114.465,150.164
			c-0.689,0-1.227-0.536-1.227-1.228v-3.638c0-0.653,0.537-1.228,1.227-1.228l0,0c0.689,0,1.227,0.574,1.227,1.228v3.638
			C115.691,149.628,115.154,150.164,114.465,150.164L114.465,150.164z"/>
		<path fill-rule="evenodd" clip-rule="evenodd" fill="#FFD15C" d="M117.301,150.164L117.301,150.164
			c-0.651,0-1.227-0.536-1.227-1.228v-3.638c0-0.653,0.575-1.228,1.227-1.228l0,0c0.688,0,1.226,0.574,1.226,1.228v3.638
			C118.526,149.628,117.989,150.164,117.301,150.164L117.301,150.164z"/>
		<path fill-rule="evenodd" clip-rule="evenodd" fill="#66C6B9" d="M120.136,150.164L120.136,150.164
			c-0.689,0-1.226-0.536-1.226-1.228v-3.638c0-0.653,0.536-1.228,1.226-1.228l0,0c0.69,0,1.227,0.574,1.227,1.228v3.638
			C121.362,149.628,120.826,150.164,120.136,150.164L120.136,150.164z"/>
		<path fill-rule="evenodd" clip-rule="evenodd" fill="#66C6B9" d="M122.972,150.164L122.972,150.164
			c-0.651,0-1.226-0.536-1.226-1.228v-3.638c0-0.653,0.574-1.228,1.226-1.228l0,0c0.69,0,1.228,0.574,1.228,1.228v3.638
			C124.199,149.628,123.662,150.164,122.972,150.164L122.972,150.164z"/>
		<path fill-rule="evenodd" clip-rule="evenodd" fill="#ABCB57" d="M118.719,159.398L118.719,159.398
			c-0.652,0-1.227-0.574-1.227-1.227v-3.64c0-0.69,0.574-1.227,1.227-1.227l0,0c0.689,0,1.227,0.536,1.227,1.227v3.64
			C119.945,158.824,119.408,159.398,118.719,159.398L118.719,159.398z"/>
		<path fill-rule="evenodd" clip-rule="evenodd" fill="#ABCB57" d="M121.479,159.398L121.479,159.398
			c-0.691,0-1.227-0.574-1.227-1.227v-3.64c0-0.69,0.535-1.227,1.227-1.227l0,0c0.688,0,1.226,0.536,1.226,1.227v3.64
			C122.704,158.824,122.166,159.398,121.479,159.398L121.479,159.398z"/>
	</g>
	<g>
		<path fill-rule="evenodd" clip-rule="evenodd" fill="#DA1C5C" d="M80.242,78.133c0,17.398-14.102,31.498-31.499,31.498
			s-31.501-14.1-31.501-31.498c0-17.359,14.104-31.461,31.501-31.461S80.242,60.773,80.242,78.133L80.242,78.133z"/>
		<polygon fill-rule="evenodd" clip-rule="evenodd" fill="#FFD15C" points="67.023,74.225 63.534,74.225 64.264,71.273 
			66.256,71.273 		"/>
		<path fill-rule="evenodd" clip-rule="evenodd" fill="#F8B54D" d="M66.678,71.273c0-0.768-0.613-1.418-1.38-1.418
			s-1.417,0.65-1.417,1.418c0,0.766,0.65,1.381,1.417,1.381S66.678,72.039,66.678,71.273L66.678,71.273z"/>
		<polygon fill-rule="evenodd" clip-rule="evenodd" fill="#334B5E" points="28.663,62.844 48.743,55.178 68.785,62.844 
			48.743,70.506 		"/>
		<path fill-rule="evenodd" clip-rule="evenodd" fill="#6494CE" d="M64.723,80.853c0-8.622-7.051-15.673-15.711-15.673
			c-8.661,0-15.713,7.051-15.713,15.673c0,8.661,7.052,15.712,15.713,15.712C57.672,96.564,64.723,89.514,64.723,80.853
			L64.723,80.853z"/>
		<path fill-rule="evenodd" clip-rule="evenodd" fill="#ABCB57" d="M51.77,93.002c-0.229,0.23-0.497,0.268-0.804,0.23
			c-0.192-0.039-0.347-0.117-0.499-0.117c-0.229,0.078-0.344,0.23-0.496,0.385c-0.154,0.229-0.308,0.498-0.537,0.689
			c-0.039,0.076-0.115,0.192-0.115,0.27c0,0.229,0.268,0.266,0.46,0.266c0.192-0.037,0.345-0.152,0.535-0.19
			c0.192-0.075,0.384,0,0.576-0.075c0.269-0.039,0.498-0.27,0.651-0.422c0.152-0.155,0.268-0.309,0.344-0.5
			C52.038,93.346,51.961,93.078,51.77,93.002L51.77,93.002z"/>
		<path fill-rule="evenodd" clip-rule="evenodd" fill="#ABCB57" d="M55.564,72.193c-0.229,0.114-0.191,0.383-0.115,0.613v-0.115
			c0.039,0.268,0.307,0.537,0.65,0.537c0.269,0.076,0.615-0.077,0.769-0.385c-0.308-0.189-0.653-0.381-0.997-0.613
			C55.833,72.23,55.68,72.154,55.564,72.193L55.564,72.193z M64.723,80.853c0-0.077,0-0.151,0-0.19
			c-0.191-0.077-0.383-0.152-0.535-0.27c-0.422-0.267-0.807-0.842-0.768-1.378c0-0.23,0.076-0.384,0.076-0.612
			c-0.076-0.347-0.307-0.537-0.459-0.768c-0.461-0.459-0.883-0.842-1.342-1.228c-0.535-0.459-1.303-0.765-1.801-0.345
			c-0.115,0.116-0.191,0.23-0.307,0.345c-0.268,0.153-0.613,0.039-0.881-0.038c-0.27-0.113-0.729-0.076-0.768,0.27
			c-0.076,0.383,0.498,0.537,0.614,0.919c0.038,0.116,0,0.23,0.038,0.345c0.076,0.576,0.881,0.768,1.227,0.346
			c0.229-0.346,0.268-0.882,0.65-0.882c0.423,0.153,0.691,0.612,0.691,0.997c-0.115-0.308-0.576-0.191-0.729,0.039
			c-0.154,0.229-0.231,0.573-0.385,0.727c-0.382,0.383-1.072,0.269-1.57,0.038c-1.111-0.383-2.146-0.765-3.257-1.149
			c-0.114-0.039-0.269-0.115-0.384-0.039c-0.192,0.039-0.23,0.27-0.383,0.385c-0.23,0.153-0.574,0.115-0.804-0.077
			c-0.194-0.153-0.423-0.308-0.691-0.421c-0.306-0.117-0.612,0.037-0.688,0.307c0,0.114,0,0.23,0.076,0.345
			c0.498,0.957,1.725,1.111,2.529,1.724c0.076-0.382,0.613-0.459,0.958-0.268s0.421,0.612,0.497,0.996
			c0.038,0.383,0.038,0.767,0.27,1.111c0.269,0.498,0.996,0.689,1.495,0.498c0.343-0.191,0.728-0.461,0.995-0.23
			c0.307,0.23,0.076,0.652,0.191,0.997c0.039,0.114,0.154,0.229,0.154,0.382c0.037,0.27-0.385,0.461-0.652,0.347
			c-0.307-0.116-0.459-0.384-0.688-0.614c-0.231-0.23-0.499-0.459-0.768-0.344c-0.345-0.039-0.574,0.383-0.459,0.729
			c0.114,0.344,0.459,0.497,0.728,0.65c-0.039,0.307-0.307,0.383-0.613,0.383c-0.268,0-0.497-0.076-0.729-0.191
			c-0.651-0.345-1.418-0.842-1.494-1.57c0-0.23,0.076-0.422,0-0.729c-0.039-0.691-0.613-1.264-1.15-1.725
			c-0.957-0.498-1.877-1.034-2.951-0.918c-0.382,0.037-0.766,0.229-1.109,0.382c-0.652,0.345-1.303,0.765-1.879,1.265
			c-0.383,0.383-0.766,0.842-0.843,1.379c-0.038,0.729,0.499,1.342,1.073,1.802c0.535,0.421,1.226,0.882,1.494,1.532
			c-0.498,0.191-0.574,0.844-0.729,1.342c-0.382,1.111-1.839,1.57-2.453,2.605c-0.306,0.574-0.382,1.265-0.765,1.763
			c-0.153,0.229-0.345,0.421-0.423,0.689c-0.344,0.729,0.385,1.609,1.188,1.726c0.844,0.114,1.609-0.347,2.301-0.845
			c0.152-0.114,0.307-0.269,0.536-0.345c0.19-0.037,0.345-0.037,0.499-0.037c0.382,0,0.803-0.077,1.188-0.077
			c-0.192,0-0.23-0.268-0.117-0.382c0.117-0.115,0.271-0.154,0.386-0.271c0.536-0.268,0.88-0.843,1.11-1.38
			c0.268,0.537,1.111,0.423,1.725,0.232c0.536-0.232,1.149-0.424,1.725-0.615c-0.383,0.039-0.805-0.305-0.959-0.689
			c-0.115-0.383-0.037-0.805,0.115-1.225c0.154-0.307,0.385-0.652,0.499-1.035c0.115-0.383,0.115-0.768,0.229-1.112
			c0.115-0.384,0.269-0.767,0.65-0.88c0.154,0.766,0.078,1.532-0.267,2.259c-0.269,0.575-0.651,1.228-0.269,1.687
			c0.153,0.192,0.422,0.27,0.689,0.307c0.689,0.116,1.342,0.23,1.955,0.346c-0.23-0.844-0.346-1.725-0.346-2.568
			c0-0.189,0.076-0.42,0.231-0.497c0.268,0.994,0.688,1.954,1.302,2.798c0.076,0.113,0.154,0.268,0.191,0.42
			c0,0.191,0,0.307-0.037,0.461c-0.23,0.728-0.614,1.34-0.652,2.031c0,0.114,0,0.191,0,0.268
			C62.424,90.205,64.723,85.799,64.723,80.853L64.723,80.853z M59.436,69.127c-1.688-1.494-3.718-2.645-5.941-3.333
			c-0.152,0.382-0.383,0.728-0.497,1.073c-0.153,0.536-0.229,1.227-0.614,1.646c-0.152,0.191-0.345,0.309-0.422,0.498
			c-0.305,0.459-0.076,1.074,0.385,1.304c0.422,0.229,1.034,0.038,1.379-0.269c0.115-0.114,0.23-0.191,0.346-0.191
			c0.152,0,0.306,0.191,0.42,0.345c0.615,0.766,1.688,1.227,2.684,0.997c0.039-0.346-0.459-0.498-0.459-0.844
			c0-0.268,0.383-0.383,0.65-0.268c0.307,0.114,0.46,0.383,0.69,0.498c0.269,0.115,0.651,0.037,0.881-0.115
			c0.229-0.229,0.345-0.536,0.229-0.842c-0.076-0.117-0.115-0.271-0.076-0.385C59.128,69.127,59.32,69.127,59.436,69.127
			L59.436,69.127z M45.717,65.487c-3.297,0.728-6.207,2.45-8.393,4.866c0.229,0.652,0.689,1.266,0.881,1.954
			c0.077,0.347,0.077,0.651,0.191,0.997c0.115,0.344,0.345,0.613,0.689,0.652c0.27-0.309,0.308-0.806,0.037-1.15
			c0.232-0.115,0.461-0.152,0.576-0.383c0.115-0.193,0.115-0.5-0.115-0.575c-0.114-0.04-0.307,0-0.461,0
			c-0.42,0-0.727-0.498-0.918-0.921c0.881-0.344,1.916,0,2.414,0.768c-0.115-0.115-0.154-0.269-0.269-0.383
			c0.729-0.23,1.495-0.347,2.224-0.269c0.229,0,0.421,0.038,0.612-0.078c0.269-0.114,0.421-0.421,0.729-0.421
			c0.189,0,0.382,0.076,0.611,0.154c0.806,0.152,1.648-0.882,2.3-0.46c0.077-0.384-0.499-0.651-0.767-0.422
			c-0.039-0.076-0.153-0.114-0.229-0.19c0.306-0.424,0.958-0.271,1.341,0.076c0.383,0.344,0.65,0.842,1.112,1.033
			c0.344,0,0.497-0.421,0.536-0.766c0-0.344-0.039-0.729,0.191-0.996c0.038-0.115,0.152-0.23,0.229-0.346
			c0.116-0.42-0.574-0.613-0.727-0.996c-0.115-0.307,0.037-0.651,0.152-0.996c0.115-0.307,0.077-0.766-0.268-0.805
			c-0.459,0.65-1.686,0.536-1.955,1.265c-0.115,0.382,0,0.881-0.383,1.034c-0.269,0.115-0.536-0.193-0.612-0.536
			c0-0.345,0.114-0.613,0.114-0.958c0-0.154-0.038-0.269-0.038-0.422C45.524,65.986,45.678,65.717,45.717,65.487L45.717,65.487z
			 M33.338,82.08c0.038,0.651,0.152,1.341,0.307,1.993c0.23-0.038,0.537-0.077,0.729,0.114c0.038,0.116,0.152,0.191,0.268,0.191
			c0.039,0,0.115-0.038,0.152-0.075c0.115-0.23,0.23-0.501,0.23-0.806c0.383,0.383,0.768,0.806,1.15,1.188
			c0.613-0.23,0.805-1.111,1.418-1.303c0.651-0.154,1.303,0.574,1.918,0.344c0.459-0.152,0.688-0.727,1.07-0.995
			c0.422-0.345,1.112-0.27,1.727-0.153c0.113-0.805-0.193-1.609-0.729-2.186c-0.345-0.229-0.688-0.42-0.575-0.727
			c0.077-0.269,0.385-0.383,0.575-0.613c0.229-0.307-0.077-0.767-0.269-1.15c-0.229-0.345-0.42-0.881,0-1.109
			c-0.307-0.347-0.459-0.768-0.613-1.15c-0.23-0.383-0.574-0.805-0.996-0.729c-0.344,0-0.613,0.268-0.92,0.422
			c-0.383,0.23-0.805,0.307-1.188,0.459c-0.422,0.153-0.843,0.461-0.919,0.882c-0.038,0.46,0.229,0.881,0,1.302
			c-0.191,0.424-0.921,0.652-0.768,1.074c0.076,0.114,0.115,0.23,0.192,0.307c0.152,0.307-0.23,0.728-0.498,0.92L33.338,82.08z"/>
		<path fill-rule="evenodd" clip-rule="evenodd" fill="#2C3C4F" d="M46.482,67.365c2.874-0.191,10.003-0.077,12.109,1.073v-4.792
			c0-2.26-5.098-3.257-9.849-3.257s-9.887,0.997-9.887,3.257v5.289C40.619,67.978,43.801,67.518,46.482,67.365L46.482,67.365z"/>
		<path fill-rule="evenodd" clip-rule="evenodd" fill="#FFFFFF" d="M57.403,94.459c0.038-0.193-0.114-0.385-0.267-0.461
			c-7.78-3.027-15.406-6.63-22.688-10.653c-0.191-0.116-0.42-0.077-0.536,0.076c-0.651,0.729-1.227,1.493-1.571,2.3
			c-0.114,0.191,0,0.459,0.191,0.574l23.529,11.037c0.229,0.115,0.498,0,0.613-0.191C56.982,96.412,57.327,95.568,57.403,94.459
			L57.403,94.459z"/>
		<path fill-rule="evenodd" clip-rule="evenodd" fill="#E7E9ED" d="M57.059,97.293c0.078-0.23-0.038-0.459-0.23-0.575l-10.192-4.751
			c-0.192-0.115-0.46-0.039-0.575,0.191l-3.143-1.494c0.115-0.191,0-0.459-0.191-0.576l-10.193-4.79
			c-0.229-0.076-0.46,0-0.574,0.193c-0.039,0.077-1.188,2.106-1.111,4.521c0,0.154,0.115,0.307,0.229,0.384c0.039,0,0.039,0,0.039,0
			c3.142,1.228,6.284,2.567,9.312,3.947l1.84,0.843l2.566,1.227c3.027,1.455,6.056,3.026,8.968,4.636
			c0.19,0.116,0.421,0.078,0.574-0.075C56.215,99.477,57.021,97.369,57.059,97.293L57.059,97.293z"/>
		<polygon fill-rule="evenodd" clip-rule="evenodd" fill="#F15640" points="43.492,93.384 44.184,94.189 40.351,97.562 
			40.236,96.26 38.971,95.991 42.842,92.619 		"/>
		<polygon fill-rule="evenodd" clip-rule="evenodd" fill="#F15640" points="43.801,94.151 42.727,94.229 43.109,99.361 
			44.105,98.521 45.18,99.209 44.796,94.074 		"/>
		<path fill-rule="evenodd" clip-rule="evenodd" fill="#F3715B" d="M47.479,93.882L47.479,93.882
			c0.268-0.116,0.422-0.459,0.307-0.727l0,0c-0.077-0.23-0.077-0.459,0.115-0.612l0,0c0.23-0.232,0.191-0.576,0-0.769l0,0
			c-0.154-0.19-0.23-0.421-0.115-0.612l0,0c0.115-0.307-0.039-0.652-0.345-0.767l0,0c-0.192-0.077-0.345-0.268-0.307-0.497l0,0
			c0-0.307-0.269-0.576-0.574-0.537l0,0c-0.231-0.039-0.423-0.153-0.499-0.346l0,0c-0.153-0.306-0.459-0.42-0.728-0.306l0,0
			c-0.229,0.076-0.46,0.038-0.614-0.114l0,0c-0.229-0.23-0.573-0.23-0.803,0l0,0c-0.154,0.152-0.385,0.19-0.576,0.114l0,0
			c-0.307-0.114-0.651,0.038-0.766,0.306l0,0c-0.078,0.229-0.268,0.346-0.5,0.346l0,0c-0.344,0-0.574,0.269-0.574,0.575l0,0
			c0,0.229-0.113,0.421-0.306,0.497l0,0c-0.306,0.115-0.421,0.459-0.306,0.729l0,0c0.076,0.191,0.038,0.461-0.115,0.612l0,0
			c-0.232,0.23-0.232,0.575,0,0.769l0,0c0.153,0.153,0.191,0.42,0.115,0.612l0,0c-0.115,0.306,0.038,0.61,0.306,0.727l0,0
			c0.229,0.116,0.345,0.308,0.345,0.538l0,0c0,0.305,0.268,0.535,0.574,0.535l0,0c0.193,0.039,0.423,0.154,0.498,0.345l0,0
			c0.115,0.269,0.459,0.423,0.729,0.308l0,0c0.191-0.076,0.461-0.039,0.613,0.115l0,0c0.23,0.229,0.574,0.229,0.766,0l0,0
			c0.154-0.154,0.422-0.191,0.614-0.115l0,0c0.306,0.115,0.612-0.039,0.728-0.308l0,0c0.115-0.23,0.307-0.345,0.537-0.345l0,0
			c0.307,0,0.536-0.268,0.536-0.573l0,0C47.134,94.151,47.287,93.961,47.479,93.882L47.479,93.882z"/>
		<path fill-rule="evenodd" clip-rule="evenodd" fill="#FFFFFF" d="M46.713,93.155c0.535-1.342-0.077-2.874-1.418-3.411
			c-1.342-0.536-2.836,0.076-3.412,1.418c-0.535,1.341,0.115,2.836,1.418,3.41C44.643,95.109,46.176,94.459,46.713,93.155
			L46.713,93.155z"/>
		<path fill-rule="evenodd" clip-rule="evenodd" fill="#F3715B" d="M46.443,93.002c0.461-1.15-0.076-2.492-1.264-2.99
			c-1.188-0.459-2.529,0.076-2.99,1.266c-0.497,1.188,0.078,2.527,1.266,2.988C44.604,94.765,45.945,94.189,46.443,93.002
			L46.443,93.002z"/>
	</g>
	<g>
		<path fill-rule="evenodd" clip-rule="evenodd" fill="#DA1C5C" d="M220.96,78.131c0,17.398-14.104,31.5-31.5,31.5
			c-17.398,0-31.5-14.102-31.5-31.5c0-17.36,14.102-31.461,31.5-31.461C206.857,46.67,220.96,60.771,220.96,78.131L220.96,78.131z"
			/>
		<g>
			
				<rect x="170.474" y="62.555" fill-rule="evenodd" clip-rule="evenodd" fill="#046937" stroke="#7E5D63" stroke-width="0.2268" stroke-miterlimit="10" width="37.932" height="28.502"/>
			<path fill-rule="evenodd" clip-rule="evenodd" fill="#8B5E3C" d="M207.769,61.917h-1.912h-32.795h-1.91h-0.51h-0.807v1.318v1.103
				v25.359c0,0.342,0.297,0.682,0.639,0.682c0.381,0,0.678-0.34,0.678-0.682V64.338v-1.103h1.91h32.795h1.912v1.103v25.359
				c0,0.342,0.297,0.682,0.68,0.682s0.68-0.34,0.68-0.682V64.338v-1.103v-1.318h-0.807H207.769z"/>
			<path fill-rule="evenodd" clip-rule="evenodd" fill="#E6BE8A" d="M210.488,92.373h-42.055c-0.383,0-0.68-0.296-0.68-0.678v-1.316
				c0-0.383,0.297-0.682,0.68-0.682h42.055c0.383,0,0.68,0.299,0.68,0.682v1.316C211.167,92.077,210.871,92.373,210.488,92.373
				L210.488,92.373z"/>
			<path fill-rule="evenodd" clip-rule="evenodd" fill="#FFFFFF" d="M179.308,89.697v-1.358c0-0.383-0.297-0.681-0.68-0.681h-4.078
				c-0.381,0-0.68,0.298-0.68,0.681v1.358 M179.308,89.697L179.308,89.697L179.308,89.697z"/>
			<path fill="#FFFFFF" d="M202.121,75.723v-0.299h-0.639l0.469-0.764c0.043-0.041,0.084-0.127,0.084-0.212
				c0.043-0.041,0.043-0.128,0.043-0.253c0-0.043,0-0.127-0.043-0.216c-0.041-0.041-0.084-0.083-0.127-0.169
				c-0.043-0.043-0.129-0.084-0.17-0.084c-0.086-0.043-0.172-0.043-0.256-0.043s-0.213,0-0.297,0.043
				c-0.086,0.041-0.127,0.084-0.213,0.17v0.465c0-0.041,0.043-0.041,0.086-0.125c0-0.041,0.041-0.084,0.084-0.127
				c0.043-0.041,0.127-0.085,0.17-0.13c0.043,0,0.086-0.041,0.17-0.041s0.127,0.041,0.213,0.086
				c0.043,0.044,0.084,0.128,0.084,0.171c0,0.084,0,0.125-0.041,0.166c0,0.046,0,0.131-0.043,0.172l-0.723,1.189H202.121z
				 M180.115,76.912h-2.338c0.086-0.212,0.258-0.381,0.471-0.51c0.211-0.171,0.467-0.213,0.764-0.213c0.127,0,0.297,0,0.426,0.042
				c0.125,0.043,0.254,0.086,0.338,0.171c0.086,0.084,0.17,0.129,0.256,0.254C180.072,76.741,180.115,76.826,180.115,76.912
				L180.115,76.912z M181.134,77.805c0.084-0.467,0.043-0.85-0.084-1.148c-0.086-0.295-0.256-0.594-0.467-0.764
				c-0.213-0.213-0.426-0.34-0.723-0.469c-0.299-0.083-0.553-0.126-0.85-0.126s-0.596,0.084-0.893,0.171
				c-0.256,0.127-0.51,0.296-0.68,0.508c-0.213,0.172-0.383,0.426-0.51,0.68c-0.127,0.256-0.17,0.554-0.17,0.85
				c0,0.342,0.043,0.638,0.17,0.936c0.127,0.299,0.297,0.553,0.51,0.809c0.213,0.211,0.467,0.381,0.766,0.508
				c0.297,0.125,0.594,0.17,0.934,0.17c0.299,0,0.637-0.045,0.893-0.127c0.297-0.084,0.594-0.212,0.85-0.383v-0.936
				c-0.213,0.171-0.426,0.299-0.723,0.385c-0.254,0.127-0.553,0.169-0.893,0.169c-0.17,0-0.383-0.042-0.551-0.085
				c-0.17-0.084-0.342-0.17-0.467-0.254c-0.129-0.13-0.258-0.256-0.342-0.426c-0.084-0.128-0.17-0.297-0.211-0.467H181.134z
				 M186.785,76.955v-0.724h-4.078v0.724H186.785z M186.785,79.12v-0.765h-4.078v0.765H186.785z M195.365,79.842v-2.545
				c0-0.258-0.043-0.513-0.127-0.725c-0.127-0.211-0.256-0.383-0.383-0.551c-0.17-0.171-0.381-0.299-0.594-0.426
				c-0.213-0.084-0.426-0.127-0.68-0.127c-0.297,0-0.553,0.043-0.85,0.17c-0.256,0.126-0.512,0.297-0.766,0.467
				c-0.17-0.17-0.383-0.341-0.594-0.467c-0.213-0.127-0.469-0.17-0.723-0.17c-0.213,0-0.424,0.043-0.596,0.084
				c-0.213,0.043-0.381,0.127-0.551,0.212v-0.253h-0.934v4.33h0.934v-3.058c0.127-0.128,0.254-0.212,0.424-0.253
				c0.17-0.086,0.383-0.129,0.596-0.129c0.127,0,0.256,0.043,0.381,0.084c0.129,0.045,0.215,0.086,0.299,0.17
				c0.084,0.085,0.17,0.17,0.211,0.299c0.086,0.084,0.086,0.212,0.086,0.342v2.545h0.936v-2.846c0.127-0.17,0.297-0.34,0.467-0.424
				c0.17-0.127,0.34-0.17,0.551-0.17c0.129,0,0.256,0.043,0.383,0.084c0.129,0.045,0.256,0.086,0.34,0.17
				c0.086,0.085,0.17,0.17,0.213,0.299c0.043,0.084,0.086,0.212,0.086,0.342v2.545H195.365z M200.675,79.546v-1.063
				c-0.17,0.171-0.381,0.299-0.639,0.385c-0.254,0.127-0.508,0.169-0.807,0.169c-0.211,0-0.381-0.042-0.551-0.128
				c-0.129-0.041-0.297-0.127-0.383-0.255c-0.127-0.128-0.213-0.255-0.297-0.425c-0.086-0.172-0.129-0.34-0.129-0.552
				c0-0.171,0.043-0.339,0.129-0.467c0.084-0.171,0.17-0.341,0.297-0.426c0.086-0.128,0.254-0.212,0.383-0.298
				c0.17-0.084,0.34-0.084,0.551-0.084c0.299,0,0.553,0.043,0.807,0.129c0.258,0.125,0.469,0.253,0.639,0.424v-1.104
				c-0.213-0.128-0.469-0.212-0.68-0.298c-0.256-0.041-0.51-0.084-0.766-0.084c-0.338,0-0.596,0.043-0.891,0.17
				c-0.256,0.126-0.512,0.297-0.723,0.467c-0.17,0.212-0.34,0.467-0.467,0.721c-0.129,0.256-0.17,0.553-0.17,0.851
				c0,0.339,0.041,0.595,0.17,0.891c0.127,0.257,0.297,0.512,0.467,0.724c0.211,0.212,0.467,0.34,0.723,0.467
				c0.254,0.125,0.553,0.17,0.891,0.17c0.256,0,0.51,0,0.766-0.086C200.207,79.758,200.462,79.674,200.675,79.546L200.675,79.546z"
				/>
		</g>
	</g>
	<g>
		<circle fill="#1C75BC" cx="259.819" cy="78.131" r="31.499"/>
		<rect x="259.058" y="85.853" fill="#1C1C1C" width="7.881" height="14.154"/>
		<path fill="#E9B826" d="M259.058,65.858v6.722c3.689,0,6.68,2.973,6.678,6.636c0.002,2.368-1.25,4.44-3.129,5.615
			c-0.348,0.218-0.717,0.405-1.105,0.558c-0.85,0.629-1.4,1.619-1.4,2.735c0,1.903,1.592,3.445,3.555,3.445
			c0.232,0,0.459-0.024,0.68-0.064c0.656-0.278,1.277-0.617,1.875-0.99c3.777-2.365,6.295-6.536,6.295-11.299
			C272.505,71.839,266.484,65.858,259.058,65.858z"/>
		
			<rect x="250.123" y="75.751" transform="matrix(0.8493 0.5279 -0.5279 0.8493 79.1529 -120.9954)" fill="#1C1C1C" width="2.732" height="4.761"/>
		
			<rect x="249.156" y="73.547" transform="matrix(0.2578 0.9662 -0.9662 0.2578 258.9646 -185.2677)" fill="#595959" width="1.833" height="4.758"/>
		
			<rect x="261.783" y="54.715" transform="matrix(0.8491 0.5282 -0.5282 0.8491 70.1144 -131.0887)" fill="#1C1C1C" width="5.465" height="4.938"/>
		<circle fill="#1C1C1C" cx="253.364" cy="75.118" r="3.483"/>
		<rect x="248.423" y="85.853" fill="#595959" width="10.635" height="3.573"/>
		
			<rect x="247.587" y="63.908" transform="matrix(0.5281 -0.8492 0.8492 0.5281 64.9044 249.476)" fill="#FFFFFF" width="18.648" height="4.869"/>
		
			<rect x="258.734" y="59.159" transform="matrix(0.8493 0.5279 -0.5279 0.8493 75.3836 -127.119)" fill="#CACCCB" width="3.245" height="18.649"/>
		<path fill="#CACCCB" d="M262.939,100.007h11.369c0-2.743-2.98-5.083-7.182-6.029C266.414,96.292,264.943,98.363,262.939,100.007z"
			/>
		<path fill="#FFFFFF" d="M251.691,100.007h11.248c2.004-1.644,3.475-3.715,4.188-6.029c-1.281-0.286-2.67-0.452-4.127-0.452
			C256.753,93.525,251.691,96.428,251.691,100.007z"/>
		<path fill="#595959" d="M262.82,71.042c0,0.938,0.76,1.696,1.695,1.696v-3.393C263.58,69.346,262.82,70.104,262.82,71.042z"/>
		<path fill="#1C1C1C" d="M266.214,71.042c0-0.938-0.76-1.696-1.697-1.696l-0.002,3.393
			C265.455,72.738,266.214,71.979,266.214,71.042z"/>
		<path fill="#595959" d="M261.664,88.637c0,0.637,0.518,1.154,1.156,1.154V87.48C262.181,87.481,261.664,87.999,261.664,88.637z"/>
		<path fill="#1C1C1C" d="M263.972,88.637c0-0.638-0.516-1.155-1.152-1.156v2.311C263.457,89.791,263.972,89.273,263.972,88.637z"/>
		<path fill="#1C1C1C" d="M253.816,84.571c-0.977-0.718-2.291-1.163-3.742-1.163c-3.008,0-5.447,1.895-5.447,4.231
			c0,0.662,0.201,1.286,0.553,1.845c0.881,1.41,2.74,2.385,4.895,2.385c3.008,0,5.447-1.893,5.447-4.229
			C255.521,86.43,254.863,85.343,253.816,84.571z"/>
		<path fill="#939393" d="M253.193,85.082c-0.584,2.354-3.246,4.132-6.447,4.132c-0.254,0-0.506-0.015-0.754-0.036
			c0.736,1.175,2.285,1.988,4.082,1.988c2.508,0,4.541-1.578,4.541-3.526C254.615,86.631,254.068,85.725,253.193,85.082z"/>
		<path fill="#CACCCB" d="M253.193,85.082c-0.813-0.6-1.91-0.969-3.119-0.969c-2.508,0-4.541,1.578-4.541,3.526
			c0,0.553,0.168,1.073,0.459,1.538c0.248,0.021,0.5,0.036,0.754,0.036C249.947,89.214,252.609,87.436,253.193,85.082z"/>
	</g>
	<g>
		<circle fill="#39B54A" cx="48.743" cy="150.988" r="31.5"/>
		
			<rect x="28.876" y="146.871" transform="matrix(0.7071 0.7071 -0.7071 0.7071 120.3326 8.0501)" fill="#FFDF5A" width="43.145" height="4.823"/>
		
			<rect x="44.625" y="131.121" transform="matrix(-0.7071 0.7071 -0.7071 -0.7071 188.2687 227.4033)" fill="#E9B826" width="4.825" height="43.144"/>
		
			<rect x="35.202" y="132.522" transform="matrix(0.7067 0.7075 -0.7075 0.7067 106.5369 14.5149)" fill="#1C1C1C" width="1.122" height="6.45"/>
		
			<rect x="63.375" y="160.697" transform="matrix(0.7062 0.708 -0.708 0.7062 134.8347 2.8891)" fill="#1C1C1C" width="1.121" height="6.45"/>
		
			<rect x="44.592" y="141.913" transform="matrix(0.7067 0.7075 -0.7075 0.7067 115.936 10.6252)" fill="#1C1C1C" width="1.123" height="6.45"/>
		
			<rect x="53.985" y="151.303" transform="matrix(0.708 0.7062 -0.7062 0.708 125.0626 6.6042)" fill="#1C1C1C" width="1.121" height="6.453"/>
		
			<rect x="38.513" y="135.269" transform="matrix(0.7071 0.7071 -0.7071 0.7071 108.4109 12.5347)" fill="#1C1C1C" width="1.123" height="3.724"/>
		
			<rect x="40.861" y="137.617" transform="matrix(0.7071 0.7071 -0.7071 0.7071 110.7589 11.5624)" fill="#1C1C1C" width="1.123" height="3.725"/>
		
			<rect x="43.209" y="139.964" transform="matrix(0.7071 0.7071 -0.7071 0.7071 113.1065 10.59)" fill="#1C1C1C" width="1.121" height="3.725"/>
		
			<rect x="47.904" y="144.66" transform="matrix(0.7071 0.7071 -0.7071 0.7071 117.802 8.6456)" fill="#1C1C1C" width="1.121" height="3.725"/>
		
			<rect x="50.251" y="147.008" transform="matrix(0.7067 0.7075 -0.7075 0.7067 120.2366 7.7159)" fill="#1C1C1C" width="1.122" height="3.724"/>
		
			<rect x="52.6" y="149.356" transform="matrix(0.7067 0.7075 -0.7075 0.7067 122.5871 6.7434)" fill="#1C1C1C" width="1.122" height="3.725"/>
		
			<rect x="57.295" y="154.052" transform="matrix(0.7075 0.7067 -0.7067 0.7075 127.1009 4.7126)" fill="#1C1C1C" width="1.123" height="3.725"/>
		
			<rect x="59.644" y="156.398" transform="matrix(0.7075 0.7067 -0.7067 0.7075 129.4458 3.7394)" fill="#1C1C1C" width="1.122" height="3.725"/>
		
			<rect x="61.99" y="158.747" transform="matrix(0.7067 0.7075 -0.7075 0.7067 131.9861 2.8529)" fill="#1C1C1C" width="1.123" height="3.725"/>
		
			<rect x="60.829" y="136.062" transform="matrix(0.7069 0.7073 -0.7073 0.7069 114.4293 -3.9603)" fill="#E9B826" width="2.328" height="0.057"/>
		
			<rect x="28.993" y="150.181" transform="matrix(0.7071 -0.7071 0.7071 0.7071 -93.3268 77.3785)" fill="#E54C42" width="35.496" height="2.328"/>
		
			<rect x="62.475" y="137.708" transform="matrix(-0.7069 -0.7073 0.7073 -0.7069 11.2035 280.1143)" fill="#E9B826" width="2.329" height="0.055"/>
		
			<rect x="47.223" y="135.243" transform="matrix(0.7073 0.7069 -0.7069 0.7073 122.3107 10.5734)" fill="#B72C26" width="2.328" height="35.496"/>
		
			<rect x="62.191" y="132.83" transform="matrix(0.7067 0.7075 -0.7075 0.7067 113.9069 -5.308)" fill="#E54C42" width="2.328" height="3.797"/>
		
			<rect x="63.104" y="135.211" transform="matrix(-0.7072 0.707 -0.707 -0.7072 207.3869 186.8696)" fill="#B72C26" width="3.796" height="2.328"/>
		
			<rect x="59.469" y="135.554" transform="matrix(0.7075 0.7067 -0.7067 0.7075 114.8687 -2.6471)" fill="#FFFFFF" width="2.327" height="3.795"/>
		
			<rect x="61.114" y="137.201" transform="matrix(-0.7073 -0.7069 0.7069 -0.7073 8.0004 281.5097)" fill="#CACCCB" width="2.328" height="3.796"/>
		<polygon fill="#FFDF5A" points="35.014,164.718 33.368,163.071 31.7,166.537 32.447,167.283 		"/>
		<polygon fill="#E9B826" points="33.193,168.029 36.659,166.364 35.014,164.718 32.447,167.283 		"/>
		<polygon fill="#595959" points="32.447,167.283 31.7,166.537 30.32,169.41 		"/>
		<polygon fill="#1C1C1C" points="30.32,169.41 33.193,168.029 32.447,167.283 		"/>
	</g>
	<g>
		<circle fill="#39B54A" cx="189.46" cy="150.988" r="31.5"/>
		<path fill="#289472" d="M191.898,136.604c-0.074-0.002-0.148-0.003-0.225-0.004C191.75,136.602,191.824,136.603,191.898,136.604z"
			/>
		<path fill="#FFDF5A" d="M184.103,167.32v-6.677v-3.592l5.357,0.002v-2.22c-5.926,0-11-3.632-13.129-8.787v21.827
			c0,2.25,1.826,4.073,4.074,4.073h9.053v-4.627H184.103z"/>
		<path fill="#E9B826" d="M202.587,167.874v-21.827c-2.127,5.155-7.203,8.787-13.127,8.787v2.22h5.355v3.589v6.678h-5.357v4.627
			h9.057C200.763,171.947,202.587,170.124,202.587,167.874z"/>
		<path fill="#595959" d="M187.248,136.602c-0.076,0-0.15,0.001-0.227,0.003c-0.705,0.014-1.406,0.031-2.1,0.054
			c-0.77,0.026-1.535,0.057-2.289,0.093c-2.426,0.123-4.76,0.301-6.967,0.525c-0.262,1.078-0.404,2.202-0.402,3.36
			c0,1.916,0.381,3.743,1.068,5.41c2.129,5.155,7.203,8.787,13.129,8.787l-0.002-15.592l0.002-2.663
			C188.716,136.579,187.978,136.587,187.248,136.602z"/>
		<path fill="#1C1C1C" d="M203.255,137.276c-2.207-0.225-4.539-0.402-6.967-0.525c-0.756-0.036-1.52-0.066-2.293-0.093
			c-0.691-0.022-1.393-0.04-2.098-0.054c-0.074-0.002-0.148-0.003-0.225-0.004c-0.732-0.014-1.471-0.021-2.213-0.021l-0.002,2.663
			l0.002,15.592c5.924,0,11-3.632,13.127-8.787c0.688-1.667,1.07-3.495,1.07-5.41C203.658,139.479,203.517,138.354,203.255,137.276z
			"/>
		<path fill="#595959" d="M189.458,162.505c-2.063,0-3.938-0.708-5.355-1.861v6.677h5.355V162.505z"/>
		<path fill="#1C1C1C" d="M189.458,167.32h5.357v-6.678c-1.416,1.154-3.291,1.861-5.357,1.862V167.32z"/>
		<path fill="#E54C42" d="M184.103,160.644c1.418,1.153,3.293,1.861,5.355,1.861l0.002-5.451l-5.357-0.002V160.644z"/>
		<path fill="#B72C26" d="M194.816,160.643v-3.589h-5.355l-0.002,5.451C191.525,162.504,193.4,161.797,194.816,160.643z"/>
		<path fill="#1C1C1C" d="M189.46,136.579c-0.744,0-1.482,0.008-2.213,0.022C187.978,136.587,188.716,136.579,189.46,136.579z"/>
		<path fill="#1C1C1C" d="M184.921,136.658c0.693-0.022,1.395-0.04,2.1-0.054C186.314,136.617,185.615,136.636,184.921,136.658z"/>
		<path fill="#1C1C1C" d="M189.46,136.579c0.742,0,1.48,0.008,2.213,0.021C190.941,136.587,190.203,136.579,189.46,136.579z"/>
		<path fill="#1C1C1C" d="M193.996,136.658c-0.691-0.022-1.391-0.041-2.098-0.054C192.603,136.618,193.304,136.636,193.996,136.658z
			"/>
		<path fill="#289472" d="M184.921,136.658c-0.77,0.026-1.535,0.057-2.289,0.093C183.386,136.715,184.152,136.685,184.921,136.658z"
			/>
		<path fill="#289472" d="M193.996,136.658c0.773,0.026,1.537,0.057,2.293,0.093C195.533,136.715,194.769,136.685,193.996,136.658z"
			/>
		<path fill="#FFDF5A" d="M186.167,148.997c0.002,1.818,1.475,3.29,3.291,3.29v-6.581
			C187.642,145.706,186.169,147.181,186.167,148.997z"/>
		<path fill="#E9B826" d="M192.751,148.997c0-1.816-1.473-3.291-3.293-3.291v6.581C191.279,152.288,192.751,150.815,192.751,148.997
			z"/>
		<path fill="#595959" d="M187.906,148.997c0,0.858,0.697,1.553,1.553,1.553v-3.105C188.603,147.444,187.906,148.14,187.906,148.997
			z"/>
		<path fill="#1C1C1C" d="M191.013,148.997c0-0.857-0.695-1.553-1.555-1.553v3.105C190.318,150.55,191.013,149.855,191.013,148.997z
			"/>
		<path fill="#E54C42" d="M172.339,159.271v4.372c0,2.205,1.789,3.992,3.992,3.992v-8.639h-3.979
			C172.347,159.089,172.339,159.178,172.339,159.271z"/>
		<path fill="#B72C26" d="M202.587,167.638c2.205,0,3.992-1.787,3.992-3.994v-4.372c0-0.094-0.006-0.183-0.012-0.274h-3.98V167.638z
			"/>
		<path fill="#595959" d="M172.353,158.997h3.979v-3.719C174.22,155.278,172.494,156.921,172.353,158.997z"/>
		<path fill="#1C1C1C" d="M202.587,155.278v3.719h3.98C206.425,156.921,204.701,155.278,202.587,155.278z"/>
		<path fill="#FFFFFF" d="M182.621,136.753c0.766-0.038,1.531-0.068,2.301-0.095c0.057-1.162,0.547-2.209,1.314-2.984l-1.625-1.625
			C183.408,133.259,182.652,134.918,182.621,136.753z"/>
		<path fill="#CACCCB" d="M192.683,133.674c0.768,0.775,1.26,1.822,1.313,2.984c0.773,0.026,1.537,0.057,2.293,0.093
			c-0.02-1.833-0.775-3.492-1.98-4.702L192.683,133.674z"/>
		<path fill="#595959" d="M189.46,132.324v-2.297c-1.898,0-3.611,0.774-4.85,2.021l1.625,1.625
			C187.058,132.843,188.197,132.324,189.46,132.324z"/>
		<path fill="#1C1C1C" d="M189.46,130.027v2.297c1.262-0.001,2.4,0.519,3.223,1.35l1.625-1.625
			C193.072,130.802,191.357,130.027,189.46,130.027z"/>
	</g>
	<g>
		<path fill="#DA1C5C" d="M291.318,150.986c0.002,17.396-14.102,31.498-31.496,31.5c-17.4,0-31.504-14.104-31.502-31.5
			c0-17.397,14.105-31.498,31.498-31.498C277.218,119.488,291.316,133.589,291.318,150.986z"/>
		<rect x="259.207" y="130.312" fill="#FFDF5A" width="0.613" height="3.58"/>
		<rect x="259.82" y="130.312" fill="#E9B826" width="0.611" height="3.58"/>
		<path fill="#E54C42" d="M255.873,133.275c-3.076,0.953-4.598,4.468-3.4,7.852c1.146,3.244,4.373,5.187,7.346,4.506V133.54
			C258.572,132.998,257.185,132.868,255.873,133.275z"/>
		<path fill="#B72C26" d="M267.166,141.127c1.197-3.384-0.324-6.899-3.398-7.852c-1.316-0.406-2.699-0.277-3.947,0.265
			c-0.002,0-0.002,12.093-0.002,12.093C262.791,146.313,266.019,144.371,267.166,141.127z"/>
		<path fill="#39B693" d="M252.81,129.479c-0.018,1.224,0.975,2.676,2.59,3.604c1.613,0.925,3.371,1.047,4.418,0.413L252.81,129.479
			z"/>
		<path fill="#289472" d="M252.81,129.479c1.049-0.636,2.805-0.515,4.42,0.412c1.613,0.926,2.605,2.38,2.588,3.604L252.81,129.479z"
			/>
		<rect x="261.759" y="151.823" fill="#3787AA" width="12.779" height="9.882"/>
		<rect x="263.5" y="153.389" fill="#CACCCB" width="11.041" height="6.751"/>
		<rect x="243.07" y="161.705" fill="#E54C42" width="13.115" height="8.434"/>
		<rect x="243.07" y="163.443" fill="#FFFFFF" width="11.389" height="4.954"/>
		<rect x="245.851" y="151.824" fill="#52ABE0" width="3.777" height="9.881"/>
		<rect x="250.72" y="151.824" fill="#52ABE0" width="5.293" height="9.881"/>
		<rect x="257.105" y="151.824" fill="#52ABE0" width="4.654" height="9.881"/>
		<rect x="249.628" y="151.823" fill="#FFFFFF" width="1.092" height="9.882"/>
		<rect x="256.013" y="151.824" fill="#FFFFFF" width="1.092" height="9.881"/>
		<rect x="256.185" y="161.705" fill="#B72C26" width="3.633" height="8.433"/>
		<rect x="261.759" y="161.706" fill="#B72C26" width="10.172" height="8.433"/>
		<rect x="273.873" y="161.705" fill="#B72C26" width="4.404" height="8.433"/>
		<rect x="259.818" y="161.705" fill="#CACCCB" width="1.941" height="8.433"/>
		<rect x="271.931" y="161.705" fill="#CACCCB" width="1.941" height="8.434"/>
		<ellipse fill="#CACCCB" cx="266.812" cy="165.922" rx="1.338" ry="2.167"/>
		<polygon fill="#B72C26" points="251.902,174.734 250.201,171.624 248.498,174.734 248.498,165.067 251.902,165.067 		"/>
		<rect x="259.818" y="150.094" fill="#B72C26" width="18.773" height="1.785"/>
		<path fill="#FFFFFF" d="M249.984,145.317c-4.99,1.591-8.938,4.777-8.938,4.777l18.771-0.001
			C259.818,145.579,254.861,143.763,249.984,145.317z"/>
		<path fill="#CACCCB" d="M269.652,145.317c4.992,1.591,8.939,4.776,8.939,4.776h-18.773
			C259.818,145.579,264.777,143.763,269.652,145.317z"/>
		<rect x="241.046" y="150.094" fill="#E54C42" width="18.771" height="1.785"/>
	</g>
	<rect x="3.869" y="4.625" fill="#92278F" width="300" height="34.569"/>
	<path fill="#D1D3D4" d="M297.525,200.626H10.214c-5.704,0-10.345-4.627-10.345-10.314V10.939c0-5.688,4.641-10.314,10.345-10.314
		h287.311c5.703,0,10.344,4.627,10.344,10.314v179.372C307.869,195.999,303.228,200.626,297.525,200.626z M10.214,8.625
		c-1.293,0-2.345,1.039-2.345,2.314v179.372c0,1.276,1.052,2.314,2.345,2.314h287.311c1.291,0,2.344-1.038,2.344-2.314V10.939
		c0-1.275-1.053-2.314-2.344-2.314H10.214z"/>
	<g>
		<circle fill="#FFFFFF" cx="249.468" cy="23.863" r="4.25"/>
		<circle fill="#FFFFFF" cx="265.353" cy="23.863" r="4.25"/>
		<circle fill="#FFFFFF" cx="281.378" cy="23.863" r="4.25"/>
	</g>
</g>
</svg>
