<?xml version="1.0" encoding="utf-8"?>
<!-- Generator: Adobe Illustrator 16.0.0, SVG Export Plug-In . SVG Version: 6.00 Build 0)  -->
<!DOCTYPE svg PUBLIC "-//W3C//DTD SVG 1.1//EN" "http://www.w3.org/Graphics/SVG/1.1/DTD/svg11.dtd">
<svg version="1.1" id="Layer_1" xmlns="http://www.w3.org/2000/svg" xmlns:xlink="http://www.w3.org/1999/xlink" x="0px" y="0px"
	 width="308px" height="200px" viewBox="0 0 308 200" enable-background="new 0 0 308 200" xml:space="preserve">
<g>
	<rect x="6.744" y="37" fill="#C2B59B" width="295.5" height="159.596"/>
	<g>
		<g>
			<path fill="#14826D" d="M229.992,152.466c0,16.578,13.436,30.015,30.012,30.015s30.012-13.437,30.012-30.015
				c0-16.573-13.436-30.012-30.012-30.012S229.992,135.893,229.992,152.466z"/>
		</g>
	</g>
	<g>
		<path fill="#14826D" d="M89.009,153.056c0,16.573,13.438,30.012,30.012,30.012c16.579,0,30.018-13.438,30.018-30.012
			c0-16.578-13.438-30.015-30.018-30.015C102.447,123.041,89.009,136.478,89.009,153.056z"/>
	</g>
	<g>
		<path fill="#14826D" d="M158.634,76.449c0,16.576,13.438,30.012,30.01,30.012c16.58,0,30.018-13.436,30.018-30.012
			s-13.438-30.012-30.018-30.012C172.072,46.438,158.634,59.873,158.634,76.449z"/>
	</g>
	<g>
		<circle fill="#92278F" cx="117.833" cy="76.449" r="30.013"/>
	</g>
	<g>
		<circle fill="#92278F" cx="49.307" cy="153.055" r="30.012"/>
	</g>
	<g>
		<path fill="#262262" d="M17.009,76.449c0,16.576,13.434,30.014,30.012,30.014c16.573,0,30.012-13.438,30.012-30.014
			S63.594,46.438,47.021,46.438C30.442,46.438,17.009,59.873,17.009,76.449z"/>
	</g>
	<g>
		<g>
			<g>
				<path fill="#92278F" d="M229.449,76.449c0,16.578,13.434,30.014,30.012,30.014c16.574,0,30.012-13.436,30.012-30.014
					c0-16.574-13.438-30.012-30.012-30.012C242.882,46.438,229.449,59.875,229.449,76.449z"/>
			</g>
		</g>
	</g>
	<circle fill="#262262" cx="189.732" cy="152.064" r="31.004"/>
	<g>
		<polygon fill="#64392A" points="189.992,160.12 187.31,160.12 182.33,160.12 182.33,166.197 189.992,166.197 		"/>
		<rect x="187.349" y="158.008" fill="#FCC70E" width="2.643" height="2.112"/>
		<polygon fill="#EF7A22" points="182.462,166.197 181.353,166.197 179.433,168.574 189.992,168.574 189.992,166.197 		"/>
		<polygon fill="#FCC70E" points="189.992,153.78 189.992,135.554 177.314,135.554 185.039,158.008 187.349,158.008 187.349,153.78 
					"/>
		<rect x="187.349" y="153.78" fill="#FCC70E" width="2.643" height="4.228"/>
		<polygon fill="#4D2B19" points="189.992,166.197 197.123,166.197 197.123,160.12 192.156,160.12 189.992,160.12 		"/>
		<rect x="189.992" y="158.008" fill="#FAE125" width="2.113" height="2.112"/>
		<polygon fill="#EC6524" points="198.111,166.197 197.003,166.197 189.992,166.197 189.992,168.574 200.031,168.574 		"/>
		<polygon fill="#FAE125" points="189.992,135.554 189.992,153.712 189.992,158.008 192.156,158.008 194.427,158.008 
			202.15,135.554 		"/>
		<rect x="187.349" y="158.008" fill="#D9A728" width="4.756" height="0.264"/>
	</g>
	<g>
		<path fill="#32425A" d="M133.203,65.355l-30.086-0.066c-6.154,0.228-10.723,5.168-10.723,11.232c0,6.209,5.078,11.11,11.287,11.11
			c0.49,0,1.02-0.228,1.492-0.228h25.523c0.475,0,0.955,0.228,1.447,0.228c6.209,0,11.125-4.966,11.125-11.177
			C143.27,70.683,138.9,65.996,133.203,65.355z"/>
		<g>
			<rect x="98.505" y="73.404" fill="#F79421" width="4" height="7"/>
			<rect x="96.505" y="75.404" fill="#F79421" width="7" height="2"/>
		</g>
		<g>
			<circle fill="#F79421" cx="136.211" cy="73.938" r="1.436"/>
			<circle fill="#F79421" cx="136.211" cy="79.105" r="1.436"/>
			<circle fill="#F79421" cx="138.793" cy="76.521" r="1.436"/>
			<circle fill="#F79421" cx="133.627" cy="76.521" r="1.436"/>
		</g>
		<rect x="106.505" y="69.404" fill="#515670" width="23" height="14"/>
		<polygon opacity="0.5" fill="#010101" points="106.505,84.032 106.505,69.404 130.566,69.404 		"/>
		<path opacity="0.4" fill="#FFFFFF" d="M132.875,65.355l-15.369-0.033v22.082h13.192c0.475,0,0.955,0.228,1.447,0.228
			c6.209,0,10.962-4.966,10.962-11.177C143.107,70.683,138.574,65.996,132.875,65.355z"/>
		<rect x="107.505" y="71.404" fill="#F3F3F3" width="20" height="11"/>
	</g>
	<g>
		<g>
			<path fill="#70CEE4" d="M36.907,139.481c0,0,4.599,5.128,12.599,0v27.148c0,0-8.939-3.317-11.805-11.312
				C34.835,147.324,36.907,139.481,36.907,139.481z"/>
			<path fill="#2FC0DB" d="M63.245,139.481c0,0-5.739,5.128-13.739,0v27.148c0,0,9.508-3.317,12.375-11.312
				C64.745,147.324,63.245,139.481,63.245,139.481z"/>
		</g>
		<g>
			<polygon fill="#FFFFFF" points="52.156,143.406 41.974,145.276 36.351,154.962 38.476,157.087 			"/>
			<polygon fill="#CBCBC9" points="52.156,143.406 50.333,153.635 40.692,159.305 38.476,157.087 			"/>
			
				<rect x="31.384" y="156.792" transform="matrix(0.7071 0.7071 -0.7071 0.7071 122.6417 19.5154)" fill="#E6E6E5" width="12.76" height="2.014"/>
			
				<rect x="36.829" y="159.048" transform="matrix(0.707 0.7072 -0.7072 0.707 124.9124 18.5904)" fill="#818181" width="6.38" height="2.014"/>
			
				<rect x="33.64" y="157.516" transform="matrix(0.7071 0.7071 -0.7071 0.7071 123.2193 21.9188)" fill="#FED031" width="3.022" height="4.364"/>
			
				<rect x="35.213" y="158.584" transform="matrix(0.7069 0.7073 -0.7073 0.7069 124.3356 21.5061)" fill="#F6B01A" width="2.014" height="4.366"/>
			
				<rect x="30.161" y="160.996" transform="matrix(0.707 0.7072 -0.7072 0.707 124.1209 24.0668)" fill="#47C4D4" width="5.707" height="1.678"/>
			
				<rect x="32.83" y="162.657" transform="matrix(0.7071 0.7071 -0.7071 0.7071 125.7665 23.367)" fill="#2FC0DB" width="3.693" height="1.679"/>
		</g>
	</g>
	<g>
		<path fill="#E6E6E5" d="M52.505,68.849c0,0.859-0.697,1.556-1.557,1.556h-7.887c-0.86,0-1.557-0.696-1.557-1.556V60.96
			c0-0.859,0.697-1.556,1.557-1.556h7.887c0.86,0,1.557,0.696,1.557,1.556V68.849z"/>
		<path fill="#BC3354" d="M52.505,92.849c0,0.859-0.697,1.556-1.557,1.556h-7.887c-0.86,0-1.557-0.696-1.557-1.556V84.96
			c0-0.859,0.697-1.556,1.557-1.556h7.887c0.86,0,1.557,0.696,1.557,1.556V92.849z"/>
		<path fill="#F8A42F" d="M52.505,81.849c0,0.859-0.697,1.556-1.557,1.556h-7.887c-0.86,0-1.557-0.696-1.557-1.556V73.96
			c0-0.859,0.697-1.556,1.557-1.556h7.887c0.86,0,1.557,0.696,1.557,1.556V81.849z"/>
		<path fill="#6073A0" d="M39.505,81.849c0,0.859-0.696,1.556-1.556,1.556h-7.889c-0.859,0-1.556-0.696-1.556-1.556V73.96
			c0-0.859,0.696-1.556,1.556-1.556h7.889c0.859,0,1.556,0.696,1.556,1.556V81.849z"/>
		<path fill="#DD5A66" d="M64.505,81.849c0,0.859-0.696,1.556-1.556,1.556h-7.889c-0.859,0-1.556-0.696-1.556-1.556V73.96
			c0-0.859,0.696-1.556,1.556-1.556h7.889c0.859,0,1.556,0.696,1.556,1.556V81.849z"/>
		<rect x="44.505" y="87.404" fill="none" stroke="#FFFFFF" stroke-width="2" stroke-miterlimit="10" width="4" height="4"/>
		<circle fill="#FFFFFF" cx="47.086" cy="64.542" r="1.556"/>
		<rect x="32.505" y="74.404" fill="#FFFFFF" width="3" height="5"/>
		<line fill="none" stroke="#FFFFFF" stroke-width="2" stroke-miterlimit="10" x1="58.445" y1="75.356" x2="60.702" y2="78.079"/>
		<line fill="none" stroke="#FFFFFF" stroke-width="2" stroke-miterlimit="10" x1="60.702" y1="75.356" x2="58.445" y2="78.079"/>
		<polygon fill="#FFFFFF" points="49.109,79.404 45.064,79.404 47.088,75.67 		"/>
	</g>
	<g>
		<g>
			<g>
				<path fill="#DF5967" d="M193.505,75.701c0-6.792-5.182-12.297-11.975-12.297h-0.146c-6.791,0-12.879,5.505-12.879,12.297v14.703
					h3v-3.618c0-1.018,1.682-2.382,2.699-2.382h0.096c1.02,0,1.205,1.364,1.205,2.382v3.618h4v-3.618
					c0-1.018,0.957-2.382,1.977-2.382h0.098c1.018,0,0.926,1.364,0.926,2.382v3.618h3v-3.618c0-1.018,1.943-2.382,2.963-2.382h0.098
					c1.018,0,0.939,1.364,0.939,2.382v3.618h4V75.701z"/>
			</g>
			<circle fill="#FFFFFF" cx="176.243" cy="72.329" r="2.329"/>
			<circle fill="#FFFFFF" cx="186.721" cy="72.329" r="2.329"/>
			<circle fill="#010101" cx="186.721" cy="72.329" r="1.261"/>
			<circle fill="#010101" cx="176.243" cy="72.329" r="1.261"/>
			<path opacity="0.3" fill="#FFFFFF" d="M181.531,63.404h-1.025v21.544c0,0,0.943-0.544,0.977-0.544h0.098
				c1.018,0,0.926,1.364,0.926,2.382v3.618h3v-3.618c0-1.018,1.943-2.382,2.963-2.382h0.098c1.018,0,0.939,1.364,0.939,2.382v3.618
				h4V75.701C193.505,68.909,188.324,63.404,181.531,63.404z"/>
		</g>
		<g>
			<g>
				<rect x="199.505" y="71.404" fill="#F79421" width="3" height="12"/>
				<path fill="#CDCCCC" d="M207.505,86.65c0,0.746-0.109,1.754-0.855,1.754h-9.301c-0.744,0-1.844-1.008-1.844-1.754V85.35
					c0-0.746,1.1-0.945,1.844-0.945h9.301c0.746,0,0.855,0.199,0.855,0.945V86.65z"/>
				<circle fill="#EC6880" cx="201.947" cy="70.478" r="4.59"/>
				<g>
					<rect x="196.505" y="83.404" fill="#BC3354" width="9" height="1"/>
				</g>
			</g>
			<g>
				<path fill="#F79421" d="M200.505,75.05c-1-0.034-1-0.136-1-0.298v8.652h1V75.05z"/>
				<path fill="#EC6880" d="M200.505,71.404v-5.5c-2,0.174-4.09,2.152-4.09,4.573c0,1.948,1.09,3.609,3.09,4.274v-3.348H200.505z"/>
				<path fill="#EC6880" d="M200.505,71.404h-1v3.348c0,0.162,0,0.264,1,0.298V71.404z"/>
				<polygon fill="#BC3354" points="200.505,83.404 200.287,83.404 196.505,83.404 196.505,84.404 200.505,84.404 				"/>
				<path opacity="0.4" fill="#F3F3F3" d="M206.333,84.404h-0.828v-1h-3v-8.514c3-0.543,3.687-2.312,3.687-4.413
					c0-2.535-2.435-4.59-4.97-4.59c-0.111,0-0.717,0.008-0.717,0.017v4.688v4.457v7.43v1.321v3.604h5.828
					c0.746,0,0.172-0.773,0.172-1.52V85.15C206.505,84.405,207.08,84.404,206.333,84.404z"/>
			</g>
		</g>
	</g>
	<g>
		<g>
			<path fill="#F3F3F3" d="M251.505,88.414c0,0.875-0.217,1.99-1.092,1.99h-10.826c-0.877,0-2.082-1.115-2.082-1.99V67.586
				c0-0.875,1.205-1.182,2.082-1.182h10.826c0.875,0,1.092,0.307,1.092,1.182V88.414z"/>
			<polygon fill="#EB2227" points="245.943,74.202 243.529,77.956 245.943,81.711 248.357,77.956 			"/>
			<polygon fill="#EB2227" points="250.117,84.823 249.14,86.342 250.117,87.859 251.091,86.342 			"/>
			<polygon fill="#EB2227" points="241.314,84.823 240.337,86.342 241.314,87.859 242.291,86.342 			"/>
			<polygon fill="#EB2227" points="250.117,68.012 249.14,69.529 250.117,71.048 251.091,69.529 			"/>
			<polygon fill="#EB2227" points="241.314,68.012 240.337,69.529 241.314,71.048 242.291,69.529 			"/>
			<path opacity="0.4" fill="#FFFFFF" d="M251.039,66.404h-6.533v23h6.533c0.877,0,0.467-0.779,0.467-1.654V67.354
				C251.505,66.478,251.916,66.404,251.039,66.404z"/>
		</g>
		<g>
			<path fill="#F3F3F3" d="M264.505,85.817c0,0.876-0.504,1.587-1.125,1.587h-11.75c-0.621,0-1.125-0.71-1.125-1.587V64.991
				c0-0.876,0.504-1.587,1.125-1.587h11.75c0.621,0,1.125,0.71,1.125,1.587V85.817z"/>
			<g>
				<path fill="#231F20" d="M260.109,77.291c0.773,0,1.402-0.627,1.402-1.4c0-0.76-0.605-1.378-1.359-1.399
					c0.061-0.168,0.096-0.35,0.096-0.539c0-0.849-0.689-1.538-1.539-1.538c-0.852,0-1.539,0.689-1.539,1.538
					c0,0.189,0.035,0.371,0.098,0.539c-0.756,0.021-1.359,0.64-1.359,1.399c0,0.773,0.627,1.4,1.4,1.4
					c0.574,0,1.068-0.346,1.285-0.841c-0.434,2.015-1.916,2.337-1.916,2.337h4.063c0,0-1.482-0.322-1.914-2.336
					C259.041,76.945,259.535,77.291,260.109,77.291z"/>
				<path fill="#231F20" d="M254.791,67.707c0.314,0,0.568-0.254,0.568-0.566c0-0.84-1.129-1.482-1.133-1.484
					c0,0-1.135,0.645-1.135,1.484c0,0.313,0.254,0.566,0.568,0.566c0.232,0,0.432-0.14,0.518-0.34
					c-0.174,0.814-0.773,0.944-0.773,0.944h1.645c0,0-0.602-0.13-0.775-0.944C254.359,67.567,254.558,67.707,254.791,67.707z"/>
				<path fill="#231F20" d="M263.208,67.707c0.313,0,0.566-0.254,0.566-0.566c0-0.84-1.127-1.482-1.133-1.484
					c0,0-1.131,0.645-1.131,1.484c0,0.313,0.252,0.566,0.564,0.566c0.232,0,0.434-0.14,0.52-0.34
					c-0.174,0.814-0.775,0.944-0.775,0.944h1.646c0,0-0.602-0.13-0.775-0.944C262.777,67.567,262.976,67.707,263.208,67.707z"/>
				<path fill="#231F20" d="M262.076,83.264c-0.311,0-0.564,0.253-0.564,0.566c0,0.838,1.127,1.48,1.131,1.482
					c0,0,1.133-0.644,1.133-1.482c0-0.313-0.252-0.566-0.566-0.566c-0.23,0-0.432,0.139-0.518,0.34
					c0.176-0.815,0.775-0.945,0.775-0.945h-1.646c0,0,0.602,0.13,0.775,0.945C262.509,83.402,262.308,83.264,262.076,83.264z"/>
				<path fill="#231F20" d="M253.66,83.264c-0.314,0-0.568,0.253-0.568,0.566c0,0.838,1.129,1.48,1.135,1.482
					c0,0,1.133-0.644,1.133-1.482c0-0.313-0.254-0.566-0.568-0.566c-0.23,0-0.432,0.139-0.518,0.34
					c0.174-0.815,0.775-0.945,0.775-0.945h-1.645c0,0,0.6,0.13,0.775,0.945C254.091,83.402,253.892,83.264,253.66,83.264z"/>
			</g>
			<path opacity="0.4" fill="#FFFFFF" d="M263.916,63.404h-6.41v24h6.41c0.877,0,0.59-1.764,0.59-2.64V64.369
				C264.505,63.492,264.792,63.404,263.916,63.404z"/>
		</g>
		<g>
			<path fill="#F3F3F3" d="M279.505,89.414c0,0.876-0.215,1.99-1.092,1.99h-10.828c-0.875,0-2.08-1.114-2.08-1.99V68.586
				c0-0.876,1.205-1.182,2.08-1.182h10.828c0.877,0,1.092,0.306,1.092,1.182V89.414z"/>
			<g>
				<path fill="#231F20" d="M275.146,80.791c0.775,0,1.402-0.627,1.402-1.4c0-2.073-2.789-3.662-2.801-3.67
					c0,0-2.803,1.596-2.803,3.67c0,0.773,0.627,1.4,1.402,1.4c0.572,0,1.066-0.346,1.283-0.84c-0.432,2.014-1.916,2.336-1.916,2.336
					h4.064c0,0-1.484-0.322-1.916-2.336C274.08,80.445,274.572,80.791,275.146,80.791z"/>
				<path fill="#231F20" d="M269.878,71.541c0.313,0,0.566-0.253,0.566-0.566c0-0.307-0.244-0.557-0.549-0.565
					c0.025-0.067,0.039-0.142,0.039-0.218c0-0.344-0.279-0.623-0.623-0.623s-0.623,0.279-0.623,0.623
					c0,0.076,0.016,0.15,0.041,0.218c-0.307,0.009-0.551,0.259-0.551,0.565c0,0.313,0.254,0.566,0.566,0.566
					c0.232,0,0.432-0.14,0.52-0.34c-0.176,0.814-0.775,0.945-0.775,0.945h1.645c0,0-0.6-0.131-0.775-0.945
					C269.447,71.401,269.648,71.541,269.878,71.541z"/>
				<path fill="#231F20" d="M278.248,71.541c0.313,0,0.566-0.253,0.566-0.566c0-0.307-0.246-0.557-0.551-0.565
					c0.025-0.067,0.041-0.142,0.041-0.218c0-0.344-0.279-0.623-0.625-0.623c-0.342,0-0.619,0.279-0.619,0.623
					c0,0.076,0.012,0.15,0.039,0.218c-0.307,0.009-0.551,0.259-0.551,0.565c0,0.313,0.254,0.566,0.566,0.566
					c0.232,0,0.432-0.14,0.52-0.34c-0.174,0.814-0.775,0.945-0.775,0.945h1.645c0,0-0.602-0.131-0.775-0.945
					C277.816,71.401,278.015,71.541,278.248,71.541z"/>
				<path fill="#231F20" d="M277.115,87.176c-0.313,0-0.566,0.254-0.566,0.565c0,0.31,0.244,0.558,0.551,0.567
					c-0.027,0.067-0.039,0.141-0.039,0.218c0,0.344,0.277,0.622,0.619,0.622c0.346,0,0.625-0.278,0.625-0.622
					c0-0.077-0.016-0.15-0.041-0.218c0.305-0.01,0.551-0.258,0.551-0.567c0-0.312-0.254-0.565-0.566-0.565
					c-0.232,0-0.432,0.141-0.52,0.34c0.174-0.814,0.775-0.945,0.775-0.945h-1.645c0,0,0.602,0.131,0.775,0.945
					C277.546,87.316,277.347,87.176,277.115,87.176z"/>
				<path fill="#231F20" d="M268.746,87.176c-0.313,0-0.566,0.254-0.566,0.565c0,0.31,0.244,0.558,0.551,0.567
					c-0.025,0.067-0.041,0.141-0.041,0.218c0,0.344,0.279,0.622,0.623,0.622s0.623-0.278,0.623-0.622
					c0-0.077-0.014-0.15-0.039-0.218c0.305-0.01,0.549-0.258,0.549-0.567c0-0.312-0.254-0.565-0.566-0.565
					c-0.23,0-0.432,0.141-0.52,0.34c0.176-0.814,0.775-0.945,0.775-0.945h-1.645c0,0,0.6,0.131,0.775,0.945
					C269.177,87.316,268.978,87.176,268.746,87.176z"/>
			</g>
			<path opacity="0.4" fill="#FFFFFF" d="M278.98,67.404h-5.475v24h5.475c0.875,0,0.525-1.6,0.525-2.475V68.534
				C279.505,67.658,279.855,67.404,278.98,67.404z"/>
		</g>
		<g>
			<path fill="#F3F3F3" d="M273.505,83.414c0,0.876-0.217,1.99-1.092,1.99h-10.826c-0.877,0-2.082-1.114-2.082-1.99V62.586
				c0-0.876,1.205-1.182,2.082-1.182h10.826c0.875,0,1.092,0.306,1.092,1.182V83.414z"/>
			<path fill="#EB2227" d="M270.484,71.434c0-0.853-0.691-1.543-1.543-1.543c-0.85,0-1.539,0.688-1.541,1.537
				c-0.004-0.85-0.695-1.537-1.543-1.537c-0.854,0-1.543,0.69-1.543,1.543c0,2.283,3.07,4.033,3.084,4.041
				C267.398,75.475,270.484,73.717,270.484,71.434z"/>
			<path fill="#EB2227" d="M273.556,63.355c0-0.345-0.281-0.624-0.625-0.624s-0.623,0.278-0.623,0.622
				c-0.002-0.344-0.281-0.622-0.625-0.622s-0.623,0.279-0.623,0.624c0,0.924,1.242,1.632,1.248,1.635
				C272.308,64.99,273.556,64.279,273.556,63.355z"/>
			<path fill="#EB2227" d="M264.148,63.355c0-0.345-0.279-0.624-0.623-0.624s-0.623,0.278-0.625,0.622
				c0-0.344-0.279-0.622-0.623-0.622s-0.625,0.279-0.625,0.624c0,0.924,1.242,1.632,1.248,1.635
				C262.9,64.99,264.148,64.279,264.148,63.355z"/>
			<path fill="#EB2227" d="M261.652,81.178c0,0.344,0.281,0.623,0.625,0.623s0.623-0.277,0.623-0.621
				c0.002,0.344,0.281,0.621,0.625,0.621s0.623-0.279,0.623-0.623c0-0.924-1.24-1.632-1.248-1.635
				C262.9,79.543,261.652,80.254,261.652,81.178z"/>
			<path fill="#EB2227" d="M271.06,81.178c0,0.344,0.279,0.623,0.623,0.623s0.623-0.277,0.625-0.621
				c0,0.344,0.279,0.621,0.623,0.621s0.625-0.279,0.625-0.623c0-0.924-1.242-1.632-1.248-1.635
				C272.308,79.543,271.06,80.254,271.06,81.178z"/>
			<path opacity="0.4" fill="#FFFFFF" d="M273.183,61.404h-6.678v22h6.678c0.875,0,1.322-0.367,1.322-1.243V61.765
				C274.505,60.89,274.058,61.404,273.183,61.404z"/>
		</g>
	</g>
	<g>
		<g>
			<rect x="101.505" y="139.404" fill-rule="evenodd" clip-rule="evenodd" fill="#32425A" width="34" height="23"/>
			<rect x="102.505" y="141.404" fill-rule="evenodd" clip-rule="evenodd" fill="#FCE500" width="30" height="20"/>
			<polygon opacity="0.4" fill-rule="evenodd" clip-rule="evenodd" fill="#FFFFFF" points="102.505,160.967 102.505,141.404 
				134.168,141.404 			"/>
			<rect x="113.505" y="162.404" fill-rule="evenodd" clip-rule="evenodd" fill="#32425A" width="9" height="3"/>
			<rect x="111.505" y="164.404" fill-rule="evenodd" clip-rule="evenodd" fill="#32425A" width="14" height="1"/>
		</g>
		<g>
			<path fill-rule="evenodd" clip-rule="evenodd" fill="#252E3B" d="M118.223,150.484l2.273-2.273
				c-1.585-1.453-4.038-1.431-5.559,0.091c-1.564,1.563-1.578,4.085-0.015,5.649s4.114,1.535,5.679-0.029
				c0.174-0.173,0.228-0.278,0.475-0.584L118.223,150.484z"/>
			<circle fill-rule="evenodd" clip-rule="evenodd" fill="#ED2224" cx="120.878" cy="150.852" r="0.471"/>
		</g>
		<g>
			<path fill="#32425A" d="M136.172,156.646l-10.491,1.91c-2.028,0.374-3.211,2.642-2.826,4.729c0.418,2.268,2.59,3.736,4.856,3.318
				c1.354-0.25,2.455-1.015,2.989-2.307l2.663-0.49c0.961,1.015,2.262,1.338,3.615,1.088c2.268-0.418,3.77-2.58,3.352-4.848
				C139.955,158.016,138.164,156.277,136.172,156.646z"/>
			<g>
				
					<rect x="126.112" y="163.403" transform="matrix(-0.9835 0.1811 -0.1811 -0.9835 281.5849 302.2635)" fill="#8DC641" width="1.758" height="1.172"/>
				
					<rect x="125.614" y="160.713" transform="matrix(0.9835 -0.1811 0.1811 0.9835 -27.1244 25.5804)" fill="#FCE500" width="1.758" height="1.173"/>
				
					<rect x="124.52" y="162.324" transform="matrix(-0.1806 -0.9836 0.9836 -0.1806 -12.3017 315.5717)" fill="#EC2227" width="1.563" height="1.173"/>
				
					<rect x="127.596" y="161.579" transform="matrix(0.9835 -0.1807 0.1807 0.9835 -27.2281 25.8541)" fill="#F79421" width="1.367" height="1.564"/>
				
					<rect x="125.961" y="161.765" transform="matrix(-0.1818 -0.9833 0.9833 -0.1818 -10.1505 316.8432)" fill="#FFFFFF" width="1.563" height="1.759"/>
			</g>
			<g>
				<circle fill="#FFFFFF" cx="135.292" cy="159.931" r="0.8"/>
				<circle fill="#FFFFFF" cx="135.677" cy="162.017" r="0.8"/>
				<circle fill="#FFFFFF" cx="137.597" cy="159.507" r="0.799"/>
				<circle fill="#FFFFFF" cx="137.981" cy="161.591" r="0.8"/>
			</g>
		</g>
	</g>
	<g>
		<path fill-rule="evenodd" clip-rule="evenodd" fill="#ED5E57" d="M250.251,133.169l19.508,0.001
			c2.006,0.002,3.648,1.643,3.648,3.65l-0.004,31.297c0,2.008-1.641,3.648-3.65,3.648l-19.508-0.002
			c-2.006,0-3.646-1.643-3.646-3.648l0.002-31.298C246.601,134.811,248.244,133.168,250.251,133.169z"/>
		<path fill-rule="evenodd" clip-rule="evenodd" fill="#DCD9DD" d="M251.513,136.537l16.982,0.002c1.002,0,1.824,0.821,1.824,1.825
			l-0.002,15.858c0,1.004-0.82,1.824-1.824,1.823l-16.982-0.001c-1.004,0-1.824-0.821-1.824-1.824l0.002-15.859
			C249.689,137.357,250.509,136.537,251.513,136.537z"/>
		<circle fill-rule="evenodd" clip-rule="evenodd" fill="#EDF8FE" cx="260.003" cy="161.171" r="3.57"/>
		<circle fill-rule="evenodd" clip-rule="evenodd" fill="#EDF8FE" cx="253.575" cy="166.594" r="1.851"/>
		<circle fill-rule="evenodd" clip-rule="evenodd" fill="#EDF8FE" cx="266.591" cy="166.594" r="1.852"/>
		<polygon fill-rule="evenodd" clip-rule="evenodd" fill="#F3705E" points="261.957,161.174 258.406,163.225 258.406,159.125 		"/>
	</g>
	<rect x="4.494" y="4.596" fill="#1C75BC" width="300" height="34.568"/>
	<path fill="#D1D3D4" d="M298.15,200.596H10.84c-5.705,0-10.346-4.627-10.346-10.314V10.909c0-5.687,4.641-10.313,10.346-10.313
		h287.31c5.703,0,10.344,4.627,10.344,10.313v179.372C308.494,195.969,303.853,200.596,298.15,200.596z M10.84,8.596
		c-1.293,0-2.346,1.037-2.346,2.313v179.372c0,1.275,1.053,2.314,2.346,2.314h287.31c1.293,0,2.344-1.039,2.344-2.314V10.909
		c0-1.276-1.051-2.313-2.344-2.313H10.84z"/>
	<g>
		<circle fill="#FFFFFF" cx="250.095" cy="23.833" r="4.25"/>
		<circle fill="#FFFFFF" cx="265.98" cy="23.833" r="4.25"/>
		<circle fill="#FFFFFF" cx="282.003" cy="23.833" r="4.25"/>
	</g>
</g>
</svg>
