<?xml version="1.0" encoding="utf-8"?>
<!-- Generator: Adobe Illustrator 16.0.0, SVG Export Plug-In . SVG Version: 6.00 Build 0)  -->
<!DOCTYPE svg PUBLIC "-//W3C//DTD SVG 1.1//EN" "http://www.w3.org/Graphics/SVG/1.1/DTD/svg11.dtd">
<svg version="1.1" id="Layer_1" xmlns="http://www.w3.org/2000/svg" xmlns:xlink="http://www.w3.org/1999/xlink" x="0px" y="0px"
	 width="308px" height="200px" viewBox="0 0 308 200" enable-background="new 0 0 308 200" xml:space="preserve">
<g>
	<rect x="6.744" y="37" fill="#C1B49A" width="295.5" height="159.596"/>
	<g>
		<g>
			<path fill="#12826E" d="M229.992,152.466c0,16.578,13.436,30.015,30.012,30.015s30.012-13.437,30.012-30.015
				c0-16.573-13.436-30.012-30.012-30.012S229.992,135.893,229.992,152.466z"/>
		</g>
	</g>
	<g>
		<path fill="#12826E" d="M89.009,153.056c0,16.573,13.438,30.012,30.012,30.012c16.579,0,30.018-13.438,30.018-30.012
			c0-16.578-13.438-30.015-30.018-30.015C102.447,123.041,89.009,136.478,89.009,153.056z"/>
	</g>
	<g>
		<path fill="#12826E" d="M158.634,76.449c0,16.576,13.438,30.012,30.01,30.012c16.58,0,30.018-13.436,30.018-30.012
			s-13.438-30.012-30.018-30.012C172.071,46.438,158.634,59.873,158.634,76.449z"/>
	</g>
	<g>
		<circle fill="#90278E" cx="117.833" cy="76.449" r="30.013"/>
	</g>
	<g>
		<circle fill="#90278E" cx="49.307" cy="153.055" r="30.012"/>
	</g>
	<g>
		<path fill="#262261" d="M17.009,76.449c0,16.576,13.434,30.014,30.012,30.014c16.573,0,30.012-13.438,30.012-30.014
			S63.594,46.438,47.021,46.438C30.442,46.438,17.009,59.873,17.009,76.449z"/>
	</g>
	<g>
		<g>
			<g>
				<path fill="#90278E" d="M229.448,76.449c0,16.578,13.434,30.014,30.012,30.014c16.574,0,30.012-13.436,30.012-30.014
					c0-16.574-13.438-30.012-30.012-30.012C242.882,46.438,229.448,59.875,229.448,76.449z"/>
			</g>
		</g>
	</g>
	<circle fill="#262261" cx="189.732" cy="152.064" r="31.003"/>
	<g>
		<polygon fill="#64382A" points="189.991,160.12 187.31,160.12 182.33,160.12 182.33,166.197 189.991,166.197 		"/>
		<rect x="187.349" y="158.008" fill="#FBC60E" width="2.643" height="2.112"/>
		<polygon fill="#EF7A22" points="182.463,166.197 181.353,166.197 179.434,168.574 189.991,168.574 189.991,166.197 		"/>
		<polygon fill="#FBC60E" points="189.991,153.78 189.991,135.554 177.313,135.554 185.038,158.008 187.349,158.008 187.349,153.78 
					"/>
		<rect x="187.349" y="153.78" fill="#FBC60E" width="2.643" height="4.228"/>
		<polygon fill="#4D2B18" points="189.991,166.197 197.123,166.197 197.123,160.12 192.155,160.12 189.991,160.12 		"/>
		<rect x="189.991" y="158.008" fill="#FAE122" width="2.113" height="2.112"/>
		<polygon fill="#EB6424" points="198.111,166.197 197.003,166.197 189.991,166.197 189.991,168.574 200.031,168.574 		"/>
		<polygon fill="#FAE122" points="189.991,135.554 189.991,153.712 189.991,158.008 192.155,158.008 194.428,158.008 
			202.15,135.554 		"/>
		<rect x="187.349" y="158.008" fill="#DAA728" width="4.756" height="0.264"/>
	</g>
	<g>
		<path fill="#33425A" d="M133.203,65.355l-30.086-0.066c-6.154,0.228-10.723,5.168-10.723,11.232
			c0,6.209,5.078,11.158,11.287,11.158c0.49,0,1.02-0.18,1.492-0.18h25.523c0.475,0,0.955,0.18,1.447,0.18
			c6.209,0,11.125-4.99,11.125-11.201C143.27,70.707,138.9,65.996,133.203,65.355z"/>
		<g>
			<rect x="98.5" y="73.5" fill="#F69220" width="4" height="7"/>
			<rect x="96.5" y="75.5" fill="#F69220" width="7" height="2"/>
		</g>
		<g>
			<circle fill="#F69220" cx="136.211" cy="73.938" r="1.436"/>
			<circle fill="#F69220" cx="136.211" cy="79.105" r="1.436"/>
			<circle fill="#F69220" cx="138.793" cy="76.521" r="1.436"/>
			<circle fill="#F69220" cx="133.627" cy="76.521" r="1.436"/>
		</g>
		<rect x="106.5" y="69.5" fill="#50556F" width="23" height="14"/>
		<polygon opacity="0.5" points="106.5,84.032 106.5,69.5 130.566,69.5 		"/>
		<path opacity="0.4" fill="#FFFFFF" d="M132.872,65.355L117.5,65.322V87.5h13.197c0.475,0,0.955,0.18,1.447,0.18
			c6.209,0,10.961-4.99,10.961-11.201C143.105,70.707,138.571,65.996,132.872,65.355z"/>
		<rect x="107.5" y="71.5" fill="#F3F2F2" width="20" height="11"/>
	</g>
	<g>
		<g>
			<path fill="#70CCE3" d="M36.904,139.481c0,0,4.596,5.128,12.596,0v27.148c0,0-8.938-3.317-11.804-11.312
				C34.831,147.324,36.904,139.481,36.904,139.481z"/>
			<path fill="#2DBEDA" d="M63.242,139.481c0,0-5.742,5.128-13.742,0v27.148c0,0,9.51-3.317,12.377-11.312
				C64.741,147.324,63.242,139.481,63.242,139.481z"/>
		</g>
		<g>
			<polygon fill="#FFFFFF" points="52.156,143.406 41.974,145.276 36.351,154.962 38.476,157.087 			"/>
			<polygon fill="#CACAC7" points="52.156,143.406 50.333,153.635 40.692,159.305 38.476,157.087 			"/>
			
				<rect x="31.384" y="156.792" transform="matrix(0.7071 0.7071 -0.7071 0.7071 122.6417 19.5154)" fill="#E5E5E5" width="12.76" height="2.014"/>
			
				<rect x="36.829" y="159.048" transform="matrix(0.707 0.7072 -0.7072 0.707 124.9124 18.5904)" fill="#808080" width="6.38" height="2.014"/>
			
				<rect x="33.64" y="157.516" transform="matrix(0.7071 0.7071 -0.7071 0.7071 123.2193 21.9188)" fill="#FDCF30" width="3.022" height="4.364"/>
			
				<rect x="35.213" y="158.584" transform="matrix(0.7069 0.7073 -0.7073 0.7069 124.3356 21.5061)" fill="#F6AF1A" width="2.014" height="4.366"/>
			
				<rect x="30.161" y="160.996" transform="matrix(0.707 0.7072 -0.7072 0.707 124.1209 24.0668)" fill="#48C3D3" width="5.707" height="1.678"/>
			
				<rect x="32.83" y="162.657" transform="matrix(0.7071 0.7071 -0.7071 0.7071 125.7665 23.367)" fill="#2DBEDA" width="3.693" height="1.679"/>
		</g>
	</g>
	<g>
		<path fill="#E5E5E5" d="M52.5,68.944c0,0.859-0.697,1.556-1.557,1.556h-7.887c-0.86,0-1.557-0.696-1.557-1.556v-7.889
			c0-0.859,0.697-1.556,1.557-1.556h7.887c0.86,0,1.557,0.696,1.557,1.556V68.944z"/>
		<path fill="#BC3254" d="M52.5,92.944c0,0.859-0.697,1.556-1.557,1.556h-7.887c-0.86,0-1.557-0.696-1.557-1.556v-7.889
			c0-0.859,0.697-1.556,1.557-1.556h7.887c0.86,0,1.557,0.696,1.557,1.556V92.944z"/>
		<path fill="#F9A42D" d="M52.5,81.944c0,0.859-0.697,1.556-1.557,1.556h-7.887c-0.86,0-1.557-0.696-1.557-1.556v-7.889
			c0-0.859,0.697-1.556,1.557-1.556h7.887c0.86,0,1.557,0.696,1.557,1.556V81.944z"/>
		<path fill="#5F729F" d="M39.5,81.944c0,0.859-0.696,1.556-1.556,1.556h-7.889c-0.859,0-1.556-0.696-1.556-1.556v-7.889
			c0-0.859,0.696-1.556,1.556-1.556h7.889c0.859,0,1.556,0.696,1.556,1.556V81.944z"/>
		<path fill="#DC5965" d="M64.5,81.944c0,0.859-0.696,1.556-1.556,1.556h-7.889c-0.859,0-1.556-0.696-1.556-1.556v-7.889
			c0-0.859,0.696-1.556,1.556-1.556h7.889c0.859,0,1.556,0.696,1.556,1.556V81.944z"/>
		<rect x="44.5" y="87.5" fill="none" stroke="#FFFFFF" stroke-width="2" stroke-miterlimit="10" width="4" height="4"/>
		<circle fill="#FFFFFF" cx="47.086" cy="64.542" r="1.556"/>
		<rect x="32.5" y="74.5" fill="#FFFFFF" width="3" height="5"/>
		<line fill="none" stroke="#FFFFFF" stroke-width="2" stroke-miterlimit="10" x1="58.445" y1="75.356" x2="60.702" y2="78.079"/>
		<line fill="none" stroke="#FFFFFF" stroke-width="2" stroke-miterlimit="10" x1="60.702" y1="75.356" x2="58.445" y2="78.079"/>
		<polygon fill="#FFFFFF" points="49.109,79.5 45.064,79.5 47.088,75.766 		"/>
	</g>
	<g>
		<g>
			<g>
				<path fill="#DE5967" d="M193.5,75.701c0-6.792-5.177-12.201-11.969-12.201h-0.146c-6.792,0-12.885,5.409-12.885,12.201V90.5h3
					v-3.714c0-1.018,1.688-2.286,2.704-2.286h0.097c1.02,0,1.199,1.269,1.199,2.286V90.5h4v-3.714c0-1.018,0.963-2.286,1.982-2.286
					h0.097c1.019,0,0.921,1.269,0.921,2.286V90.5h3v-3.714c0-1.018,1.949-2.286,2.968-2.286h0.099c1.017,0,0.934,1.269,0.934,2.286
					V90.5h4V75.701z"/>
			</g>
			<circle fill="#FFFFFF" cx="176.243" cy="72.329" r="2.329"/>
			<circle fill="#FFFFFF" cx="186.721" cy="72.329" r="2.329"/>
			<circle cx="186.722" cy="72.329" r="1.261"/>
			<circle cx="176.242" cy="72.329" r="1.261"/>
			<path opacity="0.3" fill="#FFFFFF" d="M181.531,63.5H180.5v21.448c0,0,0.949-0.448,0.982-0.448h0.097
				c1.019,0,0.921,1.269,0.921,2.286V90.5h3v-3.714c0-1.018,1.949-2.286,2.968-2.286h0.099c1.017,0,0.934,1.269,0.934,2.286V90.5h4
				V75.701C193.5,68.909,188.323,63.5,181.531,63.5z"/>
		</g>
		<g>
			<g>
				<rect x="199.5" y="71.5" fill="#F69220" width="3" height="12"/>
				<path fill="#CDCCCB" d="M207.5,87.15c0,0.745-0.604,1.35-1.35,1.35h-9.301c-0.745,0-1.35-0.604-1.35-1.35V85.85
					c0-0.745,0.604-1.35,1.35-1.35h9.301c0.745,0,1.35,0.604,1.35,1.35V87.15z"/>
				<circle fill="#EB6780" cx="201.947" cy="70.478" r="4.589"/>
				<g>
					<rect x="196.5" y="83.5" fill="#BC3254" width="9" height="1"/>
				</g>
			</g>
			<g>
				<path fill="#F69220" d="M200.5,75.05c-1-0.034-1-0.136-1-0.298V83.5h1V75.05z"/>
				<path fill="#EB6780" d="M200.5,71.5v-5.596c-2,0.174-4.09,2.152-4.09,4.573c0,1.948,1.09,3.609,3.09,4.274V71.5H200.5z"/>
				<path fill="#EB6780" d="M200.5,71.5h-1v3.252c0,0.162,0,0.264,1,0.298V71.5z"/>
				<polygon fill="#BC3254" points="200.5,83.5 200.287,83.5 196.5,83.5 196.5,84.5 200.5,84.5 				"/>
				<path opacity="0.4" fill="#F3F2F2" d="M206.334,84.5H205.5v-1h-3v-8.609c3-0.543,3.689-2.312,3.689-4.413
					c0-2.535-2.436-4.59-4.971-4.59c-0.112,0-0.719,0.008-0.719,0.017v4.688v4.457v7.43v1.321V87.5h5.834
					c0.746,0,0.166-0.869,0.166-1.615V85.15C206.5,84.405,207.08,84.5,206.334,84.5z"/>
			</g>
		</g>
	</g>
	<g>
		<g>
			<path fill="#F3F2F2" d="M251.5,88.914c0,0.876-0.711,1.586-1.587,1.586h-10.826c-0.876,0-1.587-0.71-1.587-1.586V68.086
				c0-0.876,0.711-1.586,1.587-1.586h10.826c0.876,0,1.587,0.71,1.587,1.586V88.914z"/>
			<polygon fill="#EA2227" points="245.942,74.202 243.529,77.956 245.942,81.711 248.356,77.956 			"/>
			<polygon fill="#EA2227" points="250.116,84.823 249.141,86.342 250.116,87.859 251.092,86.342 			"/>
			<polygon fill="#EA2227" points="241.314,84.823 240.338,86.342 241.314,87.859 242.29,86.342 			"/>
			<polygon fill="#EA2227" points="250.116,68.012 249.141,69.529 250.116,71.048 251.092,69.529 			"/>
			<polygon fill="#EA2227" points="241.314,68.012 240.338,69.529 241.314,71.048 242.29,69.529 			"/>
			<path opacity="0.4" fill="#FFFFFF" d="M251.039,66.5H244.5v23h6.539c0.876,0,0.461-0.875,0.461-1.75V67.354
				C251.5,66.478,251.915,66.5,251.039,66.5z"/>
		</g>
		<g>
			<path fill="#F3F2F2" d="M264.5,85.913c0,0.876-0.504,1.587-1.125,1.587h-11.75c-0.621,0-1.125-0.71-1.125-1.587V65.087
				c0-0.876,0.504-1.587,1.125-1.587h11.75c0.621,0,1.125,0.71,1.125,1.587V85.913z"/>
			<g>
				<path fill="#231F20" d="M260.108,77.291c0.774,0,1.402-0.627,1.402-1.4c0-0.76-0.605-1.378-1.359-1.399
					c0.062-0.168,0.096-0.35,0.096-0.539c0-0.849-0.688-1.538-1.539-1.538s-1.539,0.689-1.539,1.538
					c0,0.189,0.035,0.371,0.098,0.539c-0.755,0.021-1.359,0.64-1.359,1.399c0,0.773,0.627,1.4,1.4,1.4
					c0.575,0,1.069-0.346,1.285-0.841c-0.433,2.015-1.916,2.337-1.916,2.337h4.063c0,0-1.482-0.322-1.915-2.336
					C259.041,76.945,259.535,77.291,260.108,77.291z"/>
				<path fill="#231F20" d="M254.791,67.707c0.313,0,0.567-0.254,0.567-0.566c0-0.84-1.128-1.482-1.133-1.484
					c0,0-1.134,0.645-1.134,1.484c0,0.313,0.253,0.566,0.567,0.566c0.232,0,0.433-0.14,0.519-0.34
					c-0.175,0.814-0.774,0.944-0.774,0.944h1.645c0,0-0.601-0.13-0.775-0.944C254.359,67.567,254.559,67.707,254.791,67.707z"/>
				<path fill="#231F20" d="M263.209,67.707c0.313,0,0.566-0.254,0.566-0.566c0-0.84-1.127-1.482-1.133-1.484
					c0,0-1.132,0.645-1.132,1.484c0,0.313,0.253,0.566,0.565,0.566c0.231,0,0.433-0.14,0.519-0.34
					c-0.174,0.814-0.774,0.944-0.774,0.944h1.646c0,0-0.601-0.13-0.775-0.944C262.777,67.567,262.977,67.707,263.209,67.707z"/>
				<path fill="#231F20" d="M262.076,83.264c-0.312,0-0.565,0.253-0.565,0.566c0,0.838,1.128,1.48,1.132,1.482
					c0,0,1.133-0.644,1.133-1.482c0-0.313-0.253-0.566-0.566-0.566c-0.231,0-0.432,0.139-0.518,0.34
					c0.175-0.815,0.774-0.945,0.774-0.945h-1.646c0,0,0.601,0.13,0.775,0.945C262.509,83.402,262.309,83.264,262.076,83.264z"/>
				<path fill="#231F20" d="M253.659,83.264c-0.314,0-0.567,0.253-0.567,0.566c0,0.838,1.128,1.48,1.134,1.482
					c0,0,1.133-0.644,1.133-1.482c0-0.313-0.254-0.566-0.567-0.566c-0.231,0-0.432,0.139-0.519,0.34
					c0.175-0.815,0.775-0.945,0.775-0.945h-1.645c0,0,0.6,0.13,0.775,0.945C254.092,83.402,253.892,83.264,253.659,83.264z"/>
			</g>
			<path opacity="0.4" fill="#FFFFFF" d="M263.916,63.5H257.5v24h6.416c0.877,0,0.584-1.859,0.584-2.735V64.369
				C264.5,63.492,264.793,63.5,263.916,63.5z"/>
		</g>
		<g>
			<path fill="#F3F2F2" d="M279.5,89.914c0,0.876-0.71,1.586-1.586,1.586h-10.828c-0.876,0-1.586-0.71-1.586-1.586V69.086
				c0-0.876,0.71-1.586,1.586-1.586h10.828c0.876,0,1.586,0.71,1.586,1.586V89.914z"/>
			<g>
				<path fill="#231F20" d="M275.146,80.791c0.774,0,1.402-0.627,1.402-1.4c0-2.073-2.79-3.662-2.802-3.67
					c0,0-2.802,1.596-2.802,3.67c0,0.773,0.627,1.4,1.401,1.4c0.573,0,1.066-0.346,1.283-0.84c-0.432,2.014-1.916,2.336-1.916,2.336
					h4.065c0,0-1.484-0.322-1.916-2.336C274.08,80.445,274.572,80.791,275.146,80.791z"/>
				<path fill="#231F20" d="M269.878,71.541c0.313,0,0.567-0.253,0.567-0.566c0-0.307-0.244-0.557-0.55-0.565
					c0.025-0.067,0.039-0.142,0.039-0.218c0-0.344-0.279-0.623-0.622-0.623c-0.344,0-0.623,0.279-0.623,0.623
					c0,0.076,0.015,0.15,0.04,0.218c-0.306,0.009-0.55,0.259-0.55,0.565c0,0.313,0.253,0.566,0.566,0.566
					c0.231,0,0.432-0.14,0.52-0.34c-0.176,0.814-0.775,0.945-0.775,0.945h1.644c0,0-0.6-0.131-0.774-0.945
					C269.447,71.401,269.647,71.541,269.878,71.541z"/>
				<path fill="#231F20" d="M278.247,71.541c0.313,0,0.566-0.253,0.566-0.566c0-0.307-0.245-0.557-0.55-0.565
					c0.025-0.067,0.04-0.142,0.04-0.218c0-0.344-0.279-0.623-0.624-0.623c-0.343,0-0.62,0.279-0.62,0.623
					c0,0.076,0.012,0.15,0.039,0.218c-0.307,0.009-0.55,0.259-0.55,0.565c0,0.313,0.254,0.566,0.565,0.566
					c0.232,0,0.432-0.14,0.52-0.34c-0.174,0.814-0.775,0.945-0.775,0.945h1.645c0,0-0.601-0.131-0.774-0.945
					C277.815,71.401,278.015,71.541,278.247,71.541z"/>
				<path fill="#231F20" d="M277.114,87.176c-0.312,0-0.565,0.254-0.565,0.565c0,0.31,0.243,0.558,0.55,0.567
					c-0.027,0.067-0.039,0.141-0.039,0.218c0,0.344,0.277,0.622,0.62,0.622c0.345,0,0.624-0.278,0.624-0.622
					c0-0.077-0.015-0.15-0.04-0.218c0.305-0.01,0.55-0.258,0.55-0.567c0-0.312-0.254-0.565-0.566-0.565
					c-0.232,0-0.432,0.141-0.519,0.34c0.174-0.814,0.774-0.945,0.774-0.945h-1.645c0,0,0.602,0.131,0.775,0.945
					C277.546,87.316,277.347,87.176,277.114,87.176z"/>
				<path fill="#231F20" d="M268.746,87.176c-0.313,0-0.566,0.254-0.566,0.565c0,0.31,0.243,0.558,0.55,0.567
					c-0.025,0.067-0.04,0.141-0.04,0.218c0,0.344,0.279,0.622,0.622,0.622c0.344,0,0.623-0.278,0.623-0.622
					c0-0.077-0.014-0.15-0.039-0.218c0.305-0.01,0.55-0.258,0.55-0.567c0-0.312-0.254-0.565-0.567-0.565
					c-0.23,0-0.431,0.141-0.519,0.34c0.175-0.814,0.774-0.945,0.774-0.945h-1.644c0,0,0.6,0.131,0.775,0.945
					C269.178,87.316,268.978,87.176,268.746,87.176z"/>
			</g>
			<path opacity="0.4" fill="#FFFFFF" d="M278.979,67.5H273.5v24h5.479c0.876,0,0.521-1.695,0.521-2.57V68.534
				C279.5,67.658,279.855,67.5,278.979,67.5z"/>
		</g>
		<g>
			<path fill="#F3F2F2" d="M273.5,83.914c0,0.876-0.711,1.586-1.587,1.586h-10.826c-0.876,0-1.587-0.71-1.587-1.586V63.086
				c0-0.876,0.711-1.586,1.587-1.586h10.826c0.876,0,1.587,0.71,1.587,1.586V83.914z"/>
			<path fill="#EA2227" d="M270.484,71.434c0-0.853-0.691-1.543-1.543-1.543c-0.851,0-1.54,0.688-1.542,1.537
				c-0.004-0.85-0.694-1.537-1.543-1.537c-0.853,0-1.543,0.69-1.543,1.543c0,2.283,3.071,4.033,3.085,4.041
				C267.398,75.475,270.484,73.717,270.484,71.434z"/>
			<path fill="#EA2227" d="M273.556,63.355c0-0.345-0.28-0.624-0.624-0.624c-0.345,0-0.623,0.278-0.624,0.622
				c-0.002-0.344-0.28-0.622-0.624-0.622c-0.345,0-0.624,0.279-0.624,0.624c0,0.924,1.242,1.632,1.248,1.635
				C272.308,64.99,273.556,64.279,273.556,63.355z"/>
			<path fill="#EA2227" d="M264.147,63.355c0-0.345-0.278-0.624-0.622-0.624s-0.624,0.278-0.625,0.622
				c-0.001-0.344-0.279-0.622-0.623-0.622c-0.345,0-0.625,0.279-0.625,0.624c0,0.924,1.242,1.632,1.248,1.635
				C262.9,64.99,264.147,64.279,264.147,63.355z"/>
			<path fill="#EA2227" d="M261.652,81.178c0,0.344,0.28,0.623,0.625,0.623c0.344,0,0.622-0.277,0.623-0.621
				c0.001,0.344,0.281,0.621,0.625,0.621s0.622-0.279,0.622-0.623c0-0.924-1.24-1.632-1.247-1.635
				C262.9,79.543,261.652,80.254,261.652,81.178z"/>
			<path fill="#EA2227" d="M271.06,81.178c0,0.344,0.279,0.623,0.624,0.623c0.344,0,0.622-0.277,0.624-0.621
				c0.001,0.344,0.279,0.621,0.624,0.621c0.344,0,0.624-0.279,0.624-0.623c0-0.924-1.242-1.632-1.248-1.635
				C272.308,79.543,271.06,80.254,271.06,81.178z"/>
			<path opacity="0.4" fill="#FFFFFF" d="M273.184,61.5H266.5v22h6.684c0.875,0,1.316-0.463,1.316-1.339V61.765
				C274.5,60.89,274.059,61.5,273.184,61.5z"/>
		</g>
	</g>
	<g>
		<g>
			<rect x="101.5" y="139.5" fill-rule="evenodd" clip-rule="evenodd" fill="#33425A" width="34" height="23"/>
			<rect x="102.5" y="141.5" fill-rule="evenodd" clip-rule="evenodd" fill="#FBE400" width="30" height="20"/>
			<polygon opacity="0.4" fill-rule="evenodd" clip-rule="evenodd" fill="#FFFFFF" points="102.5,160.967 102.5,141.5 
				134.168,141.5 			"/>
			<rect x="113.5" y="162.5" fill-rule="evenodd" clip-rule="evenodd" fill="#33425A" width="9" height="3"/>
			<rect x="111.5" y="164.5" fill-rule="evenodd" clip-rule="evenodd" fill="#33425A" width="14" height="1"/>
		</g>
		<g>
			<path fill-rule="evenodd" clip-rule="evenodd" fill="#242E3B" d="M118.223,150.484l2.273-2.273
				c-1.585-1.453-4.038-1.431-5.559,0.091c-1.564,1.563-1.578,4.085-0.015,5.649s4.114,1.535,5.679-0.029
				c0.174-0.173,0.228-0.278,0.475-0.584L118.223,150.484z"/>
			<circle fill-rule="evenodd" clip-rule="evenodd" fill="#EC2224" cx="120.878" cy="150.852" r="0.471"/>
		</g>
		<g>
			<path fill="#33425A" d="M136.172,156.646l-10.491,1.91c-2.028,0.374-3.211,2.642-2.826,4.729c0.418,2.268,2.59,3.736,4.856,3.318
				c1.354-0.25,2.455-1.015,2.989-2.307l2.663-0.49c0.961,1.015,2.262,1.338,3.615,1.088c2.268-0.418,3.77-2.58,3.352-4.848
				C139.955,158.016,138.164,156.277,136.172,156.646z"/>
			<g>
				
					<rect x="126.112" y="163.403" transform="matrix(-0.9835 0.1811 -0.1811 -0.9835 281.5849 302.2635)" fill="#8BC541" width="1.758" height="1.172"/>
				
					<rect x="125.614" y="160.713" transform="matrix(0.9835 -0.1811 0.1811 0.9835 -27.1244 25.5804)" fill="#FBE400" width="1.758" height="1.173"/>
				
					<rect x="124.52" y="162.324" transform="matrix(-0.1806 -0.9836 0.9836 -0.1806 -12.3017 315.5717)" fill="#EC2227" width="1.563" height="1.173"/>
				
					<rect x="127.596" y="161.579" transform="matrix(0.9835 -0.1807 0.1807 0.9835 -27.2281 25.8541)" fill="#F69220" width="1.367" height="1.564"/>
				
					<rect x="125.961" y="161.765" transform="matrix(-0.1818 -0.9833 0.9833 -0.1818 -10.1505 316.8432)" fill="#FFFFFF" width="1.563" height="1.759"/>
			</g>
			<g>
				<circle fill="#FFFFFF" cx="135.292" cy="159.931" r="0.8"/>
				<circle fill="#FFFFFF" cx="135.677" cy="162.017" r="0.8"/>
				<circle fill="#FFFFFF" cx="137.597" cy="159.507" r="0.799"/>
				<circle fill="#FFFFFF" cx="137.981" cy="161.591" r="0.8"/>
			</g>
		</g>
	</g>
	<g>
		<path fill-rule="evenodd" clip-rule="evenodd" fill="#EC5E57" d="M250.252,133.169l19.508,0.001
			c2.006,0.002,3.648,1.643,3.648,3.65l-0.004,31.297c0,2.008-1.641,3.648-3.65,3.648l-19.508-0.002
			c-2.006,0-3.646-1.643-3.646-3.648l0.002-31.298C246.602,134.811,248.244,133.168,250.252,133.169z"/>
		<path fill-rule="evenodd" clip-rule="evenodd" fill="#DBD8DD" d="M251.514,136.537l16.982,0.002c1.002,0,1.824,0.821,1.824,1.825
			l-0.002,15.858c0,1.004-0.82,1.824-1.824,1.823l-16.982-0.001c-1.004,0-1.824-0.821-1.824-1.824l0.002-15.859
			C249.689,137.357,250.51,136.537,251.514,136.537z"/>
		<circle fill-rule="evenodd" clip-rule="evenodd" fill="#ECF7FD" cx="260.004" cy="161.171" r="3.57"/>
		<circle fill-rule="evenodd" clip-rule="evenodd" fill="#ECF7FD" cx="253.575" cy="166.594" r="1.851"/>
		<circle fill-rule="evenodd" clip-rule="evenodd" fill="#ECF7FD" cx="266.592" cy="166.594" r="1.852"/>
		<polygon fill-rule="evenodd" clip-rule="evenodd" fill="#F26F5E" points="261.957,161.174 258.406,163.225 258.406,159.125 		"/>
	</g>
	<rect x="4.494" y="4.596" fill="#1B75BB" width="300" height="34.568"/>
	<path fill="#D0D2D3" d="M298.15,200.596H10.84c-5.705,0-10.346-4.627-10.346-10.314V10.909c0-5.687,4.641-10.313,10.346-10.313
		H298.15c5.703,0,10.344,4.627,10.344,10.313v179.372C308.494,195.969,303.854,200.596,298.15,200.596z M10.84,8.596
		c-1.293,0-2.346,1.037-2.346,2.313v179.372c0,1.275,1.053,2.314,2.346,2.314H298.15c1.292,0,2.344-1.039,2.344-2.314V10.909
		c0-1.276-1.052-2.313-2.344-2.313H10.84z"/>
	<g>
		<circle fill="#FFFFFF" cx="250.095" cy="23.833" r="4.25"/>
		<circle fill="#FFFFFF" cx="265.979" cy="23.833" r="4.25"/>
		<circle fill="#FFFFFF" cx="282.004" cy="23.833" r="4.25"/>
	</g>
</g>
</svg>
