<?xml version="1.0" encoding="utf-8"?>
<!-- Generator: Adobe Illustrator 16.0.0, SVG Export Plug-In . SVG Version: 6.00 Build 0)  -->
<!DOCTYPE svg PUBLIC "-//W3C//DTD SVG 1.1//EN" "http://www.w3.org/Graphics/SVG/1.1/DTD/svg11.dtd">
<svg version="1.1" id="Layer_1" xmlns="http://www.w3.org/2000/svg" xmlns:xlink="http://www.w3.org/1999/xlink" x="0px" y="0px"
	 width="308px" height="173.974px" viewBox="0.494 0.596 308 173.974" enable-background="new 0.494 0.596 308 173.974"
	 xml:space="preserve">
<rect x="6.674" y="7.213" fill="#707375" width="295.503" height="159.595"/>
<path fill="#D1D3D4" d="M298.15,174.57H10.84c-5.705,0-10.346-4.627-10.346-10.314V10.909c0-5.687,4.641-10.313,10.346-10.313
	H298.15c5.703,0,10.344,4.627,10.344,10.313v153.347C308.494,169.943,303.854,174.57,298.15,174.57z M10.84,8.596
	c-1.293,0-2.346,1.037-2.346,2.313v153.347c0,1.275,1.053,2.314,2.346,2.314H298.15c1.293,0,2.344-1.039,2.344-2.314V10.909
	c0-1.276-1.051-2.313-2.344-2.313H10.84z"/>
<text transform="matrix(1 0 0 1 104.7646 119.7646)" fill="#B7AC9A" font-family="'MyriadPro-Bold'" font-size="111.5986">¿?</text>
</svg>
