<?xml version="1.0" encoding="utf-8"?>
<!-- Generator: Adobe Illustrator 16.0.0, SVG Export Plug-In . SVG Version: 6.00 Build 0)  -->
<!DOCTYPE svg PUBLIC "-//W3C//DTD SVG 1.1//EN" "http://www.w3.org/Graphics/SVG/1.1/DTD/svg11.dtd">
<svg version="1.1" id="Layer_1" xmlns="http://www.w3.org/2000/svg" xmlns:xlink="http://www.w3.org/1999/xlink" x="0px" y="0px"
	 width="308px" height="173.974px" viewBox="0.494 0.596 308 173.974" enable-background="new 0.494 0.596 308 173.974"
	 xml:space="preserve">
<rect x="6.674" y="7.213" fill="#707375" width="295.503" height="159.595"/>
<path fill="#D1D3D4" d="M298.15,174.57H10.84c-5.705,0-10.346-4.627-10.346-10.314V10.909c0-5.687,4.641-10.313,10.346-10.313
	H298.15c5.703,0,10.344,4.627,10.344,10.313v153.347C308.494,169.943,303.854,174.57,298.15,174.57z M10.84,8.596
	c-1.293,0-2.346,1.037-2.346,2.313v153.347c0,1.275,1.053,2.314,2.346,2.314H298.15c1.293,0,2.344-1.039,2.344-2.314V10.909
	c0-1.276-1.051-2.313-2.344-2.313H10.84z"/>
<g enable-background="new    ">
	<path fill="#B7AC9A" d="M139.473,90.748l0.112,2.79c0.334,5.691-1.563,11.16-6.473,17.187c-3.683,4.353-6.584,7.589-6.584,11.384
		c0,3.906,2.567,6.473,8.147,6.584c3.794,0,8.147-1.228,11.16-3.236l3.683,12.165c-4.018,2.344-10.714,4.576-18.638,4.576
		c-14.732,0-21.428-8.147-21.428-17.41c0-8.594,5.357-13.728,9.598-18.526c4.018-4.576,5.692-8.481,5.692-13.615l-0.112-1.897
		H139.473z M142.375,74.677c0,5.915-3.906,10.156-9.933,10.156c-5.915,0-9.933-4.241-10.044-10.156
		c0-5.915,4.129-10.155,10.044-10.155C138.357,64.521,142.375,68.762,142.375,74.677z"/>
	<path fill="#B7AC9A" d="M169.826,95.436l-0.111-2.902c-0.335-5.691,1.563-11.495,6.584-17.521c3.571-4.24,6.474-7.812,6.474-11.606
		c0-3.906-2.567-6.473-8.147-6.696c-3.683,0-8.146,1.339-11.049,3.349l-3.794-12.165c4.018-2.344,10.714-4.576,18.638-4.576
		c14.731,0,21.428,8.147,21.428,17.41c0,8.482-5.245,14.063-9.486,18.749c-4.13,4.576-5.804,8.929-5.692,13.951v2.009H169.826z
		 M166.925,110.837c0-5.915,4.129-10.156,9.933-10.156c6.026,0,9.933,4.241,10.044,10.156c0,5.803-4.018,10.155-10.044,10.155
		C170.942,120.992,166.925,116.64,166.925,110.837z"/>
</g>
</svg>
