<?xml version="1.0" encoding="utf-8"?>
<!-- Generator: Adobe Illustrator 16.0.0, SVG Export Plug-In . SVG Version: 6.00 Build 0)  -->
<!DOCTYPE svg PUBLIC "-//W3C//DTD SVG 1.1//EN" "http://www.w3.org/Graphics/SVG/1.1/DTD/svg11.dtd">
<svg version="1.1" id="Layer_1" xmlns="http://www.w3.org/2000/svg" xmlns:xlink="http://www.w3.org/1999/xlink" x="0px" y="0px"
	 width="107.859px" height="107.86px" viewBox="0 0 107.859 107.86" enable-background="new 0 0 107.859 107.86"
	 xml:space="preserve">
<g>
	<circle fill="#262262" cx="54.637" cy="53.891" r="53.929"/>
	<g>
		<path fill="#FFFFFF" d="M78.848,51.271c0,1.792,0,3.52,0,5.312c0.266,0,0.531,0.066,0.797,0.066c1.661,0,3.321,0,4.982,0
			c1.327,0,2.19,0.797,2.19,1.994c0,1.195-0.796,1.992-2.19,1.992c-1.927,0-3.787,0-5.779,0c0,1.793,0,3.52,0,5.313
			c0.199,0,0.465,0.068,0.664,0.068c1.728,0,3.387,0,5.115,0c1.327,0,2.19,0.797,2.19,1.99c0,1.195-0.863,1.994-2.19,1.994
			c-1.927,0-3.787,0-5.846,0c0,0.664,0,1.262,0,1.859c0,0.797,0,1.527,0,2.324c-0.066,2.193-1.794,3.854-3.985,3.854
			c-1.328,0-2.591,0-3.985,0c0,0.332-0.066,0.598-0.066,0.797c0,1.727,0,3.387,0,5.113c0,1.33-0.797,2.127-1.993,2.127
			c-1.194,0-1.992-0.797-1.992-2.127c0-1.926,0-3.852,0-5.844c-1.793,0-3.52,0-5.313,0c0,0.266-0.065,0.463-0.065,0.73
			c0,1.66,0,3.32,0,4.914c0,1.463-0.731,2.26-1.994,2.26c-1.327,0-2.059-0.797-2.059-2.326c0-1.66,0-3.32,0-4.914
			c0-0.201,0-0.465,0-0.73c-1.793,0-3.52,0-5.313,0c0,0.266-0.066,0.529-0.066,0.797c0,1.594,0,3.188,0,4.781
			c0,1.596-0.665,2.393-1.992,2.393c-1.329,0-1.993-0.797-1.993-2.393c0-1.859,0-3.652,0-5.578c-1.793,0-3.52,0-5.313,0
			c0,0.199-0.065,0.398-0.065,0.598c0,1.727,0,3.453,0,5.18c0,1.396-0.798,2.193-1.993,2.193c-1.263,0-1.993-0.797-1.993-2.193
			c0-1.926,0-3.785,0-5.844c-0.465,0-0.862,0-1.327,0c-0.865,0-1.728,0-2.591,0c-2.458,0-4.118-1.662-4.186-4.119
			c0-1.262,0-2.523,0-3.918c-0.331,0-0.531,0-0.797,0c-1.727,0-3.388,0-5.113,0c-1.263,0-2.127-0.797-2.127-1.992
			s0.864-1.994,2.127-1.994c1.726,0,3.387,0,5.113,0c0.266,0,0.466,0,0.797,0c0-0.928,0-1.793,0-2.723c0-0.863,0-1.727,0-2.656
			c-0.531,0-0.929,0-1.395,0c-1.527,0-2.988,0-4.516,0c-1.263,0-2.06-0.797-2.06-1.992c0-1.197,0.797-2.061,2.06-2.061
			c1.926,0,3.852,0,5.845,0c0-1.792,0-3.519,0-5.378c-1.462,0-2.856,0-4.317,0c-0.531,0-1.063,0-1.595,0
			c-1.263,0-2.06-0.798-2.06-1.993c0-1.13,0.797-1.993,2.06-1.993c1.728,0,3.454,0,5.181,0c0.266,0,0.466,0,0.731,0
			c0-1.793,0-3.52,0-5.313c-1.063,0-2.192,0-3.256,0c-0.863,0-1.726,0-2.589,0c-1.263,0-2.127-0.864-2.127-2.06
			s0.797-1.926,2.06-1.993c1.927,0,3.853,0,5.846,0c0-0.266,0.066-0.531,0.066-0.796c0-1.196,0-2.393,0.065-3.588
			c0.133-2.06,1.794-3.587,3.854-3.652c1.328,0,2.723,0,4.117,0c0-1.13,0-2.192,0-3.255c0-0.93,0-1.793,0-2.724
			c0-1.261,0.798-2.06,1.993-2.06s1.992,0.799,2.059,2.127c0,1.593,0,3.254,0,4.848c0,0.333,0,0.598,0,0.996
			c1.794,0,3.521,0,5.314,0c0-1.992,0-3.918,0-5.844c0-1.196,0.729-2.06,1.793-2.127c1.328-0.065,2.191,0.732,2.191,2.06
			c0,1.728,0,3.455,0,5.182c0,0.266,0,0.465,0,0.729c1.794,0,3.52,0,5.38,0c0-0.996,0-1.992,0-2.988s0-2.06,0-3.056
			c0.066-0.996,0.731-1.727,1.594-1.859c1.063-0.198,1.927,0.266,2.259,1.196c0.333,0.465,0.333,0.863,0.333,1.262
			c0,1.859,0,3.653,0,5.578c1.792,0,3.52,0,5.379,0c0-1.726,0-3.388,0-5.048c0-0.331,0-0.597,0-0.929
			c0.066-1.196,0.798-1.994,1.992-1.994c1.13,0,1.993,0.798,1.993,1.927c0,1.728,0,3.455,0,5.182c0,0.266,0,0.53,0,0.93
			c0.664,0,1.263,0,1.859,0c0.798,0,1.528,0,2.259,0c2.125,0.066,3.786,1.727,3.853,3.853c0.066,1.328,0,2.656,0,4.051
			c0.332,0,0.531,0.067,0.797,0.067c1.728,0,3.454,0,5.246,0c1.063,0,1.794,0.663,1.994,1.527c0.198,1.063-0.266,1.992-1.196,2.324
			c-0.332,0.134-0.73,0.134-1.129,0.134c-1.594,0-3.255,0-4.849,0c-0.266,0-0.465,0-0.797,0c0,0.93,0,1.793,0,2.656s0,1.728,0,2.656
			c0.266,0,0.531,0.067,0.797,0.067c1.728,0,3.388,0,5.114,0c1.262,0,2.125,0.796,2.125,1.992s-0.863,1.992-2.125,1.992
			C82.833,51.271,80.906,51.271,78.848,51.271z M46.567,68.407c0.665-0.332,1.527-0.201,2.125,0.596
			c0.532,0.666,1.063,0.799,1.794,0.533c0.598-0.199,1.195-0.398,1.792-0.533c2.127-0.664,2.06-0.664,1.993-2.922
			c0-0.465-0.199-0.73-0.663-0.664c-1.063,0-2.059,0.066-2.791,0.93c-0.132,0.201-0.331,0.334-0.53,0.4s-0.531,0-0.731-0.066
			c-0.065-0.066-0.065-0.467,0.067-0.6c0.465-0.863,1.194-1.395,2.191-1.527c0.598-0.066,1.196-0.133,1.794-0.133
			c0.531,0,0.797-0.199,0.729-0.73c-0.066-0.797-0.066-1.594-0.133-2.457c-0.133-1.262-0.663-1.793-1.992-1.729
			c-0.798,0.068-1.527,0.268-2.325,0.467c-0.863,0.199-1.659,0.199-2.258-0.467c-0.465-0.596-0.863-1.26-1.262-1.924
			c-0.066-0.135,0-0.6,0.132-0.664c0.134-0.068,0.532-0.068,0.665,0.064c0.266,0.268,0.465,0.6,0.665,0.932
			c0.53,0.93,0.996,1.195,1.992,0.863c1.395-0.531,2.789-0.73,4.25-0.066c0,0,0.067,0,0.133-0.066c0-0.998,0-2.061,0-3.189
			c-0.332,0.266-0.597,0.398-0.796,0.531c-1.262,0.797-2.127,0.797-3.256-0.133c-0.331-0.266-0.73-0.598-0.996-0.93
			c-0.663-0.664-1.395-0.863-2.324-0.796c-0.731,0.066-1.527,0.199-2.258,0c-1.329-0.333-2.591-0.333-3.854,0.066
			c-1.328,0.397-2.656,0.73-4.051,1.062c0.133,1.195,0.332,2.258,0.465,3.455c0.599-0.201,1.063-0.4,1.595-0.465
			c0.531,0,0.995,0.199,1.527,0.264c0.531,0.068,0.663-0.264,0.797-0.729c0.266-1.395,1.859-1.994,2.922-0.998
			c0.931,0.863,1.262,1.928,1.262,3.123c0,0.664-0.331,1.195-0.929,1.461c-0.797,0.398-1.595,0.797-2.392,1.195
			c-0.465,0.199-0.93,0.332-1.328-0.066c0.797-1.063,1.727-1.859,3.121-1.926c0.2,0,0.599-0.465,0.599-0.73
			c0-0.996-0.398-1.926-1.13-2.59c-0.332-0.332-0.664-0.332-0.797,0.197c-0.133,0.398-0.266,0.799-0.331,1.131
			c-0.267,0.928-0.731,1.195-1.661,0.996c-0.266-0.068-0.466-0.133-0.665-0.201c-1.328-0.33-1.66-0.064-1.594,1.264
			c0,0.199,0,0.398,0.066,0.598c0.599,2.258,1.727,4.184,3.255,5.91c0,0,0.066,0,0.133,0c0.066-0.131,0.133-0.33,0.133-0.463
			c0.333-1.793,0.93-2.193,2.724-2.127c0.066,0,0.198,0,0.266,0c0.93,0.066,1.66-0.199,2.059-1.129
			c0.266-0.664,0.797-1.063,1.527-1.195c0.664-0.133,1.329-0.266,2.06-0.332c0.199,0,0.464,0,0.73,0.066
			c0.198,0.066,0.398,0.266,0.398,0.398s-0.2,0.332-0.398,0.398c-0.465,0.133-0.931,0.199-1.395,0.332
			c-0.665,0.266-1.461,0.398-1.794,0.863c-0.863,1.195-1.926,1.727-3.453,1.527c-1.196-0.133-1.794,0.465-1.859,1.727
			c-0.067,1.264,0.53,2.26,1.461,3.057c1.395,1.262,2.988,2.324,4.715,3.055c1.129,0.465,2.325,0.73,3.587,0.598
			c1.527-0.133,1.992-0.598,2.125-2.125c0.067-0.398,0.067-0.73,0.067-1.129c0-1.328-0.531-1.662-1.727-0.996
			c-0.731,0.398-1.396,0.797-2.126,1.129c-0.665,0.266-1.328,0.266-1.859-0.332C47.896,69.868,47.232,69.137,46.567,68.407z
			 M63.505,68.672c-1.262,0.133-1.794,1.063-2.523,1.859c-0.665,0.73-1.396,0.863-2.259,0.332c-0.398-0.199-0.731-0.465-1.063-0.666
			c-0.465-0.264-0.863-0.529-1.328-0.596c-0.266-0.066-0.863,0.266-0.863,0.465c-0.465,2.125-0.134,4.051,2.458,3.984
			c3.52-0.133,6.508-1.594,8.7-4.449c0.532-0.73,0.73-1.596,0.664-2.523c-0.132-0.998-0.531-1.396-1.527-1.328
			c-0.464,0-0.931,0.133-1.395,0.133c-0.798,0.064-1.461-0.268-1.727-0.996c-0.466-1.131-1.329-1.596-2.458-1.662
			c-0.332,0-0.665,0-0.996-0.199c-0.266-0.133-0.532-0.465-0.73-0.664c0.331-0.199,0.663-0.531,0.996-0.465
			c1.528,0.133,2.923,0.598,3.719,2.059c0.333,0.664,0.931,0.863,1.66,0.664c0.267-0.066,0.532-0.133,0.865-0.133
			c1.194-0.199,1.992,0.199,2.39,1.396c0.133,0.463,0.266,0.93,0.398,1.525c1.462-1.525,2.525-3.188,3.056-5.18
			c0.133-0.531,0.199-1.129,0.199-1.727c0-0.797-0.398-1.063-1.195-0.863c-1.661,0.465-2.523-0.135-2.723-1.662
			c0-0.264-0.333-0.729-0.532-0.729c-0.332,0-0.797,0.197-0.93,0.465c-0.332,0.596-0.531,1.195-0.663,1.859
			c-0.2,0.797-0.067,1.129,0.796,1.129c1.329,0.066,2.06,0.996,2.923,1.859c-0.532,0.465-0.996,0.332-1.461,0.066
			c-0.599-0.332-1.262-0.598-1.927-0.797c-0.93-0.266-1.462-0.797-1.328-1.727c0.199-1.063,0.531-2.059,0.997-2.988
			c0.397-0.863,1.128-1.063,1.859-0.932c0.863,0.201,1.063,0.797,1.194,1.596c0.133,1.063,0.599,1.262,1.528,0.863
			c0.863-0.334,1.66-0.863,2.523,0.398c0.134-1.262,0.266-2.26,0.398-3.256c0-0.332,0-0.598-0.465-0.531
			c-1.395,0.066-2.722-0.464-3.985-0.929c-0.664-0.199-1.395-0.266-2.125-0.199c-0.863,0.066-1.727,0.464-2.59,0.398
			c-1.66-0.132-2.989,0.332-4.185,1.529c-1.063,1.063-2.391,0.996-3.587,0c-0.199-0.135-0.398-0.334-0.664-0.533
			c0,1.195,0,2.26,0,3.389c0.199-0.066,0.332,0,0.398-0.066c1.129-0.664,2.325-0.467,3.454,0.066
			c0.198,0.066,0.465,0.133,0.663,0.199c0.865,0.199,1.264,0.066,1.662-0.732c0.198-0.33,0.397-0.662,0.598-0.996
			c0.331-0.398,0.729-0.531,1.194-0.131c-0.331,0.531-0.598,1.061-0.929,1.594c-0.665,0.996-1.528,1.461-2.724,1.129
			c-0.598-0.133-1.263-0.332-1.859-0.398c-1.396-0.201-2.392,0.531-2.591,1.926c-0.066,0.664-0.134,1.262-0.066,1.926
			c0,1.063,0.133,1.063,1.194,1.129c0.865,0,1.729,0.133,2.524,0.334c0.665,0.133,1.129,0.664,1.196,1.393
			c0.066,0.268-0.2,0.6-0.266,0.863c-0.199-0.131-0.532-0.197-0.665-0.33c-0.862-1.262-2.059-1.262-3.387-1.197
			c-0.133,0-0.398,0.201-0.398,0.332c-0.066,0.865,0,1.729,0,2.658c0.531,0,0.995,0,1.462,0.066
			c0.464,0.066,0.863,0.264,1.262,0.465c1.859,1.061,1.925,1.061,3.32-0.531C61.977,67.809,62.774,67.875,63.505,68.672z
			 M54.14,45.292c-1.328,0.464-1.594,0.531-2.923,0.267c-0.332-0.067-0.664-0.134-0.996-0.2c-1.462-0.267-2.458,0.397-2.923,1.926
			c-0.465,1.395,0.066,2.524,1.328,3.123c0.599,0.265,1.196,0.397,1.86,0.597c0.796,0.267,0.929,0.665,0.398,1.396
			c-0.864-0.333-1.728-0.599-2.591-0.93c-1.727-0.665-2.656-2.658-2.192-4.584c0.398-1.66,2.192-2.922,3.986-2.723
			c0.531,0.066,0.996,0.199,1.527,0.332c1.528,0.332,2.457-0.399,2.524-1.927c0.065-1.063,0-2.125,0.065-3.121
			c0-0.466-0.133-0.73-0.597-0.863c-1.263-0.399-2.326-1.263-3.786-1.063c0.198-0.266,0.398-0.53,0.597-0.53
			c0.665-0.066,1.329-0.066,1.927,0.065c0.598,0.133,1.129,0.398,1.926,0.665c-0.066-0.931,0-1.727-0.199-2.459
			c-0.065-0.397-0.464-0.863-0.797-0.996c-1.86-0.464-3.72-0.53-5.445,0.399c-0.399,0.199-0.863,0.863-0.863,1.262
			c0,1.194,0.131,2.391,0.331,3.521c0.133,0.664,0.598,1.129,1.328,1.129c0.93,0.067,1.927,0.067,2.856,0.133
			c0.199,0,0.398,0.2,0.665,0.332c-0.134,0.199-0.267,0.531-0.466,0.531c-0.665,0.133-1.395,0.267-2.126,0.267
			c-2.391-0.134-2.789-0.532-3.188-2.857c-0.199-1.062-0.332-2.124-0.531-3.388c-0.797,0.731-1.527,1.264-2.06,1.86
			c-0.265,0.332-0.464,0.93-0.398,1.263c0.2,0.863,0.598,1.727,0.996,2.59c0.333,0.73,0.863,1.396,1.129,2.126
			c0.466,1.195,0.267,2.323-0.597,3.255c-0.798,0.93-1.859,0.863-2.923,0.597c-0.863-0.198-1.661-0.465-2.524-0.597
			c-0.663-0.133-1.328-0.067-1.859,0.531c-0.664,0.796-0.797,1.792-0.93,2.923c0.797-0.2,1.461-0.333,2.126-0.531
			c1.526-0.466,3.055-0.333,4.517-0.2c0.266,0,0.464,0.265,0.73,0.465c-0.2,0.199-0.465,0.465-0.73,0.465
			c-0.665,0.067-1.329,0.067-1.993,0.067c-0.465,0-0.997-0.134-1.461,0c-1.129,0.265-2.192,0.597-3.255,0.93c0,0.797,0,1.66,0,2.59
			c1.594-0.333,3.056-0.598,4.517-0.997c0.996-0.265,1.992-0.332,3.056-0.133c0.73,0.133,1.527,0.266,2.258,0.2
			c1.461,0,2.657,0.332,3.586,1.527c0.797,0.996,2.192,1.062,3.056,0.133c0.466-0.465,0.864-1.195,0.996-1.86
			c0.133-1.063,0.067-2.19,0-3.254c0-0.133-0.265-0.398-0.464-0.465c-0.731-0.133-1.461-0.199-2.193-0.267
			c-0.464-0.066-0.929-0.133-0.862-0.664c0.133-0.53,0.598-0.465,1.063-0.398c0.532,0.133,1.063,0.266,1.594,0.333
			c0.399,0.065,0.798-0.067,0.863-0.531C54.14,46.886,54.14,46.155,54.14,45.292z M72.937,50.34
			c-0.267-0.93-0.399-1.661-0.598-2.325c-0.332-0.929-0.997-1.327-2.06-1.195c-0.664,0.066-1.328,0.332-2.06,0.399
			c-0.796,0.133-1.66,0.332-2.457,0.266c-1.395-0.066-2.059-0.93-1.859-2.259c0.133-0.996,0.465-1.926,0.863-2.856
			c0.332-0.863,0.863-1.726,1.195-2.59c0.598-1.527-0.465-3.321-2.059-3.719c-0.266,1.327-0.466,2.723-0.731,4.051
			c-0.265,1.129-1.128,1.728-2.324,1.728c-0.731,0-1.462,0.065-2.192,0.132c-0.398,0-0.863,0-1.262-0.132
			c-0.133-0.066-0.331-0.466-0.266-0.599c0.066-0.133,0.398-0.266,0.599-0.331c0.53-0.067,1.128-0.067,1.727-0.067
			c0.465,0,0.996-0.133,1.461-0.066c0.93,0,1.262-0.199,1.329-1.129c0.065-1.195,0.065-2.325,0.065-3.521
			c0-1.127-0.465-1.727-1.594-1.859c-1.063-0.132-2.06-0.265-3.122-0.198c-1.594,0.066-2.324,0.863-2.39,2.457
			c-0.067,1.196,0.198,1.396,1.327,0.996c0.797-0.266,1.594-0.597,2.457-0.73c0.798-0.133,1.262,0.331,1.595,1.196
			c-0.333,0-0.664,0-0.931-0.066c-0.797-0.399-1.527-0.199-2.258,0.132c-0.531,0.266-1.129,0.465-1.727,0.731
			c-0.133,0.066-0.333,0.265-0.333,0.465c0,1.195-0.065,2.324,0,3.521c0.134,1.66,1.528,2.457,3.056,1.859
			c0.465-0.199,0.996-0.332,1.528-0.266c1.462,0.066,2.923,1.262,3.454,2.789c0.465,1.396,0.133,2.99-1.196,3.919
			c-0.93,0.664-2.06,0.996-3.188,1.396c-0.199,0.065-0.53-0.066-0.797-0.133c0.134-0.267,0.199-0.664,0.399-0.731
			c0.464-0.265,1.062-0.464,1.594-0.598c1.595-0.397,2.324-1.594,1.926-3.188c-0.398-1.727-1.66-2.656-3.255-2.257
			c-1.195,0.265-2.324,0.796-3.586-0.134c-0.065,0.798-0.065,1.395-0.133,1.993c-0.066,0.863,0.133,1.063,0.996,0.996
			c0.664-0.066,1.262-0.199,1.927-0.267c0.531-0.065,1.062,0.067,1.262,0.731c-1.262,0.796-2.657,0.731-4.052,0.731
			c0,0.996,0,1.991,0,2.921c0,1.195,0.531,2.126,1.461,2.922c0.997,0.865,1.794,0.799,2.523-0.266
			c0.798-1.128,1.86-1.594,3.255-1.527c0.997,0,2.059-0.199,3.056-0.266c0.863-0.066,1.727-0.066,2.523,0
			c0.797,0.132,1.528,0.465,2.325,0.664c0.664,0.199,1.395,0.266,2.258,0.465c0-0.863,0-1.595,0-2.258
			c0-0.466-0.133-0.598-0.53-0.665c-0.931-0.198-1.86-0.464-2.856-0.664c-0.399-0.066-0.931-0.066-1.328,0
			c-0.931,0.2-1.794,0.066-2.591-0.331c-0.199-0.068-0.398-0.532-0.332-0.665c0.066-0.2,0.398-0.331,0.665-0.398
			c0.198-0.066,0.397,0.067,0.598,0.198c0.597,0.4,1.194,0.333,1.925,0.266c0.599-0.132,1.262-0.065,1.86,0.067
			C71.143,49.809,71.939,50.074,72.937,50.34z M67.622,39.048c-0.065,0-0.133,0.067-0.266,0.067
			c-0.066,0.133-0.133,0.266-0.198,0.465c-0.465,0.996-0.931,2.06-1.461,3.056c-0.267,0.531-0.532,0.996-0.731,1.527
			c-0.399,1.396,0.333,2.392,1.728,2.259c1.461-0.134,2.855-0.466,4.516-0.798c-0.398-0.864-0.73-1.594-1.194-2.258
			c-0.268-0.466-0.731-0.399-1.131-0.066c-0.198,0.199-0.398,0.53-0.664,0.664c-0.265,0.132-0.663,0.132-0.996,0.132
			c0.066-0.266,0-0.663,0.2-0.796c0.531-0.531,1.129-1.063,1.727-1.595C68.686,40.842,68.154,39.912,67.622,39.048z M38.397,45.624
			c0.664,0.132,1.13,0.266,1.661,0.398c0.465,0.133,0.996,0.266,1.461,0.399c0.465,0.065,0.996,0.198,1.461,0.133
			c1.196-0.067,1.86-0.931,1.528-2.126c-0.134-0.398-0.267-0.797-0.465-1.196c-0.665-1.394-1.329-2.723-1.992-4.117
			c0,0-0.067,0-0.2-0.067c-0.398,0.665-0.863,1.329-1.328,1.993c-0.333,0.531-0.2,0.863,0.266,1.195
			c0.531,0.332,0.996,0.73,1.394,1.196c0.2,0.199,0.067,0.598,0.134,0.863c-0.332,0-0.73,0.133-0.996,0
			c-0.399-0.2-0.73-0.531-1.063-0.797c-0.266-0.199-0.465-0.332-0.864-0.599C39.128,43.765,38.73,44.695,38.397,45.624z"/>
	</g>
</g>
</svg>
