<?xml version="1.0" encoding="utf-8"?>
<!-- Generator: Adobe Illustrator 16.0.0, SVG Export Plug-In . SVG Version: 6.00 Build 0)  -->
<!DOCTYPE svg PUBLIC "-//W3C//DTD SVG 1.1//EN" "http://www.w3.org/Graphics/SVG/1.1/DTD/svg11.dtd">
<svg version="1.1" id="Layer_1" xmlns="http://www.w3.org/2000/svg" xmlns:xlink="http://www.w3.org/1999/xlink" x="0px" y="0px"
	 width="107.859px" height="107.86px" viewBox="0 0 107.859 107.86" enable-background="new 0 0 107.859 107.86"
	 xml:space="preserve">
<g>
	<path id="XMLID_5_" fill="#4C9944" d="M108.296,54.04c0,29.924-24.263,54.194-54.193,54.194c-29.932,0-54.193-24.27-54.193-54.194
		c0-29.931,24.261-54.193,54.193-54.193C84.033-0.153,108.296,24.109,108.296,54.04z"/>
	<g>
		<path fill="#FFFFFF" d="M28.709,44.633c-1.79,0-3.24,1.434-3.24,3.225v15.651c0,1.775,1.45,3.24,3.24,3.24s3.232-1.465,3.232-3.24
			V47.857C31.941,46.066,30.499,44.633,28.709,44.633z"/>
		<path fill="#FFFFFF" d="M79.488,44.633c-1.782,0-3.232,1.434-3.232,3.225v15.651c0,1.775,1.45,3.24,3.232,3.24
			c1.791,0,3.248-1.465,3.248-3.24V47.857C82.736,46.066,81.279,44.633,79.488,44.633z"/>
		<path fill="#FFFFFF" d="M34.848,44.633c0,0.043,0,0.073,0,0.118v28.876c0,2.678,2.175,4.854,4.854,4.854h5.192v8.225
			c0,1.775,1.45,3.238,3.239,3.238c1.79,0,3.24-1.463,3.24-3.238v-8.225h5.525v8.225c0,1.775,1.45,3.238,3.232,3.238
			c1.79,0,3.239-1.463,3.239-3.238v-8.225h5.193c2.686,0,4.859-2.176,4.859-4.854V44.751c0-0.045-0.008-0.075-0.015-0.118H34.848z"
			/>
		<path fill="#FFFFFF" d="M63.549,24.971l3.461-6.45l-0.71-0.384l-3.469,6.45c-2.611-1.332-5.57-2.086-8.707-2.086
			c-2.973,0-5.784,0.68-8.291,1.893l-3.366-6.257l-0.718,0.384l3.352,6.229c-5.983,3.226-10.067,9.513-10.119,16.776h38.301
			C73.238,34.424,69.317,28.24,63.549,24.971z M44.265,34.144c-0.999,0-1.827-0.829-1.827-1.819c0-1.007,0.828-1.835,1.827-1.835
			c1.006,0,1.827,0.828,1.827,1.835C46.092,33.314,45.271,34.144,44.265,34.144z M63.682,34.144c-1.006,0-1.813-0.829-1.813-1.819
			c0-1.007,0.807-1.835,1.813-1.835c1.014,0,1.819,0.828,1.819,1.835C65.501,33.314,64.695,34.144,63.682,34.144z"/>
	</g>
</g>
</svg>
