<?xml version="1.0" encoding="utf-8"?>
<!-- Generator: Adobe Illustrator 16.0.0, SVG Export Plug-In . SVG Version: 6.00 Build 0)  -->
<!DOCTYPE svg PUBLIC "-//W3C//DTD SVG 1.1//EN" "http://www.w3.org/Graphics/SVG/1.1/DTD/svg11.dtd">
<svg version="1.1" id="Layer_1" xmlns="http://www.w3.org/2000/svg" xmlns:xlink="http://www.w3.org/1999/xlink" x="0px" y="0px"
	 width="107.859px" height="107.86px" viewBox="0 0 107.859 107.86" enable-background="new 0 0 107.859 107.86"
	 xml:space="preserve">
<g>
	<path id="XMLID_7_" fill="#58595B" d="M108.283,54.045c0,29.926-24.262,54.188-54.189,54.188C24.162,108.233-0.1,83.971-0.1,54.045
		c0-29.928,24.262-54.197,54.193-54.197C84.021-0.152,108.283,24.118,108.283,54.045z"/>
	<g>
		<path fill="#FFFFFF" d="M62.939,29.46c2.094-2.59,3.514-6.191,3.129-9.771c-3.025,0.119-6.69,2.051-8.865,4.631
			c-1.938,2.301-3.644,5.955-3.188,9.482C57.396,34.062,60.839,32.05,62.939,29.46z"/>
		<path fill="#FFFFFF" d="M70.515,52.22c-0.03-2.455,0.591-4.496,1.449-6.16c1.849-3.596,4.853-5.371,5.045-5.504
			c-3.536-5.26-9.039-5.984-11.007-6.066c-4.679-0.486-9.136,2.811-11.514,2.811c-2.374,0-6.039-2.736-9.926-2.67
			c-5.108,0.082-9.816,3.025-12.45,7.678c-0.813,1.443-1.412,2.996-1.815,4.623c-2.237,8.877,1.258,19.809,5.63,26.238
			c2.529,3.713,5.54,7.893,9.497,7.744c3.813-0.156,5.252-2.516,9.856-2.516c4.608,0,5.906,2.516,9.938,2.441
			c4.091-0.082,6.695-3.787,9.202-7.523c2.899-4.318,4.098-8.498,4.164-8.705C78.488,64.558,70.595,61.482,70.515,52.22z"/>
	</g>
</g>
</svg>
