<?xml version="1.0" encoding="utf-8"?>
<!-- Generator: Adobe Illustrator 16.0.0, SVG Export Plug-In . SVG Version: 6.00 Build 0)  -->
<!DOCTYPE svg PUBLIC "-//W3C//DTD SVG 1.1//EN" "http://www.w3.org/Graphics/SVG/1.1/DTD/svg11.dtd">
<svg version="1.1" id="Layer_1" xmlns="http://www.w3.org/2000/svg" xmlns:xlink="http://www.w3.org/1999/xlink" x="0px" y="0px"
	 width="107.859px" height="107.86px" viewBox="0 0 107.859 107.86" enable-background="new 0 0 107.859 107.86"
	 xml:space="preserve">
<g>
	<path id="XMLID_1_" fill="#92278F" d="M109.051,53.951c0,29.857-24.206,54.063-54.065,54.063
		c-29.862,0-54.069-24.206-54.069-54.063c0-29.859,24.207-54.072,54.069-54.072C84.845-0.121,109.051,24.092,109.051,53.951z"/>
	<g>
		<path fill="#FFFFFF" d="M52.779,18.462c-8.2,0.603-13.885,5.188-16.492,11.276c12.452,0,24.906,0,37.359,0
			C70.708,22.46,63.229,17.694,52.779,18.462z"/>
		<path fill="#FFFFFF" d="M78.593,32.152c-0.926-0.924-2.939-0.678-5.099-0.678c-10.724,0-19.29,0-29.066,0
			c-3.349,0-9.265-0.615-11.896,0.169c-2.49,0.742-1.87,3.857-1.87,6.629c0,3.882-0.88,14.784,0.85,16.147
			c0.995,0.786,5.302,0.511,8.158,0.511c2.578,0,6.682,0.52,8.839,0c1.342-0.324,1.988-2.045,3.568-2.381
			c1.621-0.345,4.434-0.372,5.951,0c1.686,0.416,2.112,2.08,3.567,2.381c2.358,0.485,5.403,0,8.67,0
			c2.566,0,6.985,0.414,8.159-0.511c1.753-1.382,0.849-7.654,0.849-11.049C79.272,40.465,80.238,33.8,78.593,32.152z M76.298,40.774
			l-0.088,0.251l-1.691-0.032c-0.607-0.27-0.587-1.161-0.564-2.105c0.013-0.536,0.026-1.143-0.101-1.416
			c-0.262-0.562-1.675-0.847-4.2-0.847c-0.876,0-1.783,0.031-2.631,0.061c-0.749,0.026-1.451,0.05-2.044,0.05H44.956
			c-0.574,0-1.291-0.029-2.071-0.06c-0.919-0.037-1.928-0.077-2.891-0.077c-2.914,0-3.744,0.4-3.927,0.735
			c-0.185,0.342-0.145,1.127-0.113,1.757c0.044,0.858,0.078,1.536-0.29,1.846l-0.105,0.088h-1.678l-0.085-0.257
			c-0.573-1.726-0.466-3.434,0.293-4.685c0.608-1.001,1.599-1.638,2.863-1.841c0.897-0.145,1.871-0.212,3.063-0.212
			c1.032,0,2.106,0.052,3.146,0.103c1.059,0.051,2.153,0.104,3.224,0.104h18.75c0.782,0,1.589-0.024,2.392-0.049
			c0.805-0.024,1.606-0.049,2.378-0.049c2.692,0,5.309,0.269,6.217,2.221C76.639,37.471,76.556,40.035,76.298,40.774z"/>
		<path fill="#FFFFFF" d="M80.884,38.152c0,3.197,0,6.395,0,9.593C84.604,47.995,84.622,37.898,80.884,38.152z"/>
		<path fill="#FFFFFF" d="M65.575,57.167c-0.877,0.069-1.783,0.142-2.662,0.142c-0.984,0-1.799-0.093-2.492-0.283
			c-0.817-0.225-1.337-0.811-1.839-1.377c-0.459-0.518-0.892-1.006-1.51-1.142c-0.632-0.141-1.459-0.221-2.27-0.221
			c-0.805,0-1.53,0.075-2.099,0.218c-0.434,0.108-0.856,0.559-1.305,1.036c-0.563,0.6-1.199,1.279-2.066,1.489
			c-0.948,0.228-1.997,0.339-3.207,0.339c-1.292,0-2.602-0.122-3.988-0.25c-1.441-0.134-2.932-0.271-4.457-0.271
			c-0.864,0-1.665,0.044-2.434,0.134c2.467,8.951,5.901,15.488,10.211,19.435c1.846,1.688,4.738,3.772,8.032,4.109
			c0.498,0.052,0.995,0.077,1.479,0.077c6.634,0,10.69-4.898,13.483-9.166c2.812-4.295,4.907-9.136,6.231-14.396h-6.758
			C67.198,57.04,66.409,57.102,65.575,57.167z"/>
		<path fill="#FFFFFF" d="M56.176,83.124c-5.109,0.427-8.915-1.971-11.941-4.432v8.09c2.083,1.688,6.168,2.73,10.731,2.73
			s8.648-1.043,10.731-2.73V78.77c-0.095,0.069-0.19,0.139-0.287,0.209C63.085,80.678,60.19,82.793,56.176,83.124z"/>
		<path fill="#FFFFFF" d="M29.084,38.152c0,3.197,0,6.395,0,9.593C25.364,47.995,25.346,37.898,29.084,38.152z"/>
	</g>
</g>
</svg>
