<?xml version="1.0" encoding="utf-8"?>
<!-- Generator: Adobe Illustrator 16.0.0, SVG Export Plug-In . SVG Version: 6.00 Build 0)  -->
<!DOCTYPE svg PUBLIC "-//W3C//DTD SVG 1.1//EN" "http://www.w3.org/Graphics/SVG/1.1/DTD/svg11.dtd">
<svg version="1.1" id="Layer_1" xmlns="http://www.w3.org/2000/svg" xmlns:xlink="http://www.w3.org/1999/xlink" x="0px" y="0px"
	 width="107.859px" height="107.86px" viewBox="0 0 107.859 107.86" enable-background="new 0 0 107.859 107.86"
	 xml:space="preserve">
<g>
	<circle fill="#1C75BC" cx="53.93" cy="53.93" r="53.93"/>
	<g>
		<g>
			<g>
				<path fill="#FFFFFF" d="M84.279,53.931c0,16.761-13.588,30.349-30.35,30.349c-16.76,0-30.344-13.588-30.344-30.349
					c0-16.758,13.584-30.345,30.344-30.345C70.691,23.585,84.279,37.172,84.279,53.931z"/>
				<path fill="#1C75BC" d="M22.262,53.931c0-17.49,14.179-31.667,31.668-31.67l0,0c17.491,0.001,31.669,14.18,31.669,31.67l0,0
					c0,17.491-14.18,31.667-31.669,31.667l0,0C36.436,85.6,22.262,71.421,22.262,53.931L22.262,53.931z M24.907,53.931
					c0.027,16.029,12.994,28.994,29.021,29.024l0,0c16.029-0.028,28.995-12.995,29.024-29.024l0,0
					c-0.027-16.027-12.995-28.995-29.024-29.022l0,0C37.901,24.936,24.935,37.904,24.907,53.931L24.907,53.931z"/>
			</g>
			<g>
				<path fill="#FFFFFF" d="M47.779,83.594c-6.142-7.584-9.943-18.074-9.943-29.664c0-11.576,3.789-22.056,9.927-29.639"/>
				<path fill="#1C75BC" d="M36.511,53.931c0.002-11.866,3.878-22.633,10.224-30.471l0,0l2.054,1.664
					c-5.932,7.327-9.633,17.521-9.633,28.807l0,0c0,11.3,3.711,21.505,9.65,28.831l0,0l0.002,0.001l-2.059,1.662
					C40.402,76.587,36.515,65.809,36.511,53.931L36.511,53.931z"/>
			</g>
			<g>
				<path fill="#FFFFFF" d="M59.384,83.594c6.144-7.584,9.943-18.074,9.943-29.664c0-11.576-3.79-22.056-9.925-29.639"/>
				<path fill="#1C75BC" d="M58.354,82.762c5.938-7.326,9.65-17.531,9.648-28.831l0,0c0.002-11.287-3.699-21.481-9.629-28.808l0,0
					l2.056-1.664c6.338,7.838,10.217,18.605,10.221,30.471l0,0c-0.004,11.876-3.891,22.656-10.239,30.497l0,0L58.354,82.762
					L58.354,82.762z"/>
			</g>
			<g>
				<line fill="none" x1="53.93" y1="23.223" x2="53.93" y2="84.225"/>
				<polygon fill="#1C75BC" points="52.606,84.223 52.606,23.223 55.251,23.223 55.251,84.223 				"/>
			</g>
			<g>
				<line fill="none" x1="23.586" y1="53.931" x2="84.279" y2="53.931"/>
				<polygon fill="#1C75BC" points="23.583,55.254 23.583,52.606 84.279,52.606 84.279,55.254 				"/>
			</g>
			<g>
				<line fill="none" x1="27.8" y1="38.562" x2="79.627" y2="38.562"/>
				<polygon fill="#1C75BC" points="27.797,39.886 27.797,37.239 79.624,37.239 79.624,39.886 				"/>
			</g>
			<g>
				<line fill="none" x1="79.366" y1="69.274" x2="27.533" y2="69.274"/>
				<polygon fill="#1C75BC" points="27.533,70.597 27.533,67.95 79.363,67.95 79.363,70.597 				"/>
			</g>
		</g>
	</g>
</g>
</svg>
